<?xml version="1.0" encoding="UTF-8" standalone="no"?>
<svg
   xmlns:dc="http://purl.org/dc/elements/1.1/"
   xmlns:cc="http://creativecommons.org/ns#"
   xmlns:rdf="http://www.w3.org/1999/02/22-rdf-syntax-ns#"
   xmlns:svg="http://www.w3.org/2000/svg"
   xmlns="http://www.w3.org/2000/svg"
   xmlns:sodipodi="http://sodipodi.sourceforge.net/DTD/sodipodi-0.dtd"
   xmlns:inkscape="http://www.inkscape.org/namespaces/inkscape"
   sodipodi:docname="Logo.svg"
   inkscape:version="1.0 (4035a4fb49, 2020-05-01)"
   id="svg8"
   version="1.1"
   viewBox="0 0 111.29557 216.93842"
   height="216.93842mm"
   width="111.29557mm">
  <defs
     id="defs2">
    <clipPath
       clipPathUnits="userSpaceOnUse"
       id="clipPath65">
      <rect
         style="fill:#ffaaaa;stroke:#000000;stroke-width:2.5"
         id="rect67"
         width="111.88095"
         height="94.494049"
         x="-18.898809"
         y="-359.83334" />
    </clipPath>
    <clipPath
       clipPathUnits="userSpaceOnUse"
       id="clipPath71">
      <rect
         style="fill:#ffaaaa;stroke:#000000;stroke-width:2.56412"
         id="rect73"
         width="113.26861"
         height="16.818096"
         x="346.53848"
         y="-250.99654" />
    </clipPath>
    <clipPath
       clipPathUnits="userSpaceOnUse"
       id="clipPath92">
      <rect
         style="fill:#ffaaaa;stroke:#000000;stroke-width:2.59041"
         id="rect94"
         width="113.81233"
         height="102.35862"
         x="275.73264"
         y="-240.74489" />
    </clipPath>
  </defs>
  <sodipodi:namedview
     inkscape:window-maximized="1"
     inkscape:window-y="41"
     inkscape:window-x="-9"
     inkscape:window-height="1001"
     inkscape:window-width="1920"
     showgrid="false"
     inkscape:document-rotation="0"
     inkscape:current-layer="layer1"
     inkscape:document-units="mm"
     inkscape:cy="438.71431"
     inkscape:cx="389.79883"
     inkscape:zoom="0.68593502"
     inkscape:pageshadow="2"
     inkscape:pageopacity="0.0"
     borderopacity="1.0"
     bordercolor="#666666"
     pagecolor="#ffffff"
     id="base" />
  <metadata
     id="metadata5">
    <rdf:RDF>
      <cc:Work
         rdf:about="">
        <dc:format>image/svg+xml</dc:format>
        <dc:type
           rdf:resource="http://purl.org/dc/dcmitype/StillImage" />
        <dc:title />
      </cc:Work>
    </rdf:RDF>
  </metadata>
  <g
     id="layer1"
     inkscape:groupmode="layer"
     inkscape:label="Layer 1"
     transform="translate(-47.2362,-29.865292)">
    <path
       inkscape:export-ydpi="96"
       inkscape:export-xdpi="96"
       id="path1106"
       d="m 53.442847,246.42276 c -0.55897,-0.14607 -1.01631,-0.62229 -1.01631,-1.05827 0,-0.50408 -0.58145,-0.75288 -1.59705,-0.68334 -1.35129,0.0925 -1.62587,-0.142 -1.7843,-1.52392 -0.16195,-1.41248 -0.31064,-1.53085 -1.10008,-0.87567 -0.80051,0.66437 -0.86076,0.57951 -0.48967,-0.68974 0.23273,-0.79602 0.97581,-2.2258 1.6513,-3.17729 0.67548,-0.95148 1.17128,-2.38883 1.10177,-3.1941 -0.2156,-2.49782 2.29119,-11.04643 3.23924,-11.04643 0.50458,0 0.71343,-0.34362 0.51815,-0.85251 -0.17993,-0.46889 -0.11097,-0.98613 0.15323,-1.14942 0.26421,-0.16328 0.64041,-1.09705 0.836,-2.07503 0.1956,-0.97799 1.20227,-2.55144 2.23705,-3.49656 1.40735,-1.28541 1.6293,-1.71841 0.88087,-1.71841 -1.39602,0 -1.24838,-0.77495 0.27803,-1.45934 0.70453,-0.31588 1.48282,-1.3767 1.73346,-2.36274 0.25019,-0.98421 0.96389,-2.25011 1.58599,-2.81311 0.62211,-0.563 0.9901,-1.39108 0.81776,-1.84019 -0.50554,-1.31741 0.0781,-0.94524 1.46996,0.93734 1.29113,1.74635 1.29225,1.7682 0.2628,5.08153 -0.56865,1.83019 -1.23369,3.41474 -1.47787,3.52121 -0.66544,0.29016 -0.53489,1.83903 0.15501,1.83903 0.32944,0 0.7494,-0.392 0.93325,-0.87112 0.18386,-0.47911 0.82899,-0.87112 1.43364,-0.87112 0.67437,0 1.09936,-0.407 1.09936,-1.05284 0,-0.57906 0.75988,-1.78085 1.68862,-2.67064 1.50877,-1.4455 1.71065,-1.50346 1.89544,-0.54421 0.16484,0.85573 0.47034,0.64721 1.50548,-1.02756 0.71426,-1.15564 1.29866,-2.5776 1.29866,-3.15992 0,-0.99499 -0.0542,-0.99087 -0.89923,0.0686 -0.79426,0.99571 -0.79252,0.90698 0.0149,-0.76012 0.50278,-1.03808 1.2607,-1.88742 1.68425,-1.88742 0.82798,0 4.96559,-7.55657 6.15906,-11.24836 0.57054,-1.76489 0.57436,-2.34073 0.0178,-2.68469 -0.53086,-0.32809 -0.54786,-0.73807 -0.0678,-1.63505 0.74734,-1.39643 0.86432,-5.33875 0.15841,-5.33875 -0.26526,0 -1.33826,1.19191 -2.38444,2.64868 -1.04618,1.45678 -2.04711,2.50373 -2.22429,2.32655 -0.17718,-0.17718 0.11181,-0.80166 0.6422,-1.38774 0.99832,-1.10312 1.31504,-3.00675 0.50027,-3.00675 -0.25524,0 -0.81005,0.98001 -1.23291,2.1778 -0.42286,1.19779 -1.14603,2.60953 -1.60705,3.13721 -0.46102,0.52768 -0.78992,1.31168 -0.73089,1.74224 0.25793,1.88125 -0.0993,2.81543 -1.07668,2.81543 -0.78054,0 -1.06231,0.47954 -1.10903,1.88742 -0.0344,1.03809 -0.47663,2.67143 -0.98264,3.62966 -0.506,0.95824 -0.92161,2.15908 -0.92358,2.66854 -0.002,0.50946 -0.5208,1.39437 -1.15296,1.96647 -1.10623,1.00113 -1.1646,0.99906 -1.55469,-0.0552 -0.22292,-0.60245 -0.61054,-1.23537 -0.86139,-1.40651 -0.79574,-0.54287 0.1434,-2.7638 1.29617,-3.06526 0.60929,-0.15933 1.1078,-0.60345 1.1078,-0.98694 0,-0.38349 -0.392,-0.54683 -0.87112,-0.36297 -1.26842,0.48674 -1.06755,-0.46547 0.49431,-2.34325 0.75098,-0.90288 1.25187,-1.96828 1.11309,-2.36754 -0.13878,-0.39927 0.0308,-0.72593 0.37682,-0.72593 0.34603,0 0.63048,-0.84935 0.63211,-1.88743 0.002,-1.03808 0.64683,-2.93276 1.43374,-4.21041 1.07197,-1.74043 1.43532,-3.15315 1.44889,-5.63341 0.0139,-2.5363 0.25579,-3.44343 1.03443,-3.87918 0.58046,-0.32484 1.08604,-1.3957 1.17891,-2.49703 0.41923,-4.97193 0.31281,-5.72167 -1.0124,-7.13228 -1.17094,-1.24642 -1.35176,-2.0588 -1.4083,-6.32751 -0.0529,-3.99133 0.13172,-5.11477 0.99771,-6.07179 0.8619,-0.95253 0.93809,-1.40694 0.40339,-2.40605 -1.69847,-3.17362 1.2813,-5.07589 9.09401,-5.80558 9.18703,-0.85803 23.502123,-0.92062 25.010673,-0.10935 0.95487,0.51351 1.62172,0.53411 2.47679,0.0765 0.92075,-0.49277 1.24339,-0.43525 1.514,0.26994 0.20779,0.54152 1.06621,0.89975 2.16917,0.90523 1.00391,0.005 3.38645,0.37628 5.29452,0.82509 1.90808,0.4488 3.64144,0.70959 3.8519,0.57951 0.21047,-0.13007 1.78534,0.24258 3.49972,0.82811 1.71438,0.58555 3.4439,0.95218 3.84338,0.81476 0.44669,-0.15367 0.59914,0.0816 0.39597,0.61104 -0.37421,0.97517 -0.0449,1.23965 2.21699,1.78028 1.21183,0.28965 1.59705,0.16775 1.59705,-0.50537 0,-0.73159 0.19687,-0.76416 1.12295,-0.18581 0.61762,0.3857 1.10934,0.84526 1.09272,1.02122 -0.13269,1.40424 0.30993,1.72482 2.22184,1.60925 1.34961,-0.0816 2.21479,0.15682 2.39169,0.65905 0.20113,0.57101 -0.0603,0.67976 -0.95304,0.39642 -1.50335,-0.47714 -1.62728,0.49173 -0.19727,1.54232 1.09632,0.80543 1.24709,1.50371 0.55835,2.58579 -0.51026,0.80165 1.60316,3.58916 2.24005,2.95454 0.24576,-0.24488 0.13759,-0.75448 -0.24038,-1.13245 -1.10296,-1.10296 -0.7924,-1.71357 0.51551,-1.0136 1.17501,0.62885 1.18016,0.60924 0.22358,-0.85069 l -0.97917,-1.49437 h 2.68015 c 1.47408,0 2.68015,0.26134 2.68015,0.58075 0,0.31941 -0.34022,0.58075 -0.75602,0.58075 -0.46589,0 -0.77814,0.78004 -0.81364,2.03261 -0.0317,1.11793 0.17785,2.03261 0.46565,2.03261 0.28779,0 0.52326,-0.26736 0.52326,-0.59414 0,-1.08686 3.00218,1.35393 4.41168,3.58671 0.88123,1.39597 1.69286,2.08368 2.22027,1.8813 1.41056,-0.54128 2.7697,2.37357 3.0111,6.45771 0.12327,2.08557 0.62335,4.74741 1.11128,5.91519 0.48793,1.16779 0.66007,2.27303 0.38254,2.4561 -0.74056,0.48849 -1.38057,3.52696 -0.74291,3.52696 0.29888,0 0.69843,-0.32667 0.88789,-0.72594 0.18945,-0.39926 0.21658,0.18875 0.0603,1.30668 -0.46314,3.31258 -5.14288,11.87265 -6.61,12.09087 -1.41526,0.21051 -1.70305,-0.75768 -0.37654,-1.26671 0.82277,-0.31573 1.2679,-2.11297 0.52333,-2.11297 -1.09138,0 -4.29817,1.99915 -4.29817,2.67952 0,0.44272 -0.27895,0.80495 -0.61989,0.80495 -0.34201,0 -0.46482,0.48853 -0.27397,1.08984 0.27445,0.86473 -0.21009,1.35117 -2.34598,2.35516 -1.48053,0.69593 -3.38259,2.01837 -4.2268,2.93876 -0.84421,0.92039 -3.6099,2.8188 -6.14598,4.21869 -4.545,2.50879 -6.61702,4.51076 -3.73328,3.60707 3.27963,-1.02774 3.19086,-1.01371 2.26333,-0.35798 -1.885,1.33261 0.1989,1.39612 2.60905,0.0795 1.99181,-1.08807 2.73609,-1.2517 3.2691,-0.71869 0.533,0.533 0.37022,0.81085 -0.715,1.22038 -0.77282,0.29165 -1.63034,0.3968 -1.90561,0.23368 -0.27528,-0.16312 -0.66728,-0.0618 -0.87112,0.22519 -0.66883,0.9416 -3.42398,1.87808 -4.61163,1.5675 -0.73693,-0.19271 -2.61984,0.57385 -5.13362,2.08998 -2.18341,1.31687 -5.01803,2.69962 -6.29917,3.07277 -1.28113,0.37316 -2.53305,1.00886 -2.78205,1.41269 -0.33001,0.53521 -0.85737,0.58037 -1.94565,0.16661 -1.04756,-0.39828 -3.06898,-0.29416 -6.77605,0.34902 -2.90572,0.50416 -5.80594,0.77992 -6.44494,0.61282 -0.63899,-0.1671 -1.436753,-0.0789 -1.772783,0.19595 -0.83816,0.68562 -2.80339,0.95661 -3.54675,0.48907 -0.33704,-0.21198 -1.64372,-0.14636 -2.90373,0.14583 -1.26001,0.29218 -3.80506,0.53748 -5.65567,0.5451 -2.87065,0.0118 -3.33969,0.16218 -3.19411,1.02391 0.12592,0.74532 -0.51432,1.22572 -2.4427,1.83285 -1.43735,0.45253 -2.70411,1.05425 -2.81502,1.33716 -0.11092,0.28291 -0.55387,0.22207 -0.98434,-0.13519 -0.43048,-0.35726 -1.31303,-0.56416 -1.96124,-0.45979 -1.82773,0.29428 -0.51343,1.78978 1.64085,1.86706 1.46253,0.0524 1.64342,0.18755 0.94146,0.70311 -2.0005,1.4693 1.53851,1.91882 4.54238,0.57696 2.34076,-1.04564 6.66394,-1.56029 7.10548,-0.84586 0.18665,0.302 0.90537,0.36548 1.59716,0.14107 3.19938,-1.03787 12.001593,-2.91606 12.001593,-2.56086 0,1.10927 -15.325643,5.21106 -19.164603,5.12926 -1.11793,-0.0238 -4.25396,0.63608 -6.96894,1.46647 -2.71499,0.83038 -6.11235,1.68306 -7.5497,1.89483 -1.43734,0.21178 -2.97544,0.67482 -3.418,1.02897 -0.44255,0.35416 -1.21801,0.64786 -1.72324,0.65268 -0.50523,0.005 -1.18848,0.53142 -1.51834,1.17024 -0.32986,0.63882 -1.58846,2.1415 -2.79689,3.33929 -2.17688,2.15769 -3.8536,2.58654 -6.9496,1.77747 z m 4.08397,-2.99442 c 0.16643,-0.49981 -0.11281,-0.70909 -0.77487,-0.58075 -0.56928,0.11036 -1.15214,0.55228 -1.29525,0.98204 -0.16643,0.49981 0.11281,0.7091 0.77487,0.58075 0.56928,-0.11035 1.15215,-0.55228 1.29525,-0.98204 z m 20.83161,-18.7538 c 0.43548,-0.35713 0.75192,-0.30163 0.9054,0.15879 0.15298,0.45893 0.53006,0.52603 1.07243,0.19083 0.46007,-0.28435 1.51085,-0.44625 2.33506,-0.3598 0.82422,0.0865 1.83064,-0.24292 2.2365,-0.73196 0.40587,-0.48903 1.69169,-1.06167 2.85738,-1.27251 1.16569,-0.21085 2.86209,-0.75954 3.76977,-1.21933 1.28905,-0.65295 19.949323,-5.43238 24.192843,-6.19647 2.68246,-0.483 3.54341,-1.04312 2.8632,-1.86272 -0.37534,-0.45225 -1.05144,-0.82228 -1.50246,-0.82228 -0.49238,0 -0.1079,-0.69613 0.96225,-1.74224 0.98026,-0.95823 2.24598,-1.74224 2.81273,-1.74224 0.56674,0 2.55255,-0.91656 4.41291,-2.03681 2.81921,-1.69764 3.80593,-1.99726 5.92548,-1.79925 2.10076,0.19625 2.69487,0.0207 3.4162,-1.00908 1.0197,-1.45583 0.29792,-1.90737 -1.50582,-0.94204 -0.69507,0.372 -1.15458,0.45428 -1.02112,0.18285 1.51436,-3.07981 1.94324,-3.6876 2.60216,-3.6876 0.43788,0 0.70686,-0.53005 0.62779,-1.23713 -0.0913,-0.81666 0.22439,-1.29518 0.92891,-1.40795 1.54268,-0.24693 3.38096,-2.08337 3.02195,-3.01894 -0.16905,-0.44054 0.44277,-1.76371 1.3596,-2.94038 2.24102,-2.87614 2.97202,-5.33452 2.97202,-9.99501 0,-2.76481 -0.25474,-4.11887 -0.87112,-4.63042 -0.73938,-0.61363 -0.87498,-0.47069 -0.89661,0.9452 -0.0237,1.55088 -0.0843,1.50484 -0.86238,-0.65483 -0.46028,-1.27764 -0.84081,-2.38831 -0.84562,-2.46817 -0.005,-0.0798 -0.55975,-0.14518 -1.2332,-0.14518 -0.99953,0 -1.16074,-0.25382 -0.87762,-1.38183 0.22794,-0.9082 -0.0423,-1.87652 -0.78848,-2.82512 -1.1704,-1.48792 -4.442,-3.17273 -5.02629,-2.58843 -0.59268,0.59268 0.46998,1.6709 2.47066,2.50683 1.07894,0.45082 1.96171,1.20816 1.96171,1.68299 0,1.13028 -0.31453,1.09054 -2.20131,-0.27808 -0.86545,-0.62778 -2.81631,-1.41321 -4.33525,-1.74541 -1.51894,-0.3322 -3.25966,-1.10195 -3.86827,-1.71056 -1.49292,-1.49292 -7.06317,-2.04011 -15.9473,-1.56658 -10.584163,0.56415 -14.880813,1.03001 -14.880813,1.61345 0,0.28938 0.40902,1.15038 0.90892,1.91333 0.79772,1.21747 0.80754,1.58797 0.0802,3.02848 -0.45578,0.90271 -0.97399,3.11894 -1.15159,4.92494 -0.17759,1.80601 -0.74851,4.02736 -1.26871,4.93634 l -0.94582,1.6527 0.35355,-2.32298 c 0.35169,-2.31076 0.34835,-2.31575 -0.63468,-0.94779 -0.54352,0.75635 -2.21966,4.28439 -3.72474,7.84007 -3.53645,8.35464 -5.38661,11.96706 -7.28415,14.22215 -1.81328,2.15496 -3.02831,2.44715 -1.69138,0.40674 0.51112,-0.78007 0.83546,-2.02141 0.72077,-2.75854 -0.1828,-1.17495 -0.37241,-1.02888 -1.53718,1.18421 -0.73076,1.38847 -1.20269,2.85271 -1.04875,3.25389 0.15395,0.40118 -0.18848,1.13045 -0.76094,1.62061 -0.57246,0.49016 -1.88569,3.46862 -2.91829,6.61879 -1.03259,3.15018 -2.38786,6.6211 -3.0117,7.71317 -0.71875,1.25821 -1.00396,2.50475 -0.77855,3.40283 0.34125,1.35964 0.49035,1.40059 3.66798,1.00737 1.82175,-0.22543 3.61354,-0.65694 3.98173,-0.9589 z m 32.979603,-10.10131 c 0.62002,-0.46896 1.40403,-0.84434 1.74224,-0.83418 0.33821,0.0102 0.10765,0.40216 -0.51237,0.87112 -0.62001,0.46895 -1.40402,0.84434 -1.74224,0.83418 -0.33821,-0.0102 -0.10764,-0.40217 0.51237,-0.87112 z m 30.02952,-31.60568 c -0.0411,-1.82455 0.15486,-2.84934 0.50364,-2.63378 0.69848,0.43168 0.73872,3.76634 0.0584,4.83978 -0.31315,0.49411 -0.51945,-0.31558 -0.56204,-2.206 z m -26.22048,39.46422 c 0,-0.31941 -0.37658,-0.58075 -0.83684,-0.58075 -0.46027,0 -0.99836,0.26134 -1.19577,0.58075 -0.19741,0.31941 0.17917,0.58074 0.83684,0.58074 0.65767,0 1.19577,-0.26133 1.19577,-0.58074 z m 9.0321,-8.14205 c 2.5086,-0.95378 4.28844,-2.59244 3.75437,-3.45658 -0.37516,-0.60703 -0.88833,-0.50789 -2.48771,0.48058 -1.10827,0.68495 -2.55678,1.24537 -3.2189,1.24537 -0.66212,0 -1.39282,0.30574 -1.62377,0.67944 -0.28763,0.46539 -0.0951,0.55479 0.61113,0.28378 0.76626,-0.29404 0.94455,-0.17024 0.69424,0.48206 -0.39522,1.02992 0.13651,1.09674 2.27064,0.28535 z m 22.12104,-14.07148 c 0.81577,-1.14802 0.58235,-3.04891 -0.37439,-3.04891 -0.55744,0 -0.93577,0.67856 -1.05233,1.88742 -0.18522,1.92096 0.49409,2.47398 1.42672,1.16149 z m 6.62844,-9.37907 c 1.20352,-1.59489 1.70913,-2.92636 1.70913,-4.50078 0,-1.22971 -0.26134,-2.23584 -0.58075,-2.23584 -0.31941,0 -0.58074,0.4108 -0.58074,0.91289 0,0.91308 -1.9936,4.60969 -4.48425,8.3149 -0.72777,1.08265 -1.31618,2.38933 -1.30759,2.90372 0.0163,0.97424 1.90154,-0.9652 5.2442,-5.39489 z m 2.51811,-0.10555 c 0.87056,-2.26864 -0.21837,-2.43157 -1.40704,-0.21053 -0.46741,0.87338 -0.41642,1.12915 0.22512,1.12915 0.45617,0 0.98805,-0.41337 1.18192,-0.91862 z m -6.99509,-1.10868 c 1.17827,-1.17826 2.07238,-4.2788 1.84373,-6.39351 -0.10361,-0.95823 -0.22224,-2.26491 -0.26365,-2.90373 -0.0716,-1.10537 -0.10525,-1.10991 -0.6959,-0.0939 -0.34135,0.58717 -0.51654,1.95918 -0.38932,3.04891 0.12721,1.08974 0.026,1.98134 -0.22503,1.98134 -0.45482,0 -2.21416,3.74798 -2.21416,4.71689 0,0.78515 0.98322,0.60513 1.94433,-0.35599 z m 4.47599,-9.86758 c -0.0382,-2.86897 -0.32234,-5.46926 -0.6315,-5.77842 -0.30916,-0.30917 -0.56211,-1.28087 -0.56211,-2.15935 0,-0.87847 -0.32667,-1.80621 -0.72593,-2.06164 -0.39927,-0.25543 -1.00473,-0.96963 -1.34549,-1.5871 -0.80412,-1.45711 -2.39246,-2.4471 -2.98134,-1.85821 -0.25437,0.25438 0.0598,0.85158 0.69808,1.32712 0.63832,0.47555 1.08434,1.14023 0.99116,1.47707 -0.0932,0.33685 0.24141,1.0664 0.74352,1.62123 1.47885,1.6341 2.07413,4.5905 2.10305,10.44464 0.0149,3.02552 0.18042,5.74889 0.36771,6.05193 0.7398,1.19703 1.40869,-2.52745 1.34285,-7.47727 z m -6.42032,4.31091 c 0,-1.03646 -0.24193,-1.62699 -0.58075,-1.41759 -0.31941,0.19741 -0.58074,0.99684 -0.58074,1.77651 0,0.77968 0.26133,1.41759 0.58074,1.41759 0.31941,0 0.58075,-0.79943 0.58075,-1.77651 z m -63.201823,-1.5076 c 1.12116,-1.01464 1.43373,-2.52334 0.52277,-2.52334 -0.82833,0 -2.36446,1.72478 -2.36446,2.65483 0,1.08666 0.5381,1.04824 1.84169,-0.13149 z m 71.953733,-2.70659 c -0.326,-0.85744 -0.854,-1.55899 -1.17333,-1.55899 -0.71186,0 -0.12936,3.43821 0.77876,4.59661 0.53537,0.68293 0.6732,0.62743 0.81576,-0.32844 0.0943,-0.63261 -0.0952,-1.85174 -0.42119,-2.70918 z m -0.3559,-2.68035 c 0.18377,-0.29735 0.0685,-0.70477 -0.2561,-0.9054 -0.32462,-0.20062 -0.59022,0.0426 -0.59022,0.54062 0,1.0201 0.34848,1.17029 0.84632,0.36478 z m -8.97676,-1.71126 c 0,-1.41163 -1.51708,-2.77616 -1.88162,-1.6924 -0.40519,1.20466 0.20627,2.78278 1.07823,2.78278 0.44187,0 0.80339,-0.49067 0.80339,-1.09038 z m 9.507,-1.53615 c 0.18676,-0.48668 -0.17699,-1.40062 -0.80898,-2.03261 -1.14393,-1.14393 -1.14832,-1.14203 -1.14832,0.49713 0,2.36606 1.25944,3.35408 1.9573,1.53548 z m -14.37593,-1.91054 c -0.81216,-0.81216 -0.93853,-0.82012 -0.93853,-0.0591 0,1.19314 1.35891,2.55206 1.6572,1.6572 0.12093,-0.36276 -0.20248,-1.0819 -0.71867,-1.59809 z m 6.68588,-2.03453 c -0.66217,-0.66217 -1.33585,-1.07202 -1.49709,-0.91079 -0.51486,0.51485 1.47737,2.87099 2.10144,2.48529 0.3664,-0.22645 0.13137,-0.83878 -0.60435,-1.5745 z m -7.62441,-5.04331 c -0.63994,-1.19574 -1.26293,-1.44722 -1.93078,-0.77937 -0.52887,0.52887 0.73114,1.94086 1.73195,1.94086 0.64049,0 0.6841,-0.25477 0.19883,-1.16149 z m -2.32298,-2.42841 c 0,-0.22373 -0.26133,-0.56829 -0.58074,-0.7657 -1.16098,-0.71752 -0.58181,-1.49329 0.63048,-0.84449 1.49482,0.8 1.66372,0.64685 1.31031,-1.18812 -0.19465,-1.01068 -1.01732,-1.79351 -2.70726,-2.57619 -1.3352,-0.61838 -2.81582,-1.0945 -3.29028,-1.05805 -0.47445,0.0365 -1.02294,-0.19309 -1.21886,-0.51009 -0.35693,-0.57751 -4.04667,-1.12869 -8.33968,-1.24579 -1.42207,-0.0388 -2.71549,-0.48723 -3.41083,-1.18257 -0.93638,-0.93638 -1.62654,-1.06058 -4.20778,-0.7572 -1.8422,0.21651 -3.23269,0.12825 -3.44719,-0.21882 -0.46533,-0.75291 -3.19471,-0.7596 -3.19471,-0.008 0,0.31564 -0.5592,0.51164 -1.24266,0.43555 -0.68346,-0.0761 -1.35169,0.16767 -1.48495,0.54168 -0.29709,0.8338 5.48953,1.65986 7.71492,1.10132 0.97394,-0.24444 2.02564,-0.0537 2.91425,0.52854 1.79821,1.17823 1.77213,2.04572 -0.0615,2.04572 -4.33401,0 2.12164,2.61497 7.79969,3.1594 1.73454,0.16631 3.42016,0.56882 3.74581,0.89448 0.32565,0.32564 1.31084,0.59208 2.18932,0.59208 0.87848,0 1.80622,0.34985 2.06165,0.77744 0.85392,1.42947 2.61965,2.05955 3.76578,1.34378 0.57983,-0.3621 1.05423,-0.84142 1.05423,-1.06515 z m -3.48447,-0.47532 c 0,-0.31941 0.24591,-0.58075 0.54647,-0.58075 0.30056,0 0.70798,0.26134 0.90539,0.58075 0.19741,0.31941 -0.0485,0.58074 -0.54647,0.58074 -0.49797,0 -0.90539,-0.26133 -0.90539,-0.58074 z m -2.1778,-1.54611 c -1.02931,-0.41534 -0.90138,-1.35762 0.18432,-1.35762 0.67735,0 0.80616,-0.33434 0.50342,-1.30668 -0.39107,-1.25602 -0.36046,-1.25039 0.78935,0.14519 0.95092,1.15417 1.02485,1.49064 0.36059,1.641 -0.45958,0.10403 -0.6863,0.4307 -0.50384,0.72593 0.35373,0.57235 -0.15009,0.62983 -1.33384,0.15218 z m -5.95264,-3.09986 c 0,-0.31941 0.26133,-0.58074 0.58074,-0.58074 0.31941,0 0.58075,0.26133 0.58075,0.58074 0,0.31941 -0.26134,0.58075 -0.58075,0.58075 -0.31941,0 -0.58074,-0.26134 -0.58074,-0.58075 z m 25.0491,7.30592 c -1.04322,-0.56239 -1.17059,-0.81952 -0.52808,-1.06607 1.0426,-0.40009 2.41263,0.37645 2.11887,1.20099 -0.14271,0.40062 -0.68226,0.35485 -1.59079,-0.13492 z m -2.10965,-2.07921 c -0.1974,-0.31941 0.0485,-0.58074 0.54647,-0.58074 0.49797,0 0.9054,0.26133 0.9054,0.58074 0,0.31941 -0.24591,0.58075 -0.54647,0.58075 -0.30056,0 -0.70799,-0.26134 -0.9054,-0.58075 z m 5.43164,-23.50886 c -0.33644,-0.33644 -8.03054,-0.70202 -30.4037,-1.44464 -15.43974,-0.51248 -33.388763,-1.35283 -43.555923,-2.03923 -2.23587,-0.15095 -9.0306,-0.42501 -15.09939,-0.60902 -6.06879,-0.18401 -11.94884,-0.49043 -13.06678,-0.68093 l -2.03261,-0.34635 2.19678,-0.48937 c 8.51733,-1.89738 26.10589,-2.83542 32.13314,-1.71376 1.56079,0.29047 6.36584,0.68478 10.67787,0.87625 4.31204,0.19147 10.453423,0.46978 13.647523,0.61847 6.4209,0.29891 5.45969,-0.43037 -1.79382,-1.36097 -2.2075,-0.28321 -3.22963,-0.56636 -2.2714,-0.62921 1.54165,-0.10113 1.60851,-0.17549 0.58074,-0.64594 -1.11109,-0.5086 5.79507,-0.60971 36.58698,-0.53567 13.02246,0.0313 14.90704,0.24263 15.86663,1.77918 1.37935,2.20868 -1.81772,8.86951 -3.46604,7.22119 z m -35.63041,-7.85141 c -1.62209,-0.69703 -4.79592,-0.69703 -5.22672,0 -0.22454,0.36332 0.90413,0.56547 3.01464,0.53993 2.4218,-0.0293 3.04588,-0.18163 2.21208,-0.53993 z m -7.10615,-0.4088 c -0.71429,-0.13785 -2.02096,-0.14142 -2.90373,-0.008 -0.88277,0.13348 -0.29836,0.24627 1.29869,0.25063 1.59705,0.004 2.31932,-0.10486 1.60504,-0.24271 z m -32.049093,-9.11916 c -0.3677,-0.44306 -1.183,-0.67103 -1.81177,-0.50659 -0.62878,0.16442 -1.47728,0.0217 -1.88555,-0.31711 -0.45831,-0.38036 -1.06601,-0.41601 -1.58834,-0.0932 -0.54803,0.33871 -1.29735,0.22715 -2.1274,-0.31672 -0.89884,-0.58894 -2.07888,-0.73028 -3.95275,-0.47344 -2.62376,0.35963 -2.7222,0.31342 -5.52304,-2.59241 -1.56842,-1.62721 -3.67222,-3.38288 -4.6751,-3.90149 -1.33513,-0.69041 -1.74517,-1.24219 -1.53119,-2.06043 0.20983,-0.80239 -0.008,-1.1175 -0.77125,-1.1175 -0.73191,0 -1.955,-1.58429 -3.92299,-5.08152 -3.4615,-6.151292 -4.44029,-8.545482 -3.9819,-9.740012 0.1909,-0.49748 0.0413,-1.39416 -0.33244,-1.99261 -1.43077,-2.29103 1.63053,-15.38879 5.57158,-23.83805 0.81942,-1.75676 1.71018,-3.1941 1.97946,-3.1941 0.67028,0 2.43925,-1.8201 2.43925,-2.50974 0,-0.30805 0.41912,-0.72093 0.93137,-0.9175 0.52911,-0.20303 0.78857,-0.72956 0.60073,-1.21904 -0.21557,-0.56179 0.2851,-1.18006 1.43868,-1.7766 1.07914,-0.55804 1.64924,-1.22792 1.46146,-1.71724 -0.20099,-0.52379 -0.015,-0.68993 0.53562,-0.47861 0.59031,0.22652 0.95257,-0.22177 1.20693,-1.49353 0.40291,-2.01456 1.09215,-2.66415 2.82677,-2.66415 0.75014,0 1.16259,-0.3882 1.16459,-1.09611 0.002,-0.60286 0.5814,-1.31004 1.28821,-1.57151 0.70681,-0.26146 1.65576,-1.36248 2.10878,-2.4467 0.61183,-1.46433 1.78863,-2.51094 4.57575,-4.0696 2.06365,-1.15405 4.0956,-2.51218 4.51544,-3.01806 0.5306,-0.63934 0.8864,-0.72067 1.16694,-0.26675 0.75679,1.22451 5.18619,-0.4498 6.27947,-2.37364 0.5758,-1.01324 1.79414,-1.97758 3.00177,-2.37596 1.11793,-0.36879 2.57614,-1.02382 3.24046,-1.45563 0.66432,-0.4318 1.34817,-0.64478 1.51966,-0.47328 0.1715,0.1715 2.35827,-0.35622 4.859483,-1.1727 4.09107,-1.33546 4.60009,-1.39084 5.06976,-0.55157 0.46885,0.83779 0.64967,0.81633 1.77274,-0.21038 1.47104,-1.34482 3.86399,-2.18976 3.86399,-1.36435 0,0.31432 -0.32667,0.7033 -0.72593,0.8644 -0.49226,0.19863 -0.44552,0.30174 0.14518,0.3203 0.47912,0.0151 1.37841,-0.35631 1.99842,-0.82527 1.37985,-1.04366 3.02924,-1.10466 3.42606,-0.12671 0.2171,0.53505 0.42071,0.55158 0.77433,0.0629 0.54242,-0.74965 6.5776,-0.82862 6.5776,-0.0861 0,0.2645 0.61792,0.32582 1.37315,0.13626 0.97146,-0.24382 1.48313,-0.058 1.74911,0.63509 0.30405,0.79232 0.54005,0.84354 1.23384,0.26775 1.26682,-1.05137 4.73411,-0.25293 5.10784,1.17622 0.22848,0.87373 0.79708,1.14718 2.3853,1.14718 1.56722,0 2.64388,0.50464 4.33353,2.03113 l 2.24822,2.03113 1.46887,-1.15541 c 0.80788,-0.63548 1.95295,-2.33252 2.54461,-3.77119 0.79864,-1.94201 1.39398,-2.61634 2.3113,-2.61795 0.67956,-0.001 1.53188,-0.35922 1.89405,-0.7956 0.81019,-0.97622 7.28504,-0.92951 8.27424,0.0597 0.82608,0.82608 -0.19811,3.58009 -2.22899,5.99365 -0.75025,0.89163 -1.29218,1.84086 -1.20426,2.1094 0.25357,0.77463 -4.95592,7.63034 -6.10705,8.03688 -0.57209,0.20204 -1.19685,1.15078 -1.38835,2.10831 -0.22301,1.11503 -0.84944,1.93153 -1.74238,2.27102 -0.7668,0.29154 -1.84072,1.34667 -2.38649,2.34475 -0.54576,0.99807 -1.82163,2.83055 -2.83526,4.07218 -1.01362,1.24164 -2.13694,3.14831 -2.49626,4.23705 -0.35932,1.08875 -1.03267,2.12512 -1.49633,2.30304 -0.46367,0.17793 -0.84084,0.78904 -0.83815,1.35804 0.008,1.77775 -1.97972,8.8746 -2.48612,8.8746 -0.26497,0 -0.89176,-0.98001 -1.39288,-2.1778 -0.69036,-1.6501 -0.8464,-3.51463 -0.64398,-7.69488 0.22285,-4.60246 0.61347,-6.37845 2.35625,-10.71291 1.14902,-2.8577 1.95824,-5.40758 1.79828,-5.6664 -0.49754,-0.80504 -3.86111,-2.35022 -6.89575,-3.16781 -6.29509,-1.69602 -13.34906,-1.59864 -22.35871,0.30866 -1.43735,0.30428 -3.6587,0.74206 -4.93634,0.97285 -1.277633,0.23079 -2.714983,0.75305 -3.194093,1.16057 -0.47912,0.40751 -2.07043,0.9182 -3.53625,1.13485 -2.04892,0.30284 -2.87855,0.1805 -3.58818,-0.52913 -1.03988,-1.03988 -2.1675,-1.21796 -2.1675,-0.34231 0,0.31941 0.392,0.58075 0.87111,0.58075 0.47912,0 0.87112,0.26133 0.87112,0.58074 0,0.31941 0.98001,0.58906 2.1778,0.59922 2.07569,0.0176 2.12334,0.0602 1.0163,0.90869 -0.63882,0.48962 -4.03618,2.60656 -7.54969,4.7043 -3.51351,2.09774 -7.48146,4.69741 -8.81767,5.77705 -1.71489,1.38561 -2.5565,1.75743 -2.86137,1.26415 -0.23754,-0.38436 -0.17141,-0.78565 0.14696,-0.89178 1.90184,-0.63394 12.72197,-8.44249 13.09468,-9.45001 0.49706,-1.34369 -0.65243,-2.17434 -1.97035,-1.4238 -13.14934,7.48835 -19.81003,13.13039 -22.63974,19.17734 -1.13992,2.43596 -2.08552,3.72616 -2.73092,3.72616 -0.69113,0 -1.28437,0.96494 -1.97787,3.2171 -1.2173,3.9532 -1.22459,4.3326 -0.0833,4.3326 0.73389,0 0.60761,0.55075 -0.66048,2.88064 -1.89495,3.48166 -1.71545,5.62225 0.89758,10.70327 0.9676,1.88147 1.75926,3.86632 1.75926,4.41077 0,0.54445 0.52267,1.462922 1.16149,2.041052 1.33688,1.20985 1.60318,2.54139 0.29038,1.45186 -0.52043,-0.43192 -0.87112,-0.48133 -0.87112,-0.12273 0,0.75405 3.5237,3.76155 3.93053,3.35472 0.16511,-0.16511 -0.0423,-0.71296 -0.46103,-1.21742 -0.68456,-0.82484 -0.59052,-0.84303 0.93354,-0.18059 3.03522,1.31926 4.31556,2.34894 4.66829,3.75436 0.36338,1.44779 0.65568,1.57143 3.29876,1.3953 0.89447,-0.0596 2.00449,0.2055 2.46672,0.58911 0.57107,0.47396 2.00416,0.57933 4.47153,0.32879 1.99712,-0.20279 4.24834,-0.36542 5.00273,-0.36141 3.82751,0.0204 11.7558,-1.27995 15.686623,-2.57274 2.43613,-0.80121 7.82671,-2.51216 11.97904,-3.8021 7.28217,-2.26225 17.02852,-6.580062 23.37501,-10.355552 2.31894,-1.37951 3.04892,-1.60249 3.04892,-0.93133 0,0.9989 -2.53284,3.73339 -3.45808,3.73339 -0.33393,0 -0.60714,0.34285 -0.60714,0.7619 0,0.88074 -3.0746,3.30332 -4.19238,3.30332 -0.41522,0 -1.08135,0.522672 -1.4803,1.161492 -0.39895,0.63882 -1.238,1.16149 -1.86455,1.16149 -0.62655,0 -1.72415,0.79121 -2.4391,1.75824 -0.71496,0.96702 -1.71712,1.68754 -2.22702,1.60116 -0.5099,-0.0864 -1.69678,0.35137 -2.6375,0.97279 -2.80929,1.85575 -10.71637,5.54048 -11.88932,5.54048 -1.40018,0 -4.04935,1.2008 -4.04935,1.83546 0,0.26813 0.45733,0.50875 1.0163,0.53469 0.66288,0.0308 0.41042,0.3246 -0.72593,0.84492 -2.30942,1.05747 -3.1941,1.04217 -3.1941,-0.0552 0,-0.50408 -0.27984,-0.73244 -0.63133,-0.5152 -0.34724,0.2146 -0.49901,0.89622 -0.33728,1.5147 0.21763,0.83219 0.0296,1.0797 -0.723313,0.95215 -0.55956,-0.0948 -1.91047,0.25051 -3.00202,0.76736 -2.98179,1.41187 -7.74887,2.83235 -9.50526,2.83235 -0.85651,0 -1.99744,0.22519 -2.53541,0.50041 -2.06197,1.05491 -4.03714,1.23324 -4.70788,0.42505 z M 56.459317,98.006998 c -0.0672,-1.50435 -2.12498,-5.81926 -2.49196,-5.22546 -0.38016,0.61511 -0.24157,1.28041 0.90706,4.35434 0.60663,1.62344 1.64401,2.19363 1.5849,0.87112 z m -4.30465,-17.27264 c 0.39329,-1.2954 0.33919,-1.36414 -0.51547,-0.65482 -0.5252,0.43587 -0.9549,1.33543 -0.9549,1.99902 0,1.47306 0.85131,0.69479 1.47037,-1.3442 z m 13.72848,-17.80731 c 0.58412,-0.52862 1.06203,-1.19115 1.06203,-1.47229 0,-0.7753 -2.138,0.53297 -2.5268,1.54617 -0.44379,1.1565 0.13762,1.12718 1.46477,-0.0739 z m -1.46135,-2.83876 c 0.54025,-1.40788 -0.21359,-1.66205 -0.93447,-0.31507 -0.44948,0.83987 -0.45832,1.21123 -0.0288,1.21123 0.34067,0 0.77416,-0.40327 0.9633,-0.89616 z m 2.56156,-2.60874 c 1.04729,-0.5605 1.60223,-2.30255 0.73348,-2.30255 -0.58568,0 -2.51389,1.85081 -2.51389,2.41299 0,0.64496 0.41729,0.61908 1.78041,-0.11044 z m 3.88213,-0.99588 c 0.35553,-1.06779 -1.41155,-0.88621 -1.82352,0.18738 -0.24441,0.63689 -0.0581,0.8566 0.61567,0.72593 0.53138,-0.10306 1.07491,-0.51404 1.20785,-0.91331 z m 9.61992,-4.70553 c 1.01626,-0.88203 1.01639,-0.92822 0.004,-1.2834 -0.88771,-0.31139 -0.76314,-0.51697 0.80439,-1.32757 1.01988,-0.52752 2.50469,-0.95912 3.29933,-0.95912 1.5148,0 6.50603,-2.74285 6.95192,-3.82031 0.17292,-0.41784 -0.73037,-0.36953 -2.71465,0.14518 -1.63559,0.42427 -3.55476,0.7714 -4.26482,0.7714 -0.71007,0 -1.45912,0.27196 -1.66455,0.60437 -0.20544,0.3324 -0.91374,0.43291 -1.57399,0.22335 -0.91905,-0.29169 -1.12119,-0.1744 -0.86226,0.50035 0.52555,1.36954 -0.15891,1.60479 -1.71076,0.58798 -1.09424,-0.71697 -1.57186,-0.77048 -2.10638,-0.23596 -0.53451,0.53451 -0.52874,0.7917 0.0254,1.13421 0.50438,0.31173 0.0298,1.11371 -1.60191,2.70704 -2.6282,2.56637 -3.17449,4.25685 -1.01195,3.13146 l 1.30668,-0.68 -1.30668,1.42293 c -0.71867,0.78261 -1.30667,1.59884 -1.30667,1.81384 0,0.42981 6.05054,-3.2757 7.73277,-4.73575 z m -4.2483,0.87272 c 0,-0.1342 0.68552,-0.69318 1.52337,-1.24216 0.83785,-0.54898 1.34597,-0.71111 1.12915,-0.36029 -0.41434,0.67041 -2.65252,2.02255 -2.65252,1.60245 z m -4.61322,0.65447 c 1.74515,-1.91069 2.11564,-2.7743 1.19017,-2.7743 -0.76544,0 -4.12664,3.26444 -4.12664,4.00785 0,1.16712 1.20684,0.66015 2.93647,-1.23355 z m 2.34583,-6.03539 c 0.67358,-0.81161 0.63093,-0.90949 -0.31633,-0.72593 -0.60218,0.1167 -1.20364,0.53884 -1.33658,0.9381 -0.34494,1.03599 0.73173,0.89779 1.65291,-0.21217 z m 12.98053,-3.75746 c -0.18698,-0.30255 -0.58751,-0.3971 -0.89006,-0.21012 -0.30255,0.18699 -0.3971,0.58752 -0.21011,0.89007 0.18698,0.30255 0.58751,0.3971 0.89006,0.21011 0.30255,-0.18698 0.3971,-0.58751 0.21011,-0.89006 z m 8.45147,-0.53115 c 0,-0.31941 -0.37657,-0.58074 -0.83684,-0.58074 -0.46026,0 -0.99836,0.26133 -1.19577,0.58074 -0.1974,0.31941 0.17918,0.58075 0.83685,0.58075 0.65767,0 1.19576,-0.26134 1.19576,-0.58075 z m -4.15187,-2.96054 c 1.96735,-0.68582 2.60012,-2.00847 0.6674,-1.39505 -0.6663,0.21147 -1.16149,0.10436 -1.16149,-0.25124 0,-1.24044 -1.03356,-0.58082 -1.30363,0.83199 -0.15265,0.79852 -0.22211,1.45186 -0.15436,1.45186 0.0677,0 0.94618,-0.2869 1.95208,-0.63756 z m -30.85898,40.70077 c 0.16847,-0.64424 0.51173,-1.2983 0.7628,-1.45347 0.25107,-0.15516 0.31864,0.24498 0.15017,0.88922 -0.16847,0.64424 -0.51173,1.2983 -0.7628,1.45347 -0.25107,0.15517 -0.31864,-0.24498 -0.15017,-0.88922 z m 8.8773,-14.5104 c 0,-0.31941 0.27676,-0.58074 0.61502,-0.58074 0.33826,0 0.4535,0.26133 0.25609,0.58074 -0.1974,0.31941 -0.47416,0.58075 -0.61502,0.58075 -0.14085,0 -0.25609,-0.26134 -0.25609,-0.58075 z m 2.90372,-2.03261 c 0.39764,-0.47911 0.98431,-0.87111 1.30372,-0.87111 0.32395,0 0.26106,0.38518 -0.14222,0.87111 -0.39763,0.47912 -0.9843,0.87112 -1.30371,0.87112 -0.32396,0 -0.26107,-0.38518 0.14221,-0.87112 z m 13.64753,-12.48603 c -0.19741,-0.31941 -0.0822,-0.58075 0.2561,-0.58075 0.33826,0 0.61502,0.26134 0.61502,0.58075 0,0.31941 -0.11525,0.58075 -0.2561,0.58075 -0.14085,0 -0.41761,-0.26134 -0.61502,-0.58075 z m -16.55125,-2.32298 c 0,-0.31941 0.27676,-0.58075 0.61502,-0.58075 0.33826,0 0.4535,0.26134 0.25609,0.58075 -0.1974,0.31941 -0.47416,0.58074 -0.61502,0.58074 -0.14085,0 -0.25609,-0.26133 -0.25609,-0.58074 z m 13.93789,-9.2242 c 0,-0.28216 0.53761,-0.6536 1.19468,-0.82543 0.98029,-0.25635 1.07175,-0.16428 0.50964,0.51301 -0.76674,0.92387 -1.70432,1.09574 -1.70432,0.31242 z"
       style="fill:#1a252f;stroke-width:0.580746;fill-opacity:1" />
  </g>
</svg>
