<?xml version="1.0" encoding="UTF-8" standalone="no"?>
<svg
   xmlns:dc="http://purl.org/dc/elements/1.1/"
   xmlns:cc="http://creativecommons.org/ns#"
   xmlns:rdf="http://www.w3.org/1999/02/22-rdf-syntax-ns#"
   xmlns:svg="http://www.w3.org/2000/svg"
   xmlns="http://www.w3.org/2000/svg"
   xmlns:sodipodi="http://sodipodi.sourceforge.net/DTD/sodipodi-0.dtd"
   xmlns:inkscape="http://www.inkscape.org/namespaces/inkscape"
   sodipodi:docname="AddAmigo.svg"
   inkscape:version="1.0 (4035a4fb49, 2020-05-01)"
   id="svg8"
   version="1.1"
   viewBox="0 0 345.86164 390.31964"
   height="390.31964mm"
   width="345.86163mm">
  <defs
     id="defs2" />
  <sodipodi:namedview
     inkscape:window-maximized="1"
     inkscape:window-y="41"
     inkscape:window-x="-9"
     inkscape:window-height="1001"
     inkscape:window-width="1920"
     showgrid="false"
     inkscape:document-rotation="0"
     inkscape:current-layer="layer1"
     inkscape:document-units="mm"
     inkscape:cy="994.25362"
     inkscape:cx="535.78481"
     inkscape:zoom="0.35"
     inkscape:pageshadow="2"
     inkscape:pageopacity="0.0"
     borderopacity="1.0"
     bordercolor="#666666"
     pagecolor="#ffffff"
     id="base" />
  <metadata
     id="metadata5">
    <rdf:RDF>
      <cc:Work
         rdf:about="">
        <dc:format>image/svg+xml</dc:format>
        <dc:type
           rdf:resource="http://purl.org/dc/dcmitype/StillImage" />
        <dc:title />
      </cc:Work>
    </rdf:RDF>
  </metadata>
  <g
     transform="translate(195.81033,114.89627)"
     id="layer1"
     inkscape:groupmode="layer"
     inkscape:label="Layer 1">
    <path
       id="path53"
       d="m -106.02893,244.25673 c 17.311091,-0.11631 34.141501,-0.29899 37.400911,-0.40598 l 5.9262,-0.1945 -4.08249,-0.19815 c -13.9811,-0.67859 -29.1801,-1.80255 -38.849541,-2.87289 -31.09154,-3.44165 -61.55384,-10.3034 -78.77217,-17.74374 -5.05161,-2.18286 -6.87048,-3.62794 -9.05722,-7.19585 -0.75246,-1.22773 -0.88017,-1.72442 -1.11746,-4.34588 -0.32883,-3.63295 -0.0669,-39.53052 0.32614,-44.69509 0.58054,-7.62857 3.46039,-17.84334 7.5289,-26.70486 10.26807,-22.36464 27.85863,-39.14027 50.53896,-48.197585 7.36052,-2.9394 18.92191,-5.70463 23.83649,-5.70117 1.90872,0.001 3.19693,0.621 8.64494,4.15836 5.311181,3.44852 7.392211,4.64598 12.622041,7.26291 11.72862,5.868825 24.59853,10.266045 35.887925,12.261735 13.27435,2.34657 30.27591,2.34953 44.11728,0.008 10.78513,-1.82476 25.04116,-6.63794 36.15329,-12.206245 4.48849,-2.24918 7.77561,-4.15374 12.61923,-7.3116 2.19824,-1.43316 4.7887,-2.97632 5.75658,-3.42925 1.68643,-0.78917 1.8602,-0.81688 4.1682,-0.66469 4.3193,0.28484 12.60422,2.1246 18.612791,4.13319 14.207507,4.7494 28.803555,14.454895 38.902693,25.867915 6.68189,7.55118 10.8671,13.82948 14.96284,22.44594 4.08489,8.59367 6.46048,16.31694 7.77968,25.29238 0.75239,5.11926 1.13349,18.70627 0.93471,33.32671 -0.18938,13.93034 -0.36959,16.55027 -1.26178,18.34314 -2.27893,4.57952 -8.03395,7.70517 -22.68647,12.32147 -26.460909,8.3365 -59.075044,13.30116 -102.245664,15.56423 -4.34588,0.2278 -8.02012,0.45094 -8.16498,0.49588 -0.14487,0.0449 18.04857,0.19553 40.42985,0.33473 36.86521,0.22926 30.670995,0.25351 -65.84667,0.25789 -79.132596,0.004 -98.443066,-0.0496 -75.065206,-0.20668 z M -41.104114,77.917905 c -4.0274,-0.33966 -6.82691,-0.72633 -10.23494,-1.41369 -15.762885,-3.17916 -28.868345,-9.21139 -41.053225,-18.89613 -4.0644,-3.23044 -12.378861,-11.45182 -15.240611,-15.06998 -11.8469,-14.97823 -18.60872,-31.43586 -20.83151,-50.701931 -0.43011,-3.728077 -0.43154,-15.217409 -0.002,-18.96384 3.22226,-28.127091 17.18837,-52.35707 39.575701,-68.660338 9.77005,-7.114906 23.10082,-13.012536 35.845375,-15.858256 7.56038,-1.68815 9.30044,-1.85145 19.84318,-1.86225 6.99977,-0.007 10.33894,0.0901 11.8524,0.34518 1.15891,0.19534 3.17381,0.52667 4.47758,0.73628 8.71143,1.40058 19.91212,5.23492 28.76363,9.84667 25.94438,13.517346 44.86999,39.894319 49.69664,69.263128 1.73955,10.584701 1.65328,21.688335 -0.24934,32.0919 -1.86937,10.221777 -4.04431,17.101977 -7.88116,24.931307 -5.53566,11.29585 -9.90826,17.32928 -19.47558,26.87293 -7.08562,7.06809 -11.61587,10.63535 -18.69463,14.72073 -11.69901,6.75188 -26.03964,11.40324 -38.61254,12.52391 -2.74618,0.24478 -15.21067,0.31094 -17.7786,0.0944 z m 16.98844,-32.89291 c 16.07817,-1.97605 31.28078,-11.44308 35.65234,-22.20155 0.3329,-0.81929 0.68699,-1.81518 0.78686,-2.2131 l 0.18159,-0.72349 h -45.47215 -45.472135 l 0.16637,0.85601 c 0.26554,1.3662 2.35005,5.4533 3.67426,7.20411 1.9414,2.56683 6.2274,6.492 9.31801,8.53356 3.15391,2.08337 7.957925,4.50629 11.450135,5.77491 8.16609,2.9665 19.50971,4.02377 29.71472,2.76955 z"
       style="fill:#000000;stroke-width:0.263387" />
    <circle
       r="75.595238"
       cy="199.82812"
       cx="74.45607"
       id="path926-3"
       style="fill:#ff5722;fill-opacity:1;stroke:none;stroke-width:7.99999" />
    <path
       style="fill:#000000;stroke-width:0.90466"
       d="m 60.67429,257.94604 c -32.965,-8.79862 -51.6672394,-43.33241 -40.97976,-75.66935 5.79596,-17.53677 19.99657,-31.66772 37.61939,-37.43485 6.27528,-2.05361 9.04978,-2.43732 17.83493,-2.46651 12.12949,-0.0403 17.57486,1.28345 28.41571,6.90783 12.26646,6.364 22.18127,17.94674 27.46963,32.09073 3.06472,8.19675 3.87237,24.93891 1.6267,33.72053 -2.74572,10.73702 -7.36825,18.64518 -15.86549,27.14241 -8.42199,8.42199 -16.32759,13.05609 -26.85025,15.73905 -7.00416,1.78586 -22.52745,1.77003 -29.27086,-0.0298 z m 21.03334,-26.6439 c 2.38436,-2.58385 2.48781,-3.0904 2.48781,-12.18062 v -9.48466 h 9.37693 c 8.19967,0 9.68466,-0.24207 11.82813,-1.92812 3.38737,-2.6645 4.41688,-5.75581 3.17255,-9.52617 -1.50526,-4.561 -4.60906,-5.73424 -15.16988,-5.73424 h -8.97532 l -0.4517,-9.7251 c -0.52607,-11.32594 -0.89058,-12.48324 -4.52353,-14.36191 -3.59702,-1.86009 -8.21095,-0.95513 -10.59719,2.07848 -1.60192,2.03651 -1.84852,3.65092 -1.84852,12.10142 v 9.75141 l -10.31137,0.30401 c -11.5587,0.34079 -13.62127,1.27851 -14.62915,6.65093 -0.63012,3.35886 1.35014,7.9799 3.87372,9.0395 0.88914,0.37333 5.9929,0.88206 11.3417,1.13049 l 9.7251,0.45171 v 8.88783 c 0,10.14021 1.02088,13.22488 4.9537,14.96791 3.64417,1.61512 6.72823,0.84849 9.74702,-2.42287 z m -56.7674,-89.51476 c -0.30751,-0.49756 0.30313,-0.90466 1.35699,-0.90466 1.05385,0 1.6645,0.4071 1.35699,0.90466 -0.30751,0.49756 -0.91816,0.90466 -1.35699,0.90466 -0.43884,0 -1.04948,-0.4071 -1.35699,-0.90466 z"
       id="path36" />
  </g>
</svg>
