<?xml version="1.0" encoding="UTF-8" standalone="no"?>
<svg
   xmlns:dc="http://purl.org/dc/elements/1.1/"
   xmlns:cc="http://creativecommons.org/ns#"
   xmlns:rdf="http://www.w3.org/1999/02/22-rdf-syntax-ns#"
   xmlns:svg="http://www.w3.org/2000/svg"
   xmlns="http://www.w3.org/2000/svg"
   xmlns:sodipodi="http://sodipodi.sourceforge.net/DTD/sodipodi-0.dtd"
   xmlns:inkscape="http://www.inkscape.org/namespaces/inkscape"
   width="199.68042mm"
   height="198.92448mm"
   viewBox="0 0 199.68042 198.92448"
   version="1.1"
   id="svg14"
   inkscape:version="1.0 (4035a4fb49, 2020-05-01)"
   sodipodi:docname="Amigos.svg">
  <defs
     id="defs8" />
  <sodipodi:namedview
     id="base"
     pagecolor="#ffffff"
     bordercolor="#666666"
     borderopacity="1.0"
     inkscape:pageopacity="0.0"
     inkscape:pageshadow="2"
     inkscape:zoom="0.35"
     inkscape:cx="-211.22267"
     inkscape:cy="365.34796"
     inkscape:document-units="mm"
     inkscape:current-layer="layer1"
     inkscape:document-rotation="0"
     showgrid="false"
     inkscape:window-width="1920"
     inkscape:window-height="1001"
     inkscape:window-x="-9"
     inkscape:window-y="41"
     inkscape:window-maximized="1" />
  <metadata
     id="metadata11">
    <rdf:RDF>
      <cc:Work
         rdf:about="">
        <dc:format>image/svg+xml</dc:format>
        <dc:type
           rdf:resource="http://purl.org/dc/dcmitype/StillImage" />
        <dc:title />
      </cc:Work>
    </rdf:RDF>
  </metadata>
  <g
     inkscape:label="Layer 1"
     inkscape:groupmode="layer"
     id="layer1"
     transform="translate(-1.8354034,-51.501686)">
    <ellipse
       style="fill:none;stroke:#000000;stroke-width:8;stroke-miterlimit:4;stroke-dasharray:none"
       id="path42"
       cx="101.67561"
       cy="150.96393"
       rx="92.34021"
       ry="91.962242" />
    <path
       style="fill:#000000;stroke-width:0.210427"
       d="m 100.63862,206.26071 c -5.772339,-0.38589 -13.869896,-1.57016 -19.46165,-2.84628 -4.444533,-1.01431 -10.104405,-2.60914 -10.327312,-2.91002 -0.09276,-0.12528 -0.130573,-5.16581 -0.08397,-11.20119 0.09264,-11.97931 0.186217,-13.08793 1.38154,-16.35658 0.707877,-1.93572 1.722254,-3.99782 2.557079,-5.19825 0.325249,-0.46767 0.842062,-1.21304 1.148491,-1.65637 0.723718,-1.04706 3.213948,-3.47 4.694633,-4.5678 2.796243,-2.07318 5.668489,-3.42683 9.271265,-4.36944 l 2.158389,-0.5647 11.687405,-0.0601 11.68742,-0.06 2.38223,0.53113 c 2.59941,0.57953 5.02366,1.43982 6.85726,2.4334 3.19456,1.73103 6.6972,4.82016 8.48718,7.48522 0.54373,0.80954 1.14629,1.70481 1.33904,1.9895 0.62422,0.92202 1.4955,3.00913 2.15957,5.17321 0.90799,2.95894 1.08562,5.93559 1.01332,16.98064 l -0.0603,9.21352 -1.49707,0.70795 c -1.77691,0.8403 -4.37115,1.77622 -6.33834,2.28666 -0.7807,0.20259 -1.50925,0.42205 -1.61899,0.48772 -0.52354,0.31323 -7.91055,1.62031 -11.31526,2.00214 -3.66354,0.41085 -13.0831,0.70277 -16.12197,0.49961 z m 41.85475,-19.67526 c -0.0831,-0.0806 -0.15118,-1.94482 -0.15118,-4.14295 0,-6.36387 -0.76489,-10.032 -3.01206,-14.44465 -2.33445,-4.58406 -5.03561,-7.64739 -9.71288,-11.01518 -1.38441,-0.99682 -5.84599,-3.20047 -7.32486,-3.61787 -0.49989,-0.14108 -0.90892,-0.31568 -0.90892,-0.388 0,-0.0722 0.4897,-0.68646 1.08823,-1.36478 3.38762,-3.83927 5.49125,-8.52992 5.93862,-13.24193 l 0.13762,-1.44932 8.76844,-0.0608 c 9.97347,-0.0692 11.90582,0.0698 15.12807,1.08785 3.01324,0.95203 4.03981,1.43376 6.6861,3.13751 4.5033,2.89933 8.64604,8.42022 9.92539,13.22726 1.05133,3.9503 1.0845,4.42803 1.08661,15.6542 l 0.001,10.6851 -1.96734,0.87249 c -5.01764,2.22527 -12.3569,3.98892 -19.38396,4.65804 -5.21107,0.4962 -6.14217,0.55577 -6.29991,0.40305 z m -80.991932,-0.39063 c -6.381528,-0.57225 -13.477365,-1.94994 -21.814173,-4.2353 -0.882193,-0.24182 -2.012998,-0.54888 -2.512907,-0.68233 l -0.908923,-0.24265 0.0012,-10.87644 c 0.0012,-10.0873 0.03344,-11.02667 0.43411,-12.94689 0.526504,-2.52283 0.802468,-3.59692 1.063956,-4.14091 0.109482,-0.22774 0.402107,-0.92653 0.650303,-1.55285 1.427238,-3.60162 5.276489,-8.16091 8.758492,-10.37409 2.876225,-1.82816 4.162051,-2.42848 7.001648,-3.26896 3.26399,-0.96606 4.606058,-1.05716 15.574825,-1.05716 h 10.143096 l 0.0085,0.98346 c 0.0085,1.04341 0.348538,2.84118 0.940487,4.97007 0.766096,2.75515 2.979275,6.59948 5.112595,8.88064 0.548119,0.5861 0.996594,1.15366 0.996594,1.26125 0,0.10753 -0.409027,0.31357 -0.908935,0.45773 -1.414727,0.40798 -4.786735,2.04453 -6.79019,3.29551 -2.398103,1.49741 -6.576582,5.53547 -8.169947,7.89542 -2.203806,3.26403 -3.469407,6.07937 -4.374523,9.73113 -0.473667,1.91104 -0.552672,2.78119 -0.653257,7.19482 l -0.114486,5.02085 -0.775702,-0.0272 c -0.426652,-0.0149 -2.074953,-0.14371 -3.662899,-0.28611 z m 40.848102,-31.37915 c -0.88219,-0.0829 -2.08518,-0.25578 -2.673297,-0.38412 -1.229238,-0.26822 -4.336661,-1.41317 -4.811951,-1.77299 -0.176441,-0.13356 -0.753878,-0.48399 -1.28319,-0.77872 -2.920079,-1.62594 -5.916734,-5.1136 -7.431607,-8.64931 -0.789786,-1.84336 -1.551049,-5.26371 -1.54984,-6.96342 8.05e-4,-1.41044 0.489216,-4.48532 0.948163,-5.97179 0.175795,-0.56937 0.737682,-1.82719 1.248612,-2.79511 2.815967,-5.33467 7.811244,-8.96329 13.81235,-10.03343 4.42753,-0.78953 9.56176,0.0334 13.28944,2.13029 5.00824,2.81713 8.55194,7.71874 9.51292,13.15815 2.17686,12.32178 -8.26898,23.26302 -21.0616,22.06045 z M 66.634184,135.0638 c -8.923155,-1.4074 -15.709365,-8.59265 -16.372228,-17.33494 -0.408758,-5.39103 1.657017,-10.74692 5.649718,-14.64785 8.651353,-8.452501 23.158486,-7.062075 30.116585,2.88648 1.767854,2.52763 3.002246,6.08479 3.202927,9.22983 l 0.133149,2.08677 -0.929661,0.81186 c -1.124287,0.98185 -2.518375,2.34194 -3.049346,2.97498 -2.08163,2.48182 -3.958123,6.10365 -4.776348,9.21887 l -0.57225,2.17871 -1.08733,0.58377 c -3.406647,1.82899 -8.351588,2.63667 -12.315216,2.01152 z m 67.585636,0.0712 c -1.73871,-0.19488 -3.29885,-0.58655 -4.77261,-1.19814 -0.91791,-0.38092 -0.94878,-0.42483 -1.1991,-1.70566 -1.00783,-5.15687 -3.15442,-9.16839 -6.80654,-12.72003 -0.9839,-0.95682 -2.36188,-2.11638 -3.06215,-2.57675 -0.70027,-0.46039 -1.2725,-0.90347 -1.27161,-0.98463 8.1e-4,-0.0812 0.0948,-0.93231 0.20871,-1.89143 0.73299,-6.1724 4.88074,-11.80501 10.72817,-14.568717 3.05396,-1.443414 5.05127,-1.888373 8.52317,-1.898772 3.57869,-0.01098 5.9396,0.511247 8.88997,1.965482 5.0616,2.494847 8.43712,6.490937 10.05022,11.897907 0.55211,1.85062 0.61701,2.37823 0.61121,4.96908 -0.006,2.54179 -0.0793,3.1408 -0.59755,4.86558 -0.73552,2.44764 -1.52209,4.08837 -2.8251,5.8929 -3.10136,4.2951 -7.78085,7.10588 -13.12972,7.8865 -2.23103,0.32561 -2.95627,0.33465 -5.34707,0.0667 z"
       id="path38" />
  </g>
</svg>
