<?xml version="1.0" encoding="UTF-8" standalone="no"?>
<svg
   xmlns:dc="http://purl.org/dc/elements/1.1/"
   xmlns:cc="http://creativecommons.org/ns#"
   xmlns:rdf="http://www.w3.org/1999/02/22-rdf-syntax-ns#"
   xmlns:svg="http://www.w3.org/2000/svg"
   xmlns="http://www.w3.org/2000/svg"
   xmlns:sodipodi="http://sodipodi.sourceforge.net/DTD/sodipodi-0.dtd"
   xmlns:inkscape="http://www.inkscape.org/namespaces/inkscape"
   sodipodi:docname="Amigos2.svg"
   inkscape:version="1.0 (4035a4fb49, 2020-05-01)"
   id="svg24"
   version="1.1"
   viewBox="0 0 133.87811 108.796"
   height="108.796mm"
   width="133.87811mm">
  <defs
     id="defs18" />
  <sodipodi:namedview
     inkscape:window-maximized="1"
     inkscape:window-y="41"
     inkscape:window-x="-9"
     inkscape:window-height="1001"
     inkscape:window-width="1920"
     showgrid="false"
     inkscape:document-rotation="0"
     inkscape:current-layer="layer1"
     inkscape:document-units="mm"
     inkscape:cy="237.02731"
     inkscape:cx="258.71229"
     inkscape:zoom="0.35"
     inkscape:pageshadow="2"
     inkscape:pageopacity="0.0"
     borderopacity="1.0"
     bordercolor="#666666"
     pagecolor="#ffffff"
     id="base" />
  <metadata
     id="metadata21">
    <rdf:RDF>
      <cc:Work
         rdf:about="">
        <dc:format>image/svg+xml</dc:format>
        <dc:type
           rdf:resource="http://purl.org/dc/dcmitype/StillImage" />
        <dc:title></dc:title>
      </cc:Work>
    </rdf:RDF>
  </metadata>
  <g
     transform="translate(-37.382372,-85.453192)"
     id="layer1"
     inkscape:groupmode="layer"
     inkscape:label="Layer 1">
    <path
       style="fill:#000000;stroke-width:0.210427"
       d="m 101.75555,194.18299 c -5.772336,-0.38589 -13.869893,-1.57016 -19.461644,-2.84628 -4.444535,-1.01431 -10.104406,-2.60914 -10.327312,-2.91002 -0.09276,-0.12528 -0.130575,-5.16581 -0.08397,-11.20119 0.09264,-11.97931 0.186216,-13.08793 1.38154,-16.35658 0.707877,-1.93572 1.722252,-3.99782 2.557079,-5.19825 0.32525,-0.46767 0.84206,-1.21304 1.14849,-1.65637 0.723718,-1.04706 3.213949,-3.47 4.694635,-4.5678 2.796241,-2.07318 5.668488,-3.42683 9.271264,-4.36944 l 2.158389,-0.5647 11.687409,-0.0601 11.68742,-0.06 2.38223,0.53113 c 2.59941,0.57953 5.02366,1.43982 6.85725,2.4334 3.19457,1.73103 6.6972,4.82016 8.48718,7.48522 0.54374,0.80954 1.1463,1.70481 1.33904,1.9895 0.62423,0.92202 1.49551,3.00913 2.15958,5.17321 0.90799,2.95894 1.08562,5.93559 1.01332,16.98064 l -0.0603,9.21352 -1.49708,0.70795 c -1.77691,0.8403 -4.37115,1.77622 -6.33834,2.28666 -0.78069,0.20259 -1.50924,0.42205 -1.61898,0.48772 -0.52355,0.31323 -7.91056,1.62031 -11.31526,2.00214 -3.66354,0.41085 -13.08311,0.70277 -16.12197,0.49961 z m 41.85476,-19.67526 c -0.0831,-0.0806 -0.15118,-1.94482 -0.15118,-4.14295 0,-6.36387 -0.76489,-10.032 -3.01206,-14.44465 -2.33445,-4.58406 -5.03562,-7.64739 -9.71289,-11.01518 -1.3844,-0.99682 -5.84599,-3.20047 -7.32486,-3.61787 -0.49989,-0.14108 -0.90892,-0.31568 -0.90892,-0.388 0,-0.0722 0.48971,-0.68646 1.08823,-1.36478 3.38762,-3.83927 5.49125,-8.52992 5.93863,-13.24193 l 0.13761,-1.44932 8.76845,-0.0608 c 9.97347,-0.0692 11.90582,0.0698 15.12807,1.08785 3.01324,0.95203 4.03981,1.43376 6.6861,3.13751 4.5033,2.89933 8.64604,8.42021 9.92539,13.22725 1.05133,3.9503 1.0845,4.42804 1.08661,15.65421 l 0.001,10.6851 -1.96734,0.87249 c -5.01763,2.22527 -12.3569,3.98892 -19.38396,4.65804 -5.21107,0.4962 -6.14217,0.55576 -6.29991,0.40305 z M 62.618372,174.1171 c -6.38153,-0.57225 -13.47737,-1.94994 -21.81417,-4.2353 -0.8822,-0.24182 -2.013,-0.54888 -2.51291,-0.68233 l -0.90892,-0.24265 0.001,-10.87644 c 10e-4,-10.0873 0.0334,-11.02667 0.43411,-12.94689 0.5265,-2.52283 0.80246,-3.59692 1.06395,-4.14091 0.10948,-0.22774 0.40211,-0.92653 0.65031,-1.55285 1.42723,-3.60162 5.27648,-8.16091 8.75849,-10.37409 2.87622,-1.82816 4.16205,-2.42848 7.00165,-3.26896 3.26399,-0.96606 4.60605,-1.05716 15.574821,-1.05716 h 10.143096 l 0.0085,0.98346 c 0.0085,1.04341 0.348538,2.84118 0.940485,4.97007 0.766099,2.75515 2.979278,6.59948 5.112597,8.88064 0.548119,0.5861 0.996593,1.15366 0.996593,1.26125 0,0.10753 -0.409027,0.31357 -0.908934,0.45773 -1.414727,0.40798 -4.786736,2.04453 -6.79019,3.29551 -2.398104,1.49741 -6.576584,5.53547 -8.169947,7.89542 -2.203807,3.26403 -3.469407,6.07937 -4.374523,9.73113 -0.473667,1.91104 -0.552672,2.78119 -0.653259,7.19482 l -0.114485,5.02085 -0.775703,-0.0272 c -0.426651,-0.0149 -2.074952,-0.14371 -3.662898,-0.28611 z m 40.848098,-31.37915 c -0.88219,-0.0829 -2.08518,-0.25578 -2.67329,-0.38412 -1.22924,-0.26822 -4.336663,-1.41317 -4.811953,-1.77299 -0.176442,-0.13356 -0.75388,-0.48399 -1.283189,-0.77872 -2.920079,-1.62594 -5.916734,-5.1136 -7.431609,-8.64931 -0.789786,-1.84336 -1.551048,-5.26371 -1.549839,-6.96342 7.94e-4,-1.41044 0.489214,-4.48532 0.948163,-5.97179 0.175795,-0.56937 0.737683,-1.82719 1.248611,-2.79511 2.815969,-5.33467 7.811244,-8.96329 13.812346,-10.03343 4.42753,-0.78953 9.56176,0.0334 13.28944,2.13029 5.00824,2.81713 8.55195,7.71874 9.51293,13.15815 2.17685,12.32178 -8.26899,23.26302 -21.06161,22.06045 z M 67.75112,122.98608 c -8.923158,-1.4074 -15.709368,-8.59265 -16.372228,-17.33494 -0.40876,-5.39103 1.65701,-10.746919 5.64972,-14.647849 8.651349,-8.452501 23.158483,-7.062075 30.116582,2.88648 1.767854,2.527631 3.002246,6.084791 3.202927,9.229829 l 0.133149,2.08677 -0.929661,0.81186 c -1.124289,0.98185 -2.518376,2.34194 -3.049347,2.97498 -2.08163,2.48182 -3.958122,6.10365 -4.776348,9.21887 l -0.572249,2.17871 -1.087332,0.58377 c -3.406645,1.82899 -8.351586,2.63667 -12.315213,2.01152 z m 67.58563,0.0712 c -1.73871,-0.19488 -3.29884,-0.58655 -4.77261,-1.19814 -0.91791,-0.38092 -0.94878,-0.42483 -1.1991,-1.70566 -1.00782,-5.15687 -3.15442,-9.16839 -6.80654,-12.72003 -0.98389,-0.95682 -2.36188,-2.11638 -3.06215,-2.57675 -0.70027,-0.46039 -1.2725,-0.90347 -1.2716,-0.98463 7.9e-4,-0.0812 0.0948,-0.93231 0.2087,-1.89143 0.73299,-6.172398 4.88074,-11.805009 10.72818,-14.568716 3.05395,-1.443414 5.05126,-1.888373 8.52317,-1.898772 3.57869,-0.01098 5.9396,0.511247 8.88997,1.965482 5.0616,2.494847 8.43712,6.490937 10.05022,11.897908 0.55211,1.850618 0.61701,2.378228 0.61121,4.969078 -0.006,2.54179 -0.0793,3.1408 -0.59755,4.86558 -0.73552,2.44764 -1.52209,4.08837 -2.8251,5.8929 -3.10136,4.2951 -7.78085,7.10588 -13.12972,7.8865 -2.23103,0.32561 -2.95627,0.33465 -5.34708,0.0667 z"
       id="path38" />
  </g>
</svg>
