<?xml version="1.0" encoding="UTF-8" standalone="no"?>
<svg
   xmlns:dc="http://purl.org/dc/elements/1.1/"
   xmlns:cc="http://creativecommons.org/ns#"
   xmlns:rdf="http://www.w3.org/1999/02/22-rdf-syntax-ns#"
   xmlns:svg="http://www.w3.org/2000/svg"
   xmlns="http://www.w3.org/2000/svg"
   xmlns:sodipodi="http://sodipodi.sourceforge.net/DTD/sodipodi-0.dtd"
   xmlns:inkscape="http://www.inkscape.org/namespaces/inkscape"
   sodipodi:docname="Calendário.svg"
   inkscape:version="1.0 (4035a4fb49, 2020-05-01)"
   id="svg1582"
   version="1.1"
   viewBox="0 0 162.47453 169.25955"
   height="169.25955mm"
   width="162.47453mm">
  <defs
     id="defs1576" />
  <sodipodi:namedview
     inkscape:window-maximized="1"
     inkscape:window-y="41"
     inkscape:window-x="-9"
     inkscape:window-height="1001"
     inkscape:window-width="1920"
     showgrid="false"
     inkscape:document-rotation="0"
     inkscape:current-layer="layer1"
     inkscape:document-units="mm"
     inkscape:cy="383.85445"
     inkscape:cx="327.17845"
     inkscape:zoom="0.35"
     inkscape:pageshadow="2"
     inkscape:pageopacity="0.0"
     borderopacity="1.0"
     bordercolor="#666666"
     pagecolor="#ffffff"
     id="base" />
  <metadata
     id="metadata1579">
    <rdf:RDF>
      <cc:Work
         rdf:about="">
        <dc:format>image/svg+xml</dc:format>
        <dc:type
           rdf:resource="http://purl.org/dc/dcmitype/StillImage" />
        <dc:title></dc:title>
      </cc:Work>
    </rdf:RDF>
  </metadata>
  <g
     transform="translate(-19.26737,-46.605177)"
     id="layer1"
     inkscape:groupmode="layer"
     inkscape:label="Layer 1">
    <path
       id="path1598"
       d="m 39.649705,215.69411 c -7.43228,-1.27511 -13.99779,-6.05723 -17.43894,-12.702 -1.22778,-2.37081 -2.27486,-5.62108 -2.51447,-7.80521 l -0.17416,-1.5875 0.82626,0.92605 c 4.79253,5.37126 8.75373,8.13488 14.14193,9.86642 4.48375,1.44089 1.48958,1.37837 66.013545,1.37837 64.52396,0 61.52979,0.0625 66.01354,-1.37837 5.38821,-1.73154 9.3494,-4.49516 14.14193,-9.86642 l 0.82626,-0.92605 -0.17416,1.5875 c -0.22521,2.05291 -1.26418,5.36462 -2.36569,7.54063 -3.07495,6.07453 -8.02282,10.19516 -14.82824,12.3491 l -2.3626,0.74777 -60.45729,0.037 c -33.251515,0.0204 -60.993075,-0.0549 -61.647915,-0.16728 z m -1.13673,-15.49056 c -7.08373,-1.40866 -13.28862,-6.23057 -16.66953,-12.95415 -1.29513,-2.57559 -1.9702,-4.95929 -2.29167,-8.092 -0.38151,-3.71773 -0.37822,-100.251196 0.004,-103.971397 1.07902,-10.514784 8.61991,-18.888617 18.92811,-21.018854 1.15077,-0.237812 3.49129,-0.502816 5.20116,-0.588896 l 3.10886,-0.156511 0.006,-1.34867 c 0.013,-3.025304 2.27696,-5.449711 5.08899,-5.449711 1.22767,0 3.06098,1.004723 4.01017,2.197726 0.68087,0.855766 0.81688,1.28317 0.90509,2.844271 l 0.10381,1.83717 h 4.56617 4.56618 l 0.18693,-1.653646 c 0.2298,-2.032978 0.96865,-3.402719 2.35287,-4.361989 0.87333,-0.605217 1.336,-0.731241 2.68463,-0.731241 1.34367,0 1.82678,0.130591 2.75466,0.744635 1.39458,0.922893 2.40165,2.909651 2.40543,4.74547 l 0.003,1.256771 h 4.63021 4.63021 l 0.006,-1.389063 c 0.0183,-4.383808 4.70584,-7.072372 7.86818,-4.512875 1.65737,1.341412 2.02127,2.032911 2.13571,4.058312 l 0.10417,1.843626 h 4.702785 4.70279 l 0.10417,-1.843626 c 0.11512,-2.037364 0.4759,-2.714913 2.18003,-4.094184 0.87922,-0.711606 1.20109,-0.809066 2.67207,-0.809066 1.43262,0 1.83514,0.114348 2.80702,0.797413 1.52301,1.070409 2.12037,2.178868 2.28596,4.241804 l 0.13708,1.707659 h 4.56218 4.56219 l 0.11105,-1.535278 c 0.14256,-1.970911 0.9017,-3.420241 2.31401,-4.417848 0.95496,-0.674557 1.3686,-0.79375 2.75456,-0.79375 1.34547,0 1.81956,0.128138 2.70922,0.73225 1.53986,1.045618 2.22892,2.404932 2.22892,4.397004 v 1.617622 h 4.73264 4.73265 l 0.1038,-1.83717 c 0.0887,-1.570368 0.2216,-1.983425 0.91491,-2.844271 1.61638,-2.006983 3.76547,-2.662917 5.85891,-1.788223 2.03578,0.850603 3.22036,2.698807 3.23045,5.040208 l 0.006,1.34867 3.10885,0.156511 c 8.14075,0.409834 13.7146,2.961871 18.54649,8.49167 3.14504,3.5993 5.07036,8.122604 5.58279,13.11608 0.38176,3.720201 0.38506,100.253667 0.004,103.971397 -0.57171,5.57111 -2.64146,10.01375 -6.58795,14.14078 -3.53079,3.6923 -7.70557,5.99072 -12.57296,6.922 -2.92303,0.55927 -120.965835,0.54341 -123.782085,-0.0166 z m 122.223235,-12.1326 c 4.47384,-1.1912 7.97599,-5.22787 8.57658,-9.88559 0.31139,-2.41496 0.30527,-99.999085 -0.006,-102.154923 -0.33385,-2.309175 -1.75091,-5.176301 -3.32283,-6.723082 -2.45498,-2.415717 -4.98775,-3.38161 -9.06014,-3.455162 l -2.57684,-0.04654 -0.071,6.309548 -0.071,6.309548 0.82468,0.939261 c 1.30375,1.484881 1.90592,3.115513 1.93031,5.227061 0.0373,3.225194 -1.47379,5.608764 -4.46508,7.043412 -3.91018,1.875356 -8.4337,0.272769 -10.36348,-3.671562 -1.03626,-2.11804 -1.02119,-4.681522 0.0399,-6.778628 0.40827,-0.806927 1.02287,-1.730717 1.36578,-2.052865 0.62105,-0.583444 0.62348,-0.610233 0.62348,-6.884562 v -6.298841 l -0.59532,-0.147026 c -0.32742,-0.08087 -2.38125,-0.1129 -4.56406,-0.07119 l -3.96874,0.07584 -0.071,6.462795 -0.0709,6.462792 0.64256,0.680958 c 1.12069,1.187672 1.85607,2.938738 1.96723,4.684329 0.28547,4.483238 -3.28264,8.299752 -7.75955,8.299752 -6.65193,0 -10.30537,-7.915778 -5.94535,-12.881568 l 0.78598,-0.895178 v -6.479334 -6.479334 l -4.56407,0.0724 -4.56406,0.07239 -0.0709,6.272197 -0.0709,6.272197 1.02849,1.358876 c 1.20256,1.588847 1.66466,2.94282 1.66466,4.877464 0,1.988376 -0.41517,3.252664 -1.56546,4.767184 -2.84498,3.745809 -8.60023,4.091032 -11.7667,0.705815 -2.89879,-3.099038 -2.99544,-7.535032 -0.23273,-10.681584 l 0.83679,-0.953053 -0.071,-6.309548 -0.071,-6.309548 h -4.63021 -4.630205 l -0.071,6.309548 -0.071,6.309548 0.8368,0.953053 c 1.83219,2.086751 2.49157,5.016075 1.68647,7.492191 -0.80412,2.473092 -2.32364,4.131302 -4.57401,4.991518 -3.59127,1.372772 -7.50602,0.06453 -9.60776,-3.210748 -0.70689,-1.101603 -0.87051,-1.652831 -0.97531,-3.285802 -0.15905,-2.47836 0.22963,-3.884607 1.55924,-5.641322 l 1.03963,-1.373592 -0.0709,-6.272197 -0.0709,-6.272197 h -4.49792 -4.49792 l -0.0708,6.40162 -0.0708,6.401618 0.80057,0.911808 c 2.72342,3.101803 2.49554,7.79531 -0.52059,10.722369 -2.93739,2.850645 -7.99387,2.83794 -10.77419,-0.02707 -1.78336,-1.837677 -2.32874,-3.155019 -2.32874,-5.624925 0,-2.276848 0.5366,-3.754565 1.8806,-5.178873 l 0.64256,-0.680958 -0.071,-6.462792 -0.071,-6.462795 -3.96875,-0.07584 c -2.18281,-0.04171 -4.23664,-0.0097 -4.56406,0.07119 l -0.59532,0.147026 v 6.243887 6.243884 l 0.83194,0.947528 c 2.08307,2.372485 2.56008,5.793902 1.19638,8.581208 -3.64967,7.459657 -14.81524,4.920084 -14.83185,-3.373461 -0.003,-1.503064 0.13462,-2.126314 0.73034,-3.307292 0.40373,-0.800365 1.02538,-1.761681 1.38144,-2.136257 l 0.64738,-0.68105 -0.071,-6.330409 -0.071,-6.33041 -2.52953,0.04417 c -4.06688,0.07102 -6.91085,1.192625 -9.37153,3.695952 -1.39001,1.414102 -2.77817,4.420159 -3.06358,6.634155 -0.30147,2.338657 -0.30298,99.667956 -0.002,102.005426 0.59194,4.59065 4.08204,8.6651 8.45547,9.87117 1.87626,0.51741 118.644225,0.53139 120.585795,0.0144 z m -112.028005,-33.82831 0.0696,-9.06198 h 9.12813 9.12812 l 0.0696,9.06198 0.0696,9.06198 h -9.26736 -9.26737 z m 28.31042,0 0.0696,-9.06198 9.19427,-0.0696 9.19427,-0.0696 v 9.13155 9.13156 h -9.26389 -9.26389 z m 28.512335,-0.0661 v -9.12813 h 9.12812 9.12813 v 9.12813 9.12813 h -9.12813 -9.12812 z m 28.37309,0.0661 0.0696,-9.06198 h 9.12812 9.12812 l 0.0696,9.06198 0.0696,9.06198 h -9.26736 -9.26736 z M 77.076245,134.66145 c -0.0702,-0.183 -0.0963,-4.26089 -0.0578,-9.06197 l 0.0698,-8.72924 9.19427,-0.0696 9.19427,-0.0696 v 9.13155 9.13156 h -9.13643 c -7.09455,0 -9.16496,-0.0744 -9.26411,-0.33275 z m 28.454715,-8.79538 v -9.12812 h 9.12812 9.12813 v 9.12812 9.12813 h -9.12813 -9.12812 z m 28.4868,8.95174 c -0.097,-0.097 -0.17639,-4.20467 -0.17639,-9.12813 v -8.95173 h 9.26042 9.26041 v 9.12812 9.12813 h -9.08402 c -4.99622,0 -9.1634,-0.0794 -9.26042,-0.17639 z M 53.172735,86.648352 c 0.48226,-0.28488 0.86973,-0.806644 1.03153,-1.389063 0.35995,-1.295628 0.34679,-32.896419 -0.0142,-34.196357 -0.33833,-1.218193 -1.12156,-1.793738 -2.44101,-1.793738 -1.19938,0 -2.21215,0.916233 -2.44841,2.215034 -0.0828,0.455221 -0.11526,8.308671 -0.0721,17.452113 l 0.0785,16.624435 0.86407,0.77192 c 0.98615,0.88098 1.88469,0.975471 3.00167,0.315656 z m 19.83482,-0.317138 0.7734,-0.773396 V 68.155587 50.753358 l -0.71096,-0.742082 c -1.00422,-1.048179 -2.47625,-1.035167 -3.54273,0.03132 l -0.7734,0.773397 0.009,17.152125 c 0.0101,18.379187 -0.0161,18.014183 1.34266,18.76727 1.05416,0.584271 2.05223,0.445251 2.90165,-0.40417 z m 19.0141,0.384561 c 0.42059,-0.217495 0.88115,-0.759534 1.04519,-1.230106 0.20262,-0.58121 0.29327,-5.985894 0.29327,-17.483678 0,-17.822221 0.005,-17.757766 -1.30826,-18.46037 -0.94965,-0.50824 -2.27432,-0.321851 -3.02128,0.425111 l -0.69754,0.697538 v 17.446774 17.446774 l 0.7734,0.773396 c 0.86515,0.86515 1.75808,0.98294 2.91522,0.384561 z m 19.879655,-0.384561 0.7734,-0.773396 V 68.111044 50.66427 l -0.69754,-0.697538 c -0.74696,-0.746962 -2.07163,-0.933351 -3.02129,-0.425111 -1.31282,0.702604 -1.30826,0.638149 -1.30826,18.46037 0,11.476493 0.0908,16.902989 0.29265,17.481892 0.58347,1.673754 2.68505,2.123319 3.96104,0.847331 z m 18.99127,0.396367 c 0.40101,-0.20737 0.87135,-0.689221 1.0452,-1.070785 0.23464,-0.514971 0.31609,-5.093584 0.31609,-17.767279 V 50.815989 l -0.77339,-0.773397 c -1.06649,-1.066483 -2.53851,-1.079495 -3.54273,-0.03132 l -0.71096,0.742082 v 17.402229 17.402231 l 0.7734,0.773396 c 0.86007,0.860078 1.75778,0.983096 2.89239,0.396367 z m 19.94409,-0.394885 0.86407,-0.77192 0.0785,-16.624435 c 0.0432,-9.143442 0.0107,-16.996892 -0.0721,-17.452113 -0.23626,-1.298801 -1.24903,-2.215034 -2.44841,-2.215034 -1.31945,0 -2.10268,0.575545 -2.441,1.793738 -0.35979,1.295485 -0.37428,32.900433 -0.0157,34.191192 0.5101,1.836058 2.57024,2.386791 4.03463,1.078572 z"
       style="fill:#000000;stroke-width:0.264583" />
  </g>
</svg>
