<?xml version="1.0" encoding="UTF-8" standalone="no"?>
<svg
   xmlns:dc="http://purl.org/dc/elements/1.1/"
   xmlns:cc="http://creativecommons.org/ns#"
   xmlns:rdf="http://www.w3.org/1999/02/22-rdf-syntax-ns#"
   xmlns:svg="http://www.w3.org/2000/svg"
   xmlns="http://www.w3.org/2000/svg"
   xmlns:sodipodi="http://sodipodi.sourceforge.net/DTD/sodipodi-0.dtd"
   xmlns:inkscape="http://www.inkscape.org/namespaces/inkscape"
   width="323.733mm"
   height="355.01715mm"
   viewBox="0 0 323.733 355.01715"
   version="1.1"
   id="svg14"
   inkscape:version="1.0 (4035a4fb49, 2020-05-01)"
   sodipodi:docname="ConfPerfil.svg">
  <defs
     id="defs8" />
  <sodipodi:namedview
     id="base"
     pagecolor="#ffffff"
     bordercolor="#666666"
     borderopacity="1.0"
     inkscape:pageopacity="0.0"
     inkscape:pageshadow="2"
     inkscape:zoom="0.35"
     inkscape:cx="513.43268"
     inkscape:cy="621.21747"
     inkscape:document-units="mm"
     inkscape:current-layer="layer1"
     inkscape:document-rotation="0"
     showgrid="false"
     inkscape:window-width="1920"
     inkscape:window-height="1001"
     inkscape:window-x="-9"
     inkscape:window-y="41"
     inkscape:window-maximized="1" />
  <metadata
     id="metadata11">
    <rdf:RDF>
      <cc:Work
         rdf:about="">
        <dc:format>image/svg+xml</dc:format>
        <dc:type
           rdf:resource="http://purl.org/dc/dcmitype/StillImage" />
        <dc:title />
      </cc:Work>
    </rdf:RDF>
  </metadata>
  <g
     inkscape:label="Layer 1"
     inkscape:groupmode="layer"
     id="layer1"
     transform="translate(30.012396,16.197123)">
    <path
       id="path44"
       d="m 209.57986,337.85174 c -0.43243,-0.52105 -0.88539,-3.17153 -1.00659,-5.88997 l -0.22035,-4.94261 -5.55729,-2.41293 -5.55729,-2.41293 -3.84512,3.5356 c -2.11482,1.94458 -4.43703,3.5356 -5.16047,3.5356 -0.72343,0 -2.8579,-1.64913 -4.74325,-3.66473 -3.95551,-4.22875 -3.89199,-4.73019 1.27975,-10.10189 2.76036,-2.8671 2.93147,-3.26603 2.02405,-4.71904 -0.54517,-0.87296 -1.55793,-3.25914 -2.25057,-5.30262 l -1.25936,-3.71542 -5.21655,-0.36671 c -2.86911,-0.2017 -5.60866,-0.75985 -6.08789,-1.24034 -1.21363,-1.2168 -1.68653,-7.51361 -0.74685,-9.9445 0.75516,-1.95355 0.95382,-2.01694 6.32157,-2.01694 4.6354,0 5.60789,-0.20995 5.94527,-1.2835 0.22185,-0.70593 1.24209,-3.35412 2.2672,-5.88487 l 1.86384,-4.60136 -3.75708,-3.97256 c -2.0664,-2.18491 -3.75708,-4.17147 -3.75708,-4.4146 0,-1.23725 6.99073,-7.71351 8.32628,-7.71351 0.83856,0 3.07035,1.52245 4.95954,3.38322 l 3.43488,3.38323 5.7582,-2.21978 5.75822,-2.21977 0.36672,-5.7474 0.36671,-5.7474 5.42967,-0.21776 c 2.98632,-0.11976 5.73132,0.0839 6.1,0.45257 0.36868,0.36868 0.86086,3.18954 1.09372,6.26857 0.29214,3.8628 0.71664,5.59824 1.36933,5.59824 0.52028,0 2.93855,0.86417 5.37395,1.92037 l 4.42799,1.92037 3.76742,-3.38723 c 2.07208,-1.86298 4.33102,-3.38723 5.01986,-3.38723 1.49137,0 8.12353,6.43337 8.12353,7.88004 0,0.55492 -1.67054,2.7753 -3.71232,4.93418 l -3.71232,3.92523 1.77382,3.54854 c 0.9756,1.9517 1.99234,4.45616 2.25942,5.56548 0.47163,1.95883 0.6316,2.01693 5.55328,2.01693 6.47793,0 7.37273,0.80112 7.37273,6.60089 0,5.79105 -0.89926,6.60089 -7.32983,6.60089 h -5.02475 l -0.88956,2.75037 c -0.48926,1.5127 -1.53368,4.03111 -2.32093,5.59648 l -1.43136,2.84611 3.73091,3.77784 c 2.052,2.0778 3.73091,4.27493 3.73091,4.88249 0,1.43514 -6.68008,8.01712 -8.13662,8.01712 -0.61525,0 -2.90487,-1.59986 -5.08804,-3.55525 l -3.9694,-3.55524 -3.32124,1.66465 c -1.82668,0.91556 -4.19296,1.8821 -5.25839,2.14786 -2.16566,0.54022 -2.83015,2.52308 -2.83015,8.44521 0,2.51223 -0.3267,3.62237 -1.16014,3.94219 -2.17493,0.8346 -9.63618,0.47598 -10.44798,-0.50218 z m 10.60549,-26.54433 c 7.35932,-2.18548 12.0041,-8.50934 12.0041,-16.34355 0,-7.6318 -3.28624,-12.97066 -9.87135,-16.03709 -15.0549,-7.01047 -30.15562,8.83021 -22.69324,23.80524 2.7165,5.45132 8.86422,9.38152 15.01247,9.59741 1.0361,0.0364 3.53271,-0.42352 5.54802,-1.02201 z M 90.270414,331.47935 c -3.2271,-0.3312 -11.31319,-0.98663 -17.96908,-1.45652 -36.64006,-2.58665 -77.3821802,-11.13902 -94.7186,-19.88283 -2.7682,-1.39617 -4.71218,-3.00864 -5.86745,-4.86685 l -1.72768,-2.77892 0.11018,-23.95061 c 0.10776,-23.42302 0.15403,-24.12584 2.1003,-31.90429 8.163,-32.62419 33.4391398,-58.25433 65.41338,-66.32953 12.48017,-3.1519 12.91781,-3.09049 23.48093,3.29484 12.93699,7.82031 28.81512,14.26892 41.673306,16.92485 14.48615,2.9922 34.48832,2.98413 49.27677,-0.0199 13.97866,-2.83951 30.07632,-9.401 43.06098,-17.55189 l 7.92455,-4.9745 4.95135,0.46018 c 5.76108,0.53544 15.62683,3.26699 23.22676,6.43085 12.88194,5.36276 29.03447,18.56039 37.58379,30.7083 3.38723,4.813 8.1389,13.15385 8.1389,14.28666 0,0.21631 -1.94619,-0.93516 -4.32486,-2.55882 -13.65036,-9.31765 -32.72046,-13.86098 -49.2436,-11.73199 -30.41961,3.91954 -54.15301,24.76255 -62.49375,54.88287 -1.29304,4.66944 -1.56262,7.69304 -1.58091,17.73103 -0.0189,10.37812 0.21826,12.98943 1.66519,18.33543 1.79792,6.64271 5.32569,14.84577 8.84255,20.5614 l 2.14985,3.49396 -2.69798,0.47247 c -4.19234,0.73415 -72.385196,1.10007 -78.974876,0.42377 z m 161.721706,-9.89037 c 0,-1.71015 -0.66565,-3.32954 -2.03494,-4.95066 -4.07735,-4.82719 -3.99358,-4.58867 -2.62176,-7.4654 1.22351,-2.56573 1.38325,-2.64529 5.34261,-2.66112 6.37626,-0.0254 8.8487,-2.76192 8.8487,-9.79352 0,-2.22134 0.36396,-4.26375 0.80881,-4.53868 0.44484,-0.27493 1.59678,-2.19216 2.55985,-4.26052 4.85188,-10.42023 -0.66651,-22.01019 -11.80313,-24.78945 -2.49691,-0.62313 -4.76887,-1.9193 -7.11954,-4.06175 -3.00937,-2.7428 -3.88201,-3.14657 -6.80063,-3.14657 -2.89142,0 -3.78605,0.40356 -6.55704,2.95776 l -3.20878,2.95775 -2.64228,-1.26001 c -2.53141,-1.20714 -2.64229,-1.4193 -2.64229,-5.05571 0,-2.80349 -0.46293,-4.47786 -1.77099,-6.40539 -3.19946,-4.71467 -0.0479,-4.81778 4.95136,-0.162 1.94917,1.81525 3.86432,3.30045 4.2559,3.30045 0.39158,0 2.17906,-0.66834 3.97219,-1.48521 1.79312,-0.81686 4.16783,-1.66702 5.27714,-1.88923 1.97568,-0.39578 2.01847,-0.51617 2.09289,-5.88843 0.0418,-3.01641 0.40382,-5.81222 0.80451,-6.21291 0.40068,-0.40068 3.17187,-0.63053 6.15819,-0.51076 l 5.42967,0.21775 0.18358,2.93373 c 0.3732,5.96353 1.02954,9.16795 1.87829,9.17018 0.47952,0.001 2.85212,0.94075 5.27245,2.08775 l 4.40059,2.08545 3.90962,-3.5546 c 2.15029,-1.95504 4.49795,-3.55461 5.21702,-3.55461 1.32301,0 8.109,6.6757 8.109,7.97722 0,0.38816 -1.6676,2.53037 -3.70578,4.76047 l -3.70578,4.05471 1.26204,2.42192 c 0.69412,1.33205 1.65402,3.74209 2.1331,5.35564 l 0.87106,2.93373 5.5483,0.36672 c 3.05157,0.20169 5.77606,0.59576 6.05443,0.87571 0.27837,0.27994 0.67471,2.60912 0.88075,5.17593 0.50521,6.29388 -0.3586,7.15013 -7.21323,7.15013 -4.21896,0 -5.17464,0.2227 -5.50801,1.28351 -0.22185,0.70592 -1.24209,3.35411 -2.2672,5.88486 l -1.86384,4.60136 3.75708,3.97256 c 2.0664,2.18491 3.75708,4.17148 3.75708,4.4146 0,1.27566 -6.99332,7.71352 -8.37904,7.71352 -0.9205,0 -3.06854,-1.51388 -5.15797,-3.6352 -3.47321,-3.52623 -3.63726,-3.60247 -5.47316,-2.54345 -1.04095,0.60045 -3.54285,1.70688 -5.55979,2.45872 l -3.66716,1.36698 -0.22035,4.99641 c -0.2231,5.05862 -0.96853,6.89115 -2.80318,6.89115 -0.66379,0 -1.01034,-0.87174 -1.01034,-2.54149 z M 114.47365,169.65078 c -0.80677,-0.15887 -3.2821,-0.63822 -5.50073,-1.06521 -10.935166,-2.10456 -23.793326,-7.44202 -33.432156,-13.87778 -7.22342,-4.82302 -20.87795,-18.45996 -25.36711,-25.33444 -21.44374,-32.837922 -21.3145,-72.843015 0.33993,-105.21649 4.80422,-7.182338 17.69054,-20.0180329 25.02408,-24.9257739 27.155326,-18.1728471 64.488256,-20.5053821 93.783586,-5.859534 25.69612,12.846466 43.85537,36.8944599 50.10766,66.3567509 1.89212,8.916155 1.71518,25.683685 -0.37517,35.550995 -2.10976,9.958972 -3.84622,15.035962 -7.90881,23.123552 -5.08377,10.12048 -9.24776,15.89954 -17.36211,24.0963 -8.76137,8.85033 -14.40624,13.01645 -24.33892,17.96299 -14.19227,7.06784 -25.81703,9.68963 -42.39957,9.56257 -6.1071,-0.0468 -11.7639,-0.21506 -12.57068,-0.37393 z m 30.07071,-33.27853 c 12.10362,-3.85836 21.83371,-10.91331 25.67081,-18.61299 l 1.87227,-3.757 -44.14207,-0.18913 c -24.27814,-0.10402 -44.274016,-0.0572 -44.435276,0.10409 -0.61158,0.61157 2.12729,5.96529 4.58803,8.9683 1.41015,1.7209 5.01593,4.76892 8.01283,6.77337 10.139826,6.78193 18.904766,9.01718 33.764766,8.61076 7.29906,-0.19964 10.73837,-0.64451 14.66864,-1.8974 z"
       style="fill:#000000;stroke-width:0.733432" />
  </g>
</svg>
