<?xml version="1.0" encoding="UTF-8" standalone="no"?>
<svg
   xmlns:dc="http://purl.org/dc/elements/1.1/"
   xmlns:cc="http://creativecommons.org/ns#"
   xmlns:rdf="http://www.w3.org/1999/02/22-rdf-syntax-ns#"
   xmlns:svg="http://www.w3.org/2000/svg"
   xmlns="http://www.w3.org/2000/svg"
   xmlns:sodipodi="http://sodipodi.sourceforge.net/DTD/sodipodi-0.dtd"
   xmlns:inkscape="http://www.inkscape.org/namespaces/inkscape"
   sodipodi:docname="coração.svg"
   inkscape:version="1.0 (4035a4fb49, 2020-05-01)"
   id="svg1606"
   version="1.1"
   viewBox="0 0 72.447701 69.593857"
   height="69.593857mm"
   width="72.447701mm">
  <defs
     id="defs1600" />
  <sodipodi:namedview
     inkscape:window-maximized="1"
     inkscape:window-y="41"
     inkscape:window-x="-9"
     inkscape:window-height="1001"
     inkscape:window-width="1920"
     showgrid="false"
     inkscape:document-rotation="0"
     inkscape:current-layer="layer1"
     inkscape:document-units="mm"
     inkscape:cy="69.553152"
     inkscape:cx="132.14284"
     inkscape:zoom="0.35"
     inkscape:pageshadow="2"
     inkscape:pageopacity="0.0"
     borderopacity="1.0"
     bordercolor="#666666"
     pagecolor="#ffffff"
     id="base" />
  <metadata
     id="metadata1603">
    <rdf:RDF>
      <cc:Work
         rdf:about="">
        <dc:format>image/svg+xml</dc:format>
        <dc:type
           rdf:resource="http://purl.org/dc/dcmitype/StillImage" />
        <dc:title></dc:title>
      </cc:Work>
    </rdf:RDF>
  </metadata>
  <g
     transform="translate(-70.870541,-129.76406)"
     id="layer1"
     inkscape:groupmode="layer"
     inkscape:label="Layer 1">
    <path
       id="path1652"
       d="m 106.19241,199.10125 c -1.09365,-0.62599 -6.961209,-5.16155 -10.817239,-8.36159 -4.3898,-3.64301 -12.89971,-11.99372 -15.44512,-15.15619 -6.62916,-8.23618 -9.05951,-14.2304 -9.05951,-22.34441 0,-11.47423 5.99531,-20.46843 15.26633,-22.90261 2.45662,-0.64501 6.64898,-0.76614 8.81075,-0.25458 2.09532,0.49583 5.449679,2.15239 7.191369,3.55148 1.56869,1.26012 4.03618,4.05046 4.51914,5.11043 0.15437,0.33882 0.35087,0.6117 0.43665,0.60638 0.0858,-0.005 0.4868,-0.53201 0.89116,-1.17044 2.4263,-3.83088 6.91006,-7.04144 11.30335,-8.09368 2.15284,-0.51562 6.3472,-0.39642 8.81075,0.25041 6.53999,1.71713 11.51306,6.69837 13.90856,13.93141 1.00624,3.03826 1.1203,3.75302 1.27927,8.01669 0.26475,7.10093 -1.1735,12.00079 -5.41511,18.44829 -4.93936,7.50809 -15.17831,17.4897 -27.07319,26.39275 -3.07495,2.30152 -3.62545,2.53759 -4.60716,1.97566 z m 5.198,-5.58358 c 13.91697,-10.74435 23.92559,-21.53124 27.37014,-29.49844 1.40267,-3.24436 1.97344,-5.83892 2.13616,-9.71045 0.1181,-2.80984 0.0487,-3.90043 -0.37877,-5.95665 -1.02857,-4.94713 -3.04224,-8.80665 -6.09411,-11.68035 -3.05047,-2.87239 -6.9816,-4.45571 -11.0628,-4.45571 -4.46236,0 -7.62382,1.36612 -10.95486,4.73378 -1.28895,1.30313 -2.69407,3.04766 -3.28398,4.07723 -1.67399,2.92165 -2.33348,2.92165 -4.00747,0 -0.58991,-1.02957 -1.99503,-2.7741 -3.28398,-4.07723 -3.587709,-3.62715 -7.025909,-4.96356 -11.993699,-4.66189 -7.76466,0.47153 -13.68748,6.09746 -15.97889,15.17795 -0.34563,1.36966 -0.45327,2.85589 -0.43811,6.04912 0.0214,4.51323 0.36361,6.428 1.77185,9.91444 2.17994,5.397 8.22362,13.11022 15.59351,19.90116 6.0176,5.54489 15.475519,13.17569 16.333059,13.17777 0.21828,5.3e-4 2.14066,-1.3453 4.27195,-2.99073 z"
       style="fill:#000000;stroke-width:0.264583" />
  </g>
</svg>
