<?xml version="1.0" encoding="UTF-8" standalone="no"?>
<svg
   xmlns:dc="http://purl.org/dc/elements/1.1/"
   xmlns:cc="http://creativecommons.org/ns#"
   xmlns:rdf="http://www.w3.org/1999/02/22-rdf-syntax-ns#"
   xmlns:svg="http://www.w3.org/2000/svg"
   xmlns="http://www.w3.org/2000/svg"
   xmlns:sodipodi="http://sodipodi.sourceforge.net/DTD/sodipodi-0.dtd"
   xmlns:inkscape="http://www.inkscape.org/namespaces/inkscape"
   sodipodi:docname="Engrenagem.svg"
   inkscape:version="1.0 (4035a4fb49, 2020-05-01)"
   id="svg20"
   version="1.1"
   viewBox="0 0 162.45383 136.22029"
   height="136.22029mm"
   width="162.45383mm">
  <defs
     id="defs14" />
  <sodipodi:namedview
     inkscape:window-maximized="1"
     inkscape:window-y="41"
     inkscape:window-x="-9"
     inkscape:window-height="1001"
     inkscape:window-width="1920"
     showgrid="false"
     inkscape:document-rotation="0"
     inkscape:current-layer="layer1"
     inkscape:document-units="mm"
     inkscape:cy="273.71058"
     inkscape:cx="321.28427"
     inkscape:zoom="0.35"
     inkscape:pageshadow="2"
     inkscape:pageopacity="0.0"
     borderopacity="1.0"
     bordercolor="#666666"
     pagecolor="#ffffff"
     id="base" />
  <metadata
     id="metadata17">
    <rdf:RDF>
      <cc:Work
         rdf:about="">
        <dc:format>image/svg+xml</dc:format>
        <dc:type
           rdf:resource="http://purl.org/dc/dcmitype/StillImage" />
        <dc:title></dc:title>
      </cc:Work>
    </rdf:RDF>
  </metadata>
  <g
     transform="translate(-20.82687,-75.747409)"
     id="layer1"
     inkscape:groupmode="layer"
     inkscape:label="Layer 1">
    <path
       id="path36"
       d="m 73.081691,211.64298 c -1.07342,-0.49011 -1.94333,-1.48087 -2.25528,-2.56859 -0.14205,-0.49528 -0.25827,-3.71716 -0.25827,-7.15973 v -6.25921 l -1.38906,-0.32822 c -3.67009,-0.8672 -9.30557,-3.21449 -12.38566,-5.15886 l -1.10739,-0.69906 -4.66363,4.63632 c -2.56499,2.54997 -4.9988,4.76342 -5.40846,4.91876 -1.09016,0.41341 -2.61497,0.34495 -3.36348,-0.151 -1.07331,-0.71115 -7.93568,-7.57808 -8.34527,-8.3508 -0.45077,-0.85041 -0.49559,-2.66154 -0.0859,-3.47012 0.16105,-0.31786 2.37567,-2.6747 4.92137,-5.23742 l 4.62855,-4.65951 -0.66055,-1.04636 c -1.92106,-3.04317 -3.64548,-7.01642 -4.80265,-11.06588 l -0.83169,-2.91042 -6.9146,-0.13229 c -6.46268,-0.12364 -6.96338,-0.1681 -7.66091,-0.68026 -1.52698,-1.12119 -1.67149,-1.80594 -1.67194,-7.92282 -5.3e-4,-6.2249 0.1412,-6.8322 1.86869,-8.01107 0.87353,-0.59613 1.00809,-0.60622 7.59863,-0.56997 3.69015,0.0203 6.78479,-0.0385 6.877,-0.13074 0.0922,-0.0922 0.20884,-0.49057 0.25919,-0.88525 0.38049,-2.98234 3.48872,-10.41236 5.6957,-13.61517 0.2784,-0.40402 -0.26855,-1.05307 -4.34775,-5.15938 -2.56642,-2.58347 -4.79799,-4.95728 -4.95904,-5.27513 -0.40611,-0.80148 -0.36601,-2.35192 0.0829,-3.20553 0.20665,-0.39296 2.20095,-2.52001 4.43177,-4.72678 5.92883,-5.86492 5.83334,-5.87108 12.60631,0.8135 2.51983,2.48695 4.69098,4.56084 4.82479,4.60864 0.1338,0.0478 0.60247,-0.16887 1.0415,-0.48148 2.25115,-1.60296 9.64934,-4.63864 12.64842,-5.18998 0.53947,-0.0992 1.0652,-0.31099 1.16829,-0.4707 0.10309,-0.1597 0.1887,-3.2479 0.19025,-6.86266 0.004,-9.469524 -0.26815,-9.174799 8.47367,-9.174799 6.30944,0 6.65155,0.06244 7.94968,1.451009 l 0.66146,0.707536 0.0738,6.792084 c 0.0406,3.73564 0.1204,6.92587 0.17731,7.0894 0.0569,0.16353 0.55947,0.3776 1.11679,0.47573 3.0156,0.53095 8.36066,2.7181 12.715499,5.20308 l 1.11886,0.63845 4.56969,-4.53579 c 2.51332,-2.49468 4.82974,-4.66757 5.1476,-4.82864 0.81,-0.41047 2.88316,-0.36482 3.7347,0.0822 0.39295,0.2063 2.39746,2.08153 4.45447,4.16718 5.86633,5.94804 5.86442,5.97741 -0.82364,12.65281 -2.54989,2.54505 -4.63616,4.71385 -4.63616,4.81954 0,0.1057 0.65241,1.35713 1.44981,2.78097 1.57819,2.81803 3.2777,7.07457 3.99153,9.99711 0.24881,1.01865 0.52581,1.93597 0.61557,2.03849 0.0898,0.10253 3.09157,0.24996 6.67071,0.32764 9.82621,0.21325 9.42684,-0.14968 9.48264,8.61745 0.0265,4.16429 -0.0524,6.09229 -0.25432,6.21711 -0.16101,0.0995 -0.40358,0.47245 -0.53905,0.82874 -0.14622,0.3846 -0.70398,0.85556 -1.37274,1.15912 -1.01484,0.46064 -1.77525,0.51187 -7.67488,0.51711 -6.24067,0.006 -6.54844,0.0293 -6.54844,0.50537 0,1.81216 -2.50051,8.31644 -4.64152,12.07343 -0.64862,1.13817 -1.17931,2.19383 -1.17931,2.3459 0,0.15207 2.14312,2.43101 4.7625,5.06432 l 4.7625,4.78783 v 1.66665 1.66666 l -3.75111,3.8072 c -2.06311,2.09395 -3.92842,3.80719 -4.14514,3.80719 -0.21671,0 -0.3178,0.0762 -0.22464,0.1694 0.27963,0.27962 -1.60499,1.15352 -2.48765,1.15352 -1.46633,0 -2.4526,-0.73941 -6.62472,-4.96659 -2.25903,-2.28884 -4.29539,-4.31587 -4.52525,-4.50451 -0.35257,-0.28934 -0.63895,-0.20397 -1.83127,0.54593 -3.310159,2.08187 -7.958979,3.9891 -12.062819,4.94891 -1.62757,0.38066 -1.44501,-0.60854 -1.49072,8.0773 -0.0293,5.57137 -0.0565,5.86241 -0.63381,6.79083 -0.92761,1.49172 -1.9277,1.70846 -8.12808,1.76145 -3.99665,0.0342 -5.48592,-0.0435 -6.08541,-0.31718 z m 11.90625,-35.59095 c 3.67814,-0.99664 5.83534,-2.03734 8.62326,-4.16017 4.1993,-3.1975 7.533709,-8.56934 8.591139,-13.84059 0.77519,-3.86434 0.19051,-10.4339 -1.17404,-13.19157 -0.12353,-0.24964 -0.56845,-1.16634 -0.98873,-2.0371 -1.939889,-4.01923 -5.696599,-7.8183 -9.759969,-9.87002 -4.36084,-2.20192 -5.89139,-2.55856 -10.98021,-2.55856 -4.67645,0 -6.15252,0.30071 -9.72545,1.98127 -6.02763,2.83516 -9.96583,7.22292 -12.31505,13.72088 -0.48205,1.33335 -0.93444,2.36628 -1.00532,2.29541 -0.0709,-0.0709 -0.0823,0.26961 -0.0255,0.75665 0.0569,0.48703 -0.02,1.67797 -0.17078,2.64652 -0.22462,1.4428 -0.1827,2.30427 0.23199,4.76767 1.32889,7.89394 5.39604,13.80011 11.93017,17.32457 1.09832,0.59243 2.07609,0.998 2.17281,0.90127 0.0967,-0.0967 0.17587,-0.0543 0.17587,0.0943 0,0.32647 3.22776,1.31298 5.42396,1.65774 2.2419,0.35194 6.81012,0.10399 8.99583,-0.48825 z m 43.388629,13.69126 c 0.003,-2.83983 -0.0437,-3.10286 -0.85162,-4.80859 -0.67712,-1.42962 -1.51124,-2.47409 -4.01559,-5.02832 -2.81926,-2.8754 -3.12833,-3.28095 -2.85917,-3.75181 0.16598,-0.29037 0.86278,-1.89715 1.54845,-3.57064 l 1.24666,-3.04271 4.98069,-0.13229 c 4.70673,-0.12502 5.06391,-0.1713 6.4936,-0.84139 1.76451,-0.82703 3.96105,-2.78702 4.8289,-4.30888 1.41104,-2.47438 1.70333,-4.13697 1.57825,-8.97725 l -0.1154,-4.46584 1.00052,-1.08822 c 1.44239,-1.56883 3.43436,-4.87971 4.34171,-7.21642 2.55731,-6.58589 1.8809,-14.13532 -1.83092,-20.43513 -1.30246,-2.21057 -4.22563,-5.32856 -6.47968,-6.91151 -3.38237,-2.37535 -8.65235,-4.22828 -12.02576,-4.22828 h -1.25865 l -3.57044,-3.59321 c -1.96373,-1.97626 -4.0796,-3.8916 -4.70192,-4.2563 -2.4721,-1.44875 -5.71319,-1.78302 -8.5855,-0.88545 -2.26083,0.70648 -2.77887,1.08583 -6.31172,4.62194 l -3.042709,3.04551 -1.5875,-0.75345 c -0.87313,-0.41439 -2.491,-1.08695 -3.59528,-1.49457 l -2.00777,-0.74113 -0.0518,-4.78469 c -0.0511,-4.717846 -0.063,-4.808622 -0.85038,-6.497709 -0.4392,-0.94216 -1.0733,-2.073254 -1.40913,-2.513541 -0.33582,-0.440288 -0.59746,-0.884696 -0.58143,-0.987571 0.016,-0.102878 -0.20896,-0.379598 -0.5,-0.614934 -0.29105,-0.235336 -0.35058,-0.340437 -0.1323,-0.233553 0.22942,0.112332 0.30527,0.09413 0.17977,-0.04315 -0.11941,-0.130614 -0.41707,-0.239001 -0.66146,-0.240858 -0.24439,-0.0019 -0.41865,-0.139991 -0.38725,-0.306967 0.0338,-0.179874 -0.15486,-0.248166 -0.46302,-0.167579 -1.38279,0.361609 0.45276,-1.638453 1.87911,-2.047523 1.53026,-0.438875 2.60935,-0.04997 4.27823,1.541881 1.39767,1.333142 2.0008,2.212522 1.19389,1.740698 -0.1819,-0.106362 -0.10391,0.0652 0.1733,0.381262 0.52188,0.594995 0.84059,0.773272 0.55431,0.310063 -0.27859,-0.450771 0.26984,-0.291169 0.81,0.235725 0.28211,0.275169 1.03391,1.049076 1.67069,1.719792 0.63677,0.670716 1.26185,1.219483 1.38906,1.219483 0.12721,0 0.23129,0.118028 0.23129,0.262281 0,0.361056 1.541799,1.80422 2.125419,1.989458 0.29219,0.09274 1.04586,-0.213186 1.94987,-0.791472 0.81047,-0.518451 1.53675,-0.931019 1.61397,-0.916816 0.43865,0.08069 1.70142,-0.357962 1.58284,-0.549833 -0.14604,-0.236289 2.04933,-1.316535 2.67557,-1.316535 0.19547,0 0.98401,-0.287081 1.7523,-0.637958 1.41632,-0.646824 4.28096,-1.478708 5.09201,-1.478708 0.61814,0 1.30935,-0.705012 0.86659,-0.883894 -0.24764,-0.100052 -0.24242,-0.137798 0.0213,-0.153551 0.25955,-0.0155 0.23799,-0.132522 -0.0837,-0.454207 -0.38104,-0.38104 -0.42323,-1.155158 -0.34963,-6.416146 0.0808,-5.77356 0.10524,-6.013045 0.69986,-6.846715 1.11863,-1.568355 1.5154,-1.649756 8.03579,-1.648664 5.38147,7.94e-4 5.97445,0.04631 6.74564,0.516536 1.74533,1.064194 1.78647,1.252302 1.93261,8.837006 l 0.13229,6.866048 2.24896,0.597466 c 3.83715,1.019395 8.6435,3.089275 11.59775,4.994635 l 0.96995,0.625578 4.7625,-4.711239 c 5.10787,-5.052896 5.7364,-5.463778 7.68546,-5.024191 1.12756,0.254306 1.23784,0.34899 5.85175,5.024254 5.49159,5.564611 5.48891,5.589378 -1.34072,12.410138 l -4.61091,4.60492 0.61307,0.97117 c 2.03802,3.22842 4.55928,9.26585 5.17372,12.38904 l 0.32252,1.63931 6.64631,0.004 c 6.38978,0.004 6.68609,0.0272 7.67709,0.59532 1.87353,1.0741 2.01192,1.6401 2.01192,8.22851 0,5.42458 -0.0354,5.85104 -0.55583,6.69309 -0.30571,0.49464 -1.01534,1.13377 -1.57696,1.42029 -0.93465,0.47682 -1.57787,0.52094 -7.5951,0.52094 h -6.57397 l -0.45179,1.88244 c -0.53133,2.21391 -1.92716,5.51402 -2.53278,5.98817 -0.3827,0.29963 -0.3787,0.31663 0.0402,0.17067 0.43505,-0.15158 0.43299,-0.0958 -0.0317,0.85924 -0.27331,0.56175 -0.6891,1.46784 -0.92398,2.01354 -0.23488,0.5457 -0.55507,0.99219 -0.71154,0.99219 -0.15646,0 -0.22165,0.10164 -0.14488,0.22588 0.0768,0.12423 -0.194,0.75192 -0.60174,1.39486 -0.66826,1.05373 -0.98515,2.13492 -0.58701,2.00281 0.24608,-0.0817 2.01338,1.70808 1.94028,1.9649 -0.0364,0.12781 0.0845,0.23238 0.26855,0.23238 0.40288,0 6.62808,6.23868 7.04496,7.06021 0.37729,0.74352 0.3774,2.59824 1.9e-4,3.34208 -0.41931,0.82686 -7.63733,8.08088 -8.49119,8.53354 -0.85037,0.4508 -2.66149,0.49565 -3.47011,0.0859 -0.31787,-0.16107 -2.66152,-2.35729 -5.20814,-4.8805 l -4.63021,-4.58766 -2.42628,1.39666 c -2.85376,1.64274 -7.27698,3.44171 -10.32756,4.20033 l -2.17051,0.53977 -0.0785,6.82042 c -0.0737,6.40943 -0.11132,6.86441 -0.62396,7.55045 -0.88986,1.19085 -1.84986,1.75509 -3.20812,1.88561 l -1.27952,0.12295 0.003,-3.00417 z M 100.23431,97.900871 c -0.261309,-0.25936 -0.291699,-0.22897 -0.14811,0.148114 0.0993,0.260937 0.2473,0.407781 0.32876,0.326319 0.0815,-0.08146 1.7e-4,-0.294955 -0.18065,-0.474433 z m -3.207829,-3.195727 c 0,-0.05021 -0.26789,-0.318098 -0.59532,-0.595313 l -0.59531,-0.504028 0.50403,0.595312 c 0.47366,0.559446 0.6866,0.715762 0.6866,0.504029 z"
       style="fill:#000000;stroke-width:0.264583" />
  </g>
</svg>
