<?xml version="1.0" encoding="UTF-8" standalone="no"?>
<svg
   xmlns:dc="http://purl.org/dc/elements/1.1/"
   xmlns:cc="http://creativecommons.org/ns#"
   xmlns:rdf="http://www.w3.org/1999/02/22-rdf-syntax-ns#"
   xmlns:svg="http://www.w3.org/2000/svg"
   xmlns="http://www.w3.org/2000/svg"
   xmlns:sodipodi="http://sodipodi.sourceforge.net/DTD/sodipodi-0.dtd"
   xmlns:inkscape="http://www.inkscape.org/namespaces/inkscape"
   sodipodi:docname="Face.svg"
   inkscape:version="1.0 (4035a4fb49, 2020-05-01)"
   id="svg14"
   version="1.1"
   viewBox="0 0 199.68042 198.92448"
   height="198.92448mm"
   width="199.68042mm">
  <defs
     id="defs8" />
  <sodipodi:namedview
     inkscape:window-maximized="1"
     inkscape:window-y="41"
     inkscape:window-x="-9"
     inkscape:window-height="1001"
     inkscape:window-width="1920"
     showgrid="false"
     inkscape:document-rotation="0"
     inkscape:current-layer="layer1"
     inkscape:document-units="mm"
     inkscape:cy="335.92029"
     inkscape:cx="380.20598"
     inkscape:zoom="0.35"
     inkscape:pageshadow="2"
     inkscape:pageopacity="0.0"
     borderopacity="1.0"
     bordercolor="#666666"
     pagecolor="#ffffff"
     id="base" />
  <metadata
     id="metadata11">
    <rdf:RDF>
      <cc:Work
         rdf:about="">
        <dc:format>image/svg+xml</dc:format>
        <dc:type
           rdf:resource="http://purl.org/dc/dcmitype/StillImage" />
        <dc:title></dc:title>
      </cc:Work>
    </rdf:RDF>
  </metadata>
  <g
     transform="translate(-5.2371674,-59.287758)"
     id="layer1"
     inkscape:groupmode="layer"
     inkscape:label="Layer 1">
    <ellipse
       ry="91.962242"
       rx="92.34021"
       cy="158.75"
       cx="105.07738"
       id="path42"
       style="fill:none;stroke:#000000;stroke-width:15;stroke-miterlimit:4;stroke-dasharray:none" />
    <path
       d=""
       id="path70"
       style="fill:#000000;stroke-width:0.264583" />
    <path
       id="path86"
       d="m 82.360905,219.19021 c -0.42413,-0.79248 -0.65763,-10.94347 -0.65763,-28.5879 V 163.2432 h -9.57106 c -5.3827,0 -10.1088,-0.28777 -10.79988,-0.65763 -1.14962,-0.61525 -1.2288,-1.44648 -1.2288,-12.89632 0,-8.67192 0.2221,-12.46085 0.76234,-13.00102 0.528,-0.528 3.81926,-0.76235 10.70682,-0.76235 h 9.94447 l 0.37911,-10.64105 c 0.40302,-11.31271 1.08579,-14.88552 3.905,-20.43488 3.91122,-7.698838 12.92659,-13.843523 22.924335,-15.624791 6.6281,-1.180901 27.53652,-1.288182 29.09408,-0.149276 0.97234,0.710985 1.07062,2.058017 0.91551,12.546907 l -0.17384,11.7504 -10.32438,0.35313 c -9.06687,0.31013 -10.537,0.51102 -12.07043,1.64947 -2.90044,2.15334 -3.31482,3.705 -3.32495,12.45018 l -0.01,8.09991 h 11.47694 c 6.69643,0 11.98876,0.27392 12.70572,0.65763 1.14834,0.61456 1.22883,1.44382 1.22883,12.66037 0,10.0645 -0.16112,12.16394 -0.99833,13.00103 -0.83531,0.83531 -2.90965,0.99829 -12.70571,0.99829 H 112.8316 v 27.82556 c 0,20.79507 -0.19256,28.01818 -0.76234,28.58791 -0.54728,0.54728 -4.75261,0.76234 -14.906905,0.76234 -13.33411,0 -14.18222,-0.0704 -14.80218,-1.2288 z"
       style="fill:#000000;stroke-width:0.635286" />
  </g>
</svg>
