<?xml version="1.0" encoding="UTF-8" standalone="no"?>
<svg
   xmlns:dc="http://purl.org/dc/elements/1.1/"
   xmlns:cc="http://creativecommons.org/ns#"
   xmlns:rdf="http://www.w3.org/1999/02/22-rdf-syntax-ns#"
   xmlns:svg="http://www.w3.org/2000/svg"
   xmlns="http://www.w3.org/2000/svg"
   xmlns:sodipodi="http://sodipodi.sourceforge.net/DTD/sodipodi-0.dtd"
   xmlns:inkscape="http://www.inkscape.org/namespaces/inkscape"
   sodipodi:docname="lapis.svg"
   inkscape:version="1.0 (4035a4fb49, 2020-05-01)"
   id="svg35"
   version="1.1"
   viewBox="0 0 64.241219 120.13853"
   height="120.13853mm"
   width="64.241219mm">
  <defs
     id="defs29" />
  <sodipodi:namedview
     inkscape:window-maximized="1"
     inkscape:window-y="41"
     inkscape:window-x="-9"
     inkscape:window-height="1001"
     inkscape:window-width="1920"
     showgrid="false"
     inkscape:document-rotation="0"
     inkscape:current-layer="layer1"
     inkscape:document-units="mm"
     inkscape:cy="178.46205"
     inkscape:cx="184.25787"
     inkscape:zoom="0.35"
     inkscape:pageshadow="2"
     inkscape:pageopacity="0.0"
     borderopacity="1.0"
     bordercolor="#666666"
     pagecolor="#ffffff"
     id="base" />
  <metadata
     id="metadata32">
    <rdf:RDF>
      <cc:Work
         rdf:about="">
        <dc:format>image/svg+xml</dc:format>
        <dc:type
           rdf:resource="http://purl.org/dc/dcmitype/StillImage" />
        <dc:title></dc:title>
      </cc:Work>
    </rdf:RDF>
  </metadata>
  <g
     transform="translate(-57.081771,-100.94858)"
     id="layer1"
     inkscape:groupmode="layer"
     inkscape:label="Layer 1">
    <path
       id="path129"
       d="m 62.998345,221.03227 c -0.09997,-0.32212 -0.574156,-3.5614 -1.053698,-7.19838 -0.479529,-3.63698 -1.241017,-9.3595 -1.692182,-12.71671 -0.451166,-3.35721 -1.198695,-8.92712 -1.661165,-12.37758 -0.462482,-3.45048 -0.991319,-7.18919 -1.175202,-8.30825 l -0.334327,-2.03468 6.901946,-18.48161 c 3.796066,-10.1649 8.832597,-23.67004 11.192306,-30.01144 2.359696,-6.3414 4.661394,-12.52173 5.114884,-13.73405 1.71502,-4.58476 3.26979,-7.21153 5.7306,-9.68172 4.005159,-4.02046 8.699921,-5.9004 13.690211,-5.48203 2.730112,0.22888 11.928802,3.51707 14.294482,5.10974 3.02989,2.03985 4.98809,4.65467 6.36405,8.498 1.13898,3.18143 1.2828,9.15789 0.2904,12.0685 -0.73189,2.14659 -10.3604,28.08979 -12.58572,33.91122 -0.81993,2.14489 -2.73188,7.257 -4.24878,11.36026 -1.51691,4.10325 -3.56705,9.59687 -4.555873,12.20804 -0.98882,2.61116 -2.101599,5.58687 -2.472849,6.6127 -0.759,2.09721 0.715208,0.71158 -21.514422,20.22154 -9.36592,8.22005 -12.143983,10.48969 -12.284661,10.03645 z M 80.861467,203.4062 c 4.493981,-4.24314 9.24545,-8.72203 10.558821,-9.95309 l 2.38793,-2.23828 -0.621252,-1.37769 c -1.766668,-3.91774 -4.782079,-4.75489 -9.10744,-2.5284 -0.139869,0.0721 -0.25432,-0.11573 -0.25432,-0.41728 0,-1.14445 -1.680439,-3.81404 -2.958249,-4.69957 -1.68506,-1.16775 -4.619369,-1.25768 -7.246655,-0.2221 -0.963711,0.37984 -1.790961,0.64689 -1.838332,0.59344 -0.04742,-0.0535 -0.428313,-0.89947 -0.846514,-1.88002 -1.758252,-4.12244 -5.080968,-5.11551 -9.731764,-2.90856 -1.374695,0.65234 -1.375605,0.67364 -0.424583,9.87057 0.380468,3.67936 0.976259,9.63811 1.32398,13.24169 0.347721,3.60356 0.730457,6.65019 0.850538,6.77027 0.342902,0.3429 8.422088,3.37625 9.115478,3.42243 0.37793,0.0251 3.823585,-2.98198 8.792362,-7.67341 z"
       style="fill:#000000;stroke-width:0.339111" />
  </g>
</svg>
