<?xml version="1.0" encoding="UTF-8" standalone="no"?>
<svg
   xmlns:dc="http://purl.org/dc/elements/1.1/"
   xmlns:cc="http://creativecommons.org/ns#"
   xmlns:rdf="http://www.w3.org/1999/02/22-rdf-syntax-ns#"
   xmlns:svg="http://www.w3.org/2000/svg"
   xmlns="http://www.w3.org/2000/svg"
   xmlns:sodipodi="http://sodipodi.sourceforge.net/DTD/sodipodi-0.dtd"
   xmlns:inkscape="http://www.inkscape.org/namespaces/inkscape"
   width="197.31807mm"
   height="125.9484mm"
   viewBox="0 0 197.31807 125.94841"
   version="1.1"
   id="svg73"
   inkscape:version="1.0 (4035a4fb49, 2020-05-01)"
   sodipodi:docname="Logo2.svg">
  <defs
     id="defs67">
    <clipPath
       id="clipPath65"
       clipPathUnits="userSpaceOnUse">
      <rect
         y="-359.83334"
         x="-18.898809"
         height="94.494049"
         width="111.88095"
         id="rect67"
         style="fill:#ffaaaa;stroke:#000000;stroke-width:2.5" />
    </clipPath>
    <clipPath
       id="clipPath71"
       clipPathUnits="userSpaceOnUse">
      <rect
         y="-250.99654"
         x="346.53848"
         height="16.818096"
         width="113.26861"
         id="rect73"
         style="fill:#ffaaaa;stroke:#000000;stroke-width:2.56412" />
    </clipPath>
    <clipPath
       id="clipPath92"
       clipPathUnits="userSpaceOnUse">
      <rect
         y="-240.74489"
         x="275.73264"
         height="102.35862"
         width="113.81233"
         id="rect94"
         style="fill:#ffaaaa;stroke:#000000;stroke-width:2.59041" />
    </clipPath>
  </defs>
  <sodipodi:namedview
     id="base"
     pagecolor="#ffffff"
     bordercolor="#666666"
     borderopacity="1.0"
     inkscape:pageopacity="0.0"
     inkscape:pageshadow="2"
     inkscape:zoom="0.35"
     inkscape:cx="378.1655"
     inkscape:cy="296.13567"
     inkscape:document-units="mm"
     inkscape:current-layer="layer1"
     inkscape:document-rotation="0"
     showgrid="false"
     inkscape:window-width="1920"
     inkscape:window-height="1001"
     inkscape:window-x="-9"
     inkscape:window-y="41"
     inkscape:window-maximized="1" />
  <metadata
     id="metadata70">
    <rdf:RDF>
      <cc:Work
         rdf:about="">
        <dc:format>image/svg+xml</dc:format>
        <dc:type
           rdf:resource="http://purl.org/dc/dcmitype/StillImage" />
        <dc:title />
      </cc:Work>
    </rdf:RDF>
  </metadata>
  <g
     inkscape:label="Layer 1"
     inkscape:groupmode="layer"
     id="layer1"
     transform="translate(-5.7770454,-69.814104)">
    <path
       id="path31"
       d="m 109.21688,195.60001 c -0.19131,-0.0765 -0.45625,-0.42432 -0.58877,-0.77286 -0.19737,-0.51914 -0.42761,-0.63371 -1.27342,-0.63371 -1.19419,0 -1.59144,-0.37307 -1.80616,-1.69618 -0.15822,-0.97503 -0.53117,-1.19127 -1.09028,-0.63215 -0.71077,0.71076 -0.27966,-0.73087 0.83858,-2.80421 0.94169,-1.746 1.18664,-2.49143 1.32085,-4.01968 0.31977,-3.64099 2.1732,-9.6332 2.97961,-9.6332 0.22517,0 0.36429,-0.29157 0.36429,-0.7635 0,-0.41993 0.17786,-1.10454 0.39525,-1.52136 0.21738,-0.41681 0.39709,-0.93644 0.39935,-1.15472 0.006,-0.62222 1.4482,-2.96192 2.35382,-3.81981 0.97317,-0.9219 1.0342,-1.34984 0.22502,-1.578 -0.56904,-0.16045 -0.54997,-0.20506 0.43215,-1.01087 0.66478,-0.54543 1.30141,-1.45436 1.80354,-2.57497 0.42684,-0.95259 1.01241,-1.98431 1.30127,-2.29271 0.28886,-0.3084 0.614,-0.89275 0.72253,-1.29856 l 0.19732,-0.73783 0.84738,1.15225 c 0.47581,0.647 0.84737,1.47605 0.84737,1.89071 0,1.04474 -1.51421,5.64625 -1.98716,6.03877 -0.51701,0.42908 -0.50141,1.16674 0.0341,1.61115 0.37002,0.30709 0.51116,0.25125 1.03932,-0.41112 0.33614,-0.42156 0.98979,-0.8943 1.45257,-1.05055 0.63673,-0.21498 0.92639,-0.53411 1.1907,-1.31187 0.32589,-0.95893 2.0854,-3.07326 2.55753,-3.07326 0.11599,0 0.21089,0.1786 0.21089,0.39688 0,0.73965 0.78396,0.40187 1.42532,-0.61412 0.35102,-0.55605 0.83616,-1.59404 1.0781,-2.30664 0.41444,-1.2207 0.4132,-1.31513 -0.0214,-1.6329 -0.42099,-0.30784 -0.35581,-0.43559 0.74684,-1.46368 1.90423,-1.77548 4.92088,-7.47004 5.86989,-11.08066 0.32364,-1.2313 0.32287,-1.50356 -0.006,-2.02251 -0.33122,-0.52309 -0.32788,-0.77418 0.0261,-1.96625 0.67417,-2.27018 0.4537,-5.09798 -0.35834,-4.59611 -0.16178,0.1 -1.01388,1.12727 -1.89355,2.28285 -0.87967,1.15558 -1.6681,2.10106 -1.75207,2.10106 -0.084,0 0.0416,-0.26789 0.27914,-0.59531 0.2375,-0.32743 0.55539,-0.88598 0.70642,-1.24123 0.3241,-0.76233 0.23056,-2.01178 -0.14765,-1.9723 -0.14552,0.0152 -0.94782,1.38442 -1.7829,3.04271 -1.09771,2.17985 -1.51915,3.31258 -1.52135,4.089 -0.003,1.19715 -0.40418,1.87894 -1.18416,2.01442 -0.35341,0.0614 -0.57833,0.38595 -0.70301,1.0145 -0.6714,3.38456 -2.02413,7.40254 -2.76949,8.22616 -0.67599,0.74696 -0.97013,0.62715 -1.66197,-0.67698 -0.80754,-1.52224 -0.61717,-2.31639 0.76434,-3.1885 1.461,-0.92229 1.41749,-1.62019 -0.0912,-1.4625 -0.42411,0.0443 -0.4434,-0.0236 -0.15811,-0.55667 0.17872,-0.33394 0.66398,-1.07518 1.07836,-1.64722 0.4144,-0.57203 0.75344,-1.33649 0.75344,-1.6988 0,-0.3623 0.18051,-0.79092 0.40114,-0.95249 0.22062,-0.16156 0.5192,-1.02748 0.66351,-1.92425 0.1443,-0.89678 0.69918,-2.5503 1.23306,-3.67451 0.82132,-1.72946 1.01661,-2.50144 1.26906,-5.01661 0.26026,-2.59295 0.38812,-3.07927 1.00111,-3.80776 0.8478,-1.00756 1.06158,-2.02731 1.09513,-5.22382 0.0225,-2.14442 -0.0449,-2.52193 -0.56803,-3.18162 -1.47796,-1.86379 -1.5231,-2.05917 -1.5231,-6.59141 v -4.2554 l 0.76356,-1.10238 c 0.76062,-1.09812 0.76189,-1.10675 0.33073,-2.23574 -0.57931,-1.5169 -0.54977,-1.86214 0.2396,-2.80025 1.74054,-2.06851 8.1627,-2.96108 21.46602,-2.98341 5.66814,-0.01 7.19655,0.0673 8.42167,0.4235 1.20238,0.34954 1.67584,0.37601 2.40727,0.13462 0.81272,-0.26822 0.95994,-0.23946 1.37074,0.26786 0.35247,0.43529 0.92421,0.62625 2.44178,0.81556 1.08985,0.13595 3.13553,0.48557 4.54597,0.77693 1.41043,0.29135 2.89871,0.53125 3.30729,0.53311 0.40858,0.002 1.67193,0.30008 2.80745,0.66272 1.13552,0.36264 2.47457,0.68855 2.97567,0.72423 0.79823,0.0568 0.903,0.14674 0.84583,0.7257 -0.0514,0.52083 0.13094,0.75897 0.8608,1.12407 1.3,0.65032 2.60751,0.61375 2.86418,-0.0801 l 0.2013,-0.54417 0.71622,0.56337 c 0.39391,0.30986 0.71803,0.76309 0.72026,1.00719 0.008,0.91628 0.47018,1.19074 2.26605,1.34676 1.02946,0.0894 1.83323,0.28993 1.89346,0.47232 0.0742,0.22451 -0.17046,0.27228 -0.83882,0.16382 -0.81051,-0.13153 -0.94349,-0.0806 -0.94349,0.36118 0,0.28285 0.35577,0.85513 0.7906,1.27172 0.73283,0.70209 0.77898,0.85631 0.63159,2.11037 -0.14183,1.20671 -0.0817,1.44475 0.55584,2.20248 1.16172,1.38062 2.27366,0.92634 1.22021,-0.49852 -0.55375,-0.749 -0.55495,-0.7686 -0.0468,-0.7686 0.28681,0 0.59506,0.11906 0.68499,0.26458 0.21314,0.34487 0.66146,0.3413 0.66146,-0.005 0,-0.14842 -0.30951,-0.76015 -0.68781,-1.35941 l -0.68781,-1.08956 2.01539,0.12934 c 1.10846,0.0711 2.0954,0.20936 2.1932,0.30716 0.0978,0.0978 -0.0829,0.36042 -0.40153,0.5836 -0.49415,0.34612 -0.57935,0.65651 -0.57935,2.11058 0,1.73361 0.27675,2.11595 1.00469,1.38801 0.42818,-0.42817 1.42725,0.32636 2.90503,2.19397 2.12288,2.68288 2.39007,2.93691 2.9141,2.77059 1.16318,-0.36918 2.02615,1.6375 2.56056,5.95407 0.22067,1.78247 0.64182,4.0983 0.93589,5.1463 0.53444,1.90462 0.53444,1.90595 0.008,3.06667 -0.70725,1.55879 -0.71102,2.61644 -0.009,2.61644 0.3378,0 0.52917,0.17639 0.52917,0.48775 0,0.87772 -0.98876,3.38759 -2.48388,6.3051 -1.53792,3.00101 -2.86138,4.84882 -3.47289,4.84882 -0.67763,0 -0.70401,-0.54896 -0.0511,-1.06257 1.17668,-0.92558 1.0966,-2.33269 -0.11534,-2.02645 -1.08962,0.27533 -3.13929,1.73702 -3.40099,2.42535 -0.13878,0.36502 -0.36715,0.66367 -0.50749,0.66367 -0.14034,0 -0.29211,0.44491 -0.33728,0.98869 -0.0638,0.76847 -0.25891,1.09651 -0.87586,1.4728 -2.28792,1.39542 -4.13565,2.69946 -5.59712,3.95017 -0.8956,0.76645 -2.97774,2.22698 -4.62698,3.24563 -3.02556,1.86872 -4.72486,3.16321 -4.72486,3.59928 0,0.35305 0.84837,0.28779 2.12804,-0.16371 1.12924,-0.39842 1.1333,-0.39764 0.65871,0.12678 -1.05789,1.16894 1.00005,0.92427 3.56114,-0.4234 1.36958,-0.72068 1.67724,-0.76054 2.08431,-0.27006 0.37817,0.45567 -0.65176,0.96757 -1.94675,0.96757 -0.49388,0 -0.97261,0.12076 -1.06383,0.26836 -0.37136,0.60088 -2.41742,1.37784 -3.86877,1.4691 -1.60065,0.10066 -2.35904,0.4141 -5.83311,2.41084 -1.11721,0.64213 -3.13103,1.63754 -4.47516,2.21203 -1.34413,0.57449 -2.64633,1.22776 -2.8938,1.45171 -0.38265,0.34629 -0.63006,0.35901 -1.65443,0.085 -1.00469,-0.26872 -1.74582,-0.24157 -4.46762,0.16361 -1.79471,0.26718 -4.52525,0.55712 -6.06786,0.64432 -1.66213,0.094 -2.97003,0.29609 -3.21043,0.49617 -0.45464,0.37839 -1.89533,0.49608 -2.74733,0.22442 -0.30824,-0.0983 -1.67746,0.002 -3.04271,0.22388 -1.36526,0.22141 -3.41284,0.40305 -4.55019,0.40363 -2.34669,0.001 -3.09147,0.28087 -3.09147,1.16082 0,0.46934 -0.26207,0.72225 -1.12447,1.08519 -0.61847,0.26027 -1.75967,0.76831 -2.53601,1.12897 -1.03815,0.48228 -1.48957,0.57769 -1.70656,0.3607 -0.46075,-0.46074 -2.29355,-0.37042 -2.48265,0.12236 -0.24813,0.64662 0.52989,1.21527 1.8693,1.36624 1.351,0.15227 1.39452,0.1942 0.80921,0.77952 -0.67382,0.67382 -0.29331,1.00432 1.25138,1.08694 1.08143,0.0578 1.93749,-0.10292 3.28639,-0.61714 2.053,-0.78263 5.50133,-1.16169 6.36468,-0.69964 0.41164,0.2203 1.07422,0.13674 2.89147,-0.36467 2.1577,-0.59534 8.31835,-1.97417 8.77783,-1.96459 0.57039,0.0119 -0.96883,0.64603 -3.90681,1.60954 -4.18276,1.37173 -9.24256,2.53918 -12.45565,2.87389 -1.37132,0.14285 -4.21972,0.74214 -6.32977,1.33175 -2.11005,0.58961 -5.13874,1.36792 -6.73042,1.72956 -1.59167,0.36165 -3.13948,0.81713 -3.43958,1.01218 -0.30009,0.19504 -0.98236,0.49776 -1.51614,0.6727 -0.53379,0.17493 -1.17727,0.63947 -1.42997,1.0323 -0.89903,1.39759 -2.62804,3.32134 -3.65142,4.06267 -0.91941,0.66601 -1.25511,0.75021 -2.91748,0.73172 -1.0332,-0.0115 -2.03506,-0.0835 -2.22636,-0.16004 z m 3.33166,-1.81845 c 0.73166,-0.51247 0.78847,-1.4402 0.0882,-1.4402 -0.7594,0 -1.73509,0.89763 -1.53694,1.41399 0.2105,0.54857 0.6906,0.55725 1.44876,0.0262 z m 15.72372,-17.05313 c 0.97581,-0.14113 2.24712,-0.41953 2.82511,-0.61867 0.9042,-0.31152 1.10468,-0.30829 1.43607,0.0231 0.29703,0.29704 0.50931,0.31871 0.92779,0.0947 0.29846,-0.15973 1.05649,-0.29217 1.68452,-0.29431 0.62803,-0.002 1.43953,-0.17573 1.80333,-0.38574 3.23127,-1.86527 10.85919,-4.19574 24.73855,-7.55806 3.05593,-0.74031 5.73282,-1.51935 5.94864,-1.73121 0.47214,-0.46347 0.14037,-1.1595 -0.74477,-1.56248 -0.31551,-0.14365 -0.57367,-0.33346 -0.57367,-0.4218 0,-0.38199 2.25774,-2.35033 3.0106,-2.6247 0.96256,-0.35079 3.90021,-1.77654 5.98524,-2.90485 1.27722,-0.69117 1.72366,-0.78819 3.65004,-0.79321 1.97351,-0.005 2.26033,-0.0712 2.84428,-0.65515 0.62738,-0.62739 0.86021,-1.57032 0.4503,-1.82366 -0.10952,-0.0677 -0.64531,0.0303 -1.19063,0.21779 -0.54532,0.18747 -0.99149,0.2914 -0.99149,0.23095 0,-0.58617 1.47412,-2.80874 1.994,-3.00639 0.52027,-0.19781 0.65183,-0.43356 0.65183,-1.16804 0,-0.8269 0.11402,-0.97148 1.12448,-1.42582 1.44289,-0.64877 2.28792,-1.57812 2.41318,-2.65398 0.0546,-0.4692 0.49563,-1.47386 0.98001,-2.23257 2.4444,-3.82885 3.0394,-6.0771 2.83351,-10.70655 -0.10312,-2.31869 -0.20647,-2.8281 -0.66721,-3.28884 -0.65592,-0.65592 -1.12024,-0.44291 -1.14838,0.52684 -0.0147,0.50552 -0.19336,0.21327 -0.61624,-1.0078 -0.57584,-1.66281 -0.62776,-1.72251 -1.56684,-1.80191 l -0.97126,-0.0821 v -1.32009 c 0,-0.72605 -0.17157,-1.65187 -0.38128,-2.05739 -0.95647,-1.84962 -5.17497,-3.85293 -5.17497,-2.45753 0,0.58266 0.85902,1.40709 2.11667,2.03145 1.27382,0.63238 1.85208,1.18269 1.85208,1.76254 0,0.42397 -0.1893,0.36588 -1.38906,-0.42623 -0.76399,-0.50441 -2.53185,-1.28327 -3.9286,-1.7308 -1.39674,-0.44753 -2.94455,-1.11276 -3.43958,-1.47829 -1.85913,-1.37279 -3.19659,-1.56928 -10.55734,-1.55105 -3.71078,0.009 -8.35422,0.16249 -10.31875,0.34066 -7.74581,0.70247 -7.51054,0.60282 -6.46347,2.73776 l 0.72637,1.48104 -0.56756,1.81295 c -0.31216,0.99713 -0.75068,2.99094 -0.97449,4.4307 -0.22381,1.43976 -0.64019,3.10663 -0.92528,3.70417 l -0.51833,1.08642 0.15287,-1.38906 c 0.0982,-0.89207 0.0533,-1.38906 -0.12538,-1.38906 -0.48114,0 -1.56697,2.14756 -4.16926,8.24601 -4.10749,9.62585 -6.16649,13.38381 -7.81702,14.26714 -0.58387,0.31248 -0.58812,0.30523 -0.18462,-0.31488 0.96255,-1.47927 1.27376,-3.94202 0.49815,-3.94202 -0.39734,0 -2.12157,3.81035 -2.12157,4.68843 0,0.43805 -0.22176,1.0804 -0.4928,1.42745 -0.86907,1.11278 -1.55798,2.69865 -3.04277,7.00443 -0.79844,2.31545 -1.82778,5.04333 -2.28741,6.06198 -1.25969,2.79175 -1.10195,4.90321 0.36527,4.88955 0.30961,-0.003 1.36132,-0.12071 2.33714,-0.26185 z m 33.24624,-10.32504 c 0.34354,-0.2862 0.76026,-0.51772 0.92604,-0.51448 0.16578,0.003 0.004,0.23871 -0.36004,0.52328 -0.86467,0.67635 -1.37884,0.66836 -0.566,-0.009 z m 26.71143,-28.30676 c -0.17423,-1.57789 0.0365,-3.34945 0.34123,-2.8685 0.27917,0.44062 0.27539,2.81056 -0.006,3.52996 -0.15728,0.40261 -0.23503,0.24936 -0.3356,-0.66146 z m -23.79177,36.01113 c 0.54583,-0.34562 0.14232,-1.08099 -0.59317,-1.08099 -0.71162,0 -1.36879,0.62185 -1.10619,1.04675 0.20733,0.33546 1.19229,0.35531 1.69936,0.0342 z m 8.28399,-7.84222 c 1.61575,-0.55055 3.38527,-2.07946 3.38527,-2.92498 0,-1.01331 -0.60511,-1.01277 -2.51781,0.002 -0.97295,0.51632 -2.20344,1.01695 -2.73444,1.11252 -0.531,0.0956 -1.11429,0.29188 -1.29619,0.43625 -0.55707,0.44212 -0.36839,0.79574 0.35118,0.65818 0.6079,-0.1162 0.66479,-0.0621 0.52413,0.49832 -0.13245,0.52775 -0.0583,0.62868 0.46158,0.62868 0.34065,0 1.16248,-0.18505 1.82628,-0.41123 z m 19.62745,-12.78512 c 1.06525,-1.17709 0.60341,-3.75392 -0.54647,-3.04899 -0.91935,0.56361 -1.13259,3.54534 -0.25355,3.54534 0.19295,0 0.55296,-0.22336 0.80002,-0.49635 z m 2.72407,-4.59688 c 1.40398,-1.4835 3.84141,-4.78334 4.34843,-5.88698 0.60431,-1.31542 0.67768,-4.15155 0.1194,-4.61489 -0.42625,-0.35375 -0.72832,0.0493 -1.05307,1.40497 -0.33128,1.38301 -0.38712,0.59059 -0.15041,-2.13455 0.24653,-2.83818 -0.0596,-8.36399 -0.49312,-8.90143 -0.13584,-0.1684 -0.33112,-0.93202 -0.43396,-1.69693 -0.12882,-0.95822 -0.44661,-1.72867 -1.02181,-2.4773 -1.60833,-2.09326 -2.47871,-2.87882 -3.18963,-2.87882 -0.9116,0 -0.87612,0.51833 0.10584,1.54584 0.43656,0.45683 0.79375,1.02961 0.79375,1.27285 0,0.24325 0.37464,1.02611 0.83254,1.73968 1.18,1.83886 1.54187,3.68559 1.69909,8.67079 0.16817,5.33236 0.30584,6.55681 0.74927,6.66397 0.22854,0.0552 -0.12837,0.87794 -1.069,2.46416 -2.71806,4.58351 -3.18351,5.68854 -2.3961,5.68854 0.18974,0 0.71118,-0.38695 1.15878,-0.8599 z m 5.63393,-4.42044 c 0.33792,-0.63139 0.35442,-1.86341 0.0249,-1.86341 -0.3624,0 -1.03248,0.73351 -1.50522,1.64768 -0.33373,0.64536 -0.34836,0.84538 -0.0742,1.0148 0.42682,0.26379 1.19776,-0.1325 1.55449,-0.79907 z m -6.40298,-0.87452 c 0.30931,-0.32923 0.83219,-1.19244 1.16197,-1.91823 0.52098,-1.14659 0.59444,-1.71448 0.56023,-4.33095 -0.022,-1.68685 -0.16105,-3.13302 -0.31602,-3.288 -0.43813,-0.43812 -1.08255,1.43621 -1.08255,3.14865 0,1.21715 -0.19758,1.89127 -1.05833,3.61101 -1.2395,2.47645 -1.35755,3.37613 -0.443,3.37613 0.33844,0 0.8684,-0.26938 1.1777,-0.59861 z m -1.69522,-4.23004 c 0.23779,-0.88728 0.19252,-1.86763 -0.1069,-2.3151 -0.22985,-0.34352 -0.31824,-0.32783 -0.6574,0.11671 -0.3956,0.51852 -0.54153,2.29124 -0.21546,2.61732 0.35858,0.35858 0.82483,0.15922 0.97976,-0.41893 z m -56.50054,-2.35017 c 0.95545,-0.93413 1.32373,-1.9685 0.86441,-2.42782 -0.73554,-0.73555 -3.00668,1.73311 -2.59101,2.81634 0.25171,0.65594 0.77986,0.53709 1.7266,-0.38852 z m 64.86387,-0.4941 c 0.004,-1.04079 -0.48871,-2.54613 -1.05403,-3.21997 -0.4411,-0.52577 -0.55569,-0.55809 -0.77877,-0.21961 -0.46351,0.70327 0.14554,3.38609 0.97736,4.30525 0.50197,0.55467 0.85128,0.20118 0.85544,-0.86567 z m -0.8368,-4.84905 c 0.057,-0.48174 -0.0394,-0.7072 -0.30242,-0.7072 -0.46574,0 -0.74994,0.63945 -0.53415,1.20181 0.23427,0.61049 0.74123,0.31075 0.83657,-0.49461 z m -8.20643,-0.49553 c 0.17463,-0.17463 0.3175,-0.57529 0.3175,-0.89036 0,-0.67809 -0.94762,-1.96714 -1.4461,-1.96714 -0.73646,0 -0.90314,1.66688 -0.25869,2.58696 0.45995,0.65666 0.91285,0.74498 1.38729,0.27054 z m 8.46667,-1.5875 c 0.54729,-0.54729 0.3487,-1.65051 -0.46855,-2.60291 -0.65955,-0.76862 -0.83033,-0.85218 -1.06114,-0.51917 -0.29119,0.42009 -0.11288,2.19091 0.29972,2.97656 0.28279,0.53845 0.7784,0.59709 1.22997,0.14552 z m -11.95818,-0.84924 c 0.18168,-0.47346 -0.54218,-1.89534 -1.06752,-2.09693 -0.83872,-0.32185 -0.80227,1.03173 0.054,2.0069 0.4918,0.56006 0.82186,0.58938 1.01348,0.09 z m 6.12134,-2.19836 c 0.12838,-0.38514 -1.47299,-2.19115 -1.94286,-2.19115 -0.62733,0 -0.40908,0.95997 0.42006,1.84756 0.76345,0.81728 1.32283,0.94349 1.5228,0.34359 z m -7.33941,-5.32289 c 0,-1.16623 -1.73045,-2.20515 -2.25615,-1.35454 -0.23935,0.38728 0.58379,1.56057 1.27939,1.82361 0.70271,0.26573 0.97676,0.13413 0.97676,-0.46907 z m -3.07839,-1.91455 c 0.85361,-0.67145 0.88172,-1.18896 0.10183,-1.87436 l -0.59532,-0.52317 0.66146,0.12867 c 0.3638,0.0708 0.92935,0.21171 1.25677,0.31319 0.55242,0.17121 0.59532,0.10411 0.59532,-0.93114 0,-0.90644 -0.16126,-1.27642 -0.8599,-1.97295 -0.80636,-0.80393 -3.40459,-2.0002 -4.34432,-2.0002 -0.23203,0 -0.81912,-0.24552 -1.30466,-0.5456 -0.85076,-0.52579 -2.49377,-0.7954 -7.28618,-1.19561 -1.39905,-0.11684 -2.04266,-0.33105 -3.16266,-1.05262 l -1.40616,-0.90594 -2.55968,0.16775 c -2.13344,0.13981 -2.66299,0.0954 -3.18006,-0.26679 -0.7862,-0.55067 -2.19135,-0.5601 -2.73312,-0.0183 -0.22891,0.2289 -0.79398,0.46401 -1.25571,0.52244 -0.95479,0.12084 -1.41692,0.47187 -1.16271,0.8832 0.34964,0.56572 2.4791,0.92124 5.62166,0.93854 2.84656,0.0157 3.30869,0.0826 3.96875,0.57496 1.10932,0.82742 1.12557,1.42621 0.0388,1.43121 -0.48362,0.002 -1.05024,0.11222 -1.25916,0.24442 -1.12032,0.70891 2.32625,2.02137 7.65818,2.91626 1.76881,0.29687 3.4709,0.71828 3.78241,0.93648 0.31151,0.21819 0.87932,0.39671 1.26178,0.39671 1.07505,0 2.3435,0.52964 2.65287,1.10769 0.28722,0.53669 1.62427,1.24476 2.38529,1.2632 0.23504,0.006 0.74106,-0.23641 1.12448,-0.53801 z m -2.21328,-1.2881 c 0,-0.45838 0.46569,-0.54318 0.79617,-0.14499 0.27209,0.32785 0.23272,0.39396 -0.23461,0.39396 -0.30885,0 -0.56156,-0.11203 -0.56156,-0.24897 z m -2.23881,-1.69527 c -0.57833,-0.42288 -0.33521,-0.96617 0.43237,-0.96617 0.45348,0 0.52427,-0.13157 0.42709,-0.79375 -0.0641,-0.43657 -0.0857,-0.79375 -0.048,-0.79375 0.0376,0 0.33322,0.37184 0.65684,0.82631 0.53404,0.74999 0.54792,0.84897 0.1503,1.07148 -0.24094,0.13484 -0.43808,0.41784 -0.43808,0.62889 0,0.48127 -0.54225,0.49367 -1.18047,0.027 z m -5.02593,-2.53539 c -0.18073,-0.29243 0.23664,-0.60819 0.48096,-0.36387 0.25157,0.25156 0.20468,0.61017 -0.0798,0.61017 -0.13693,0 -0.31747,-0.11084 -0.40119,-0.2463 z m -98.833178,58.94722 c 0,-0.76049 2.55673,-7.78458 4.40888,-12.11249 2.65211,-6.19719 5.37123,-11.50865 7.45447,-14.56137 2.24947,-3.29632 3.77316,-5.82632 8.82197,-14.64832 4.491898,-7.84888 4.840608,-8.53844 4.442308,-8.7846 -0.13868,-0.0857 -1.165368,1.09001 -2.281518,2.6127 -1.72225,2.34957 -2.08444,2.71346 -2.3933,2.4046 -0.30886,-0.30886 -0.2612,-0.55552 0.31498,-1.62988 0.3734,-0.69626 0.60315,-0.98314 0.51055,-0.63749 -0.27092,1.01123 0.34506,0.42295 1.08398,-1.03525 0.71885,-1.41858 0.76285,-1.57757 0.43656,-1.57757 -0.12093,0 -0.37908,0.29748 -0.57367,0.66106 -0.19458,0.36358 -0.39743,0.61742 -0.45077,0.56408 -0.0983,-0.0983 7.283458,-14.60717 13.344198,-26.228274 6.05504,-11.61015 6.80104,-12.54874 9.04962,-11.38595 1.04222,0.53895 2.83977,2.64529 3.20694,3.75784 0.27769,0.84141 0.24571,0.99082 -0.34923,1.63134 -0.88545,0.9533 -2.78283,4.21555 -11.56688,19.887404 -8.75355,15.61742 -14.510358,25.69893 -19.716458,34.52812 -2.05934,3.4925 -5.44638,9.3861 -7.52675,13.09688 -4.66383,8.3189 -7.66311,13.44793 -7.97751,13.64224 -0.13111,0.081 -0.23837,-0.002 -0.23837,-0.18507 z m 25.526198,-53.19487 c 0.57872,-1.11901 0.96521,-2.12159 0.85885,-2.22795 -0.32462,-0.32462 -1.5482,1.01108 -2.20811,2.41044 -0.745928,1.58179 -0.786238,2.05222 -0.165998,1.93763 0.268888,-0.0497 0.904178,-0.93857 1.515258,-2.12012 z m -66.404328,34.79814 c -0.90323,-0.4948 -3.02321,-0.89212 -5.15937,-0.96697 -0.80037,-0.028 -1.75287,-0.21977 -2.11667,-0.42605 -0.46121,-0.26152 -1.40622,-0.35992 -3.12155,-0.32504 l -2.46009,0.05 -2.57582,-2.46489 c -1.4167,-1.35569 -3.16716,-2.86484 -3.88991,-3.35367 -0.72275,-0.48882 -1.37362,-0.93893 -1.44638,-1.00024 -0.0728,-0.0613 -0.13229,-0.48688 -0.13229,-0.94574 0,-0.65251 -0.16117,-0.91153 -0.73973,-1.18882 -1.11312,-0.53351 -2.32605,-2.36606 -4.7898996,-7.23679 -1.97212,-3.89863 -2.24765,-4.61861 -2.37945,-6.21771 -0.082,-0.99468 -0.22317,-2.57985 -0.31373,-3.52261 -0.19236,-2.00238 0.1558,-4.4735 1.2447,-8.83456 1.86334,-7.46268 4.1247296,-12.82463 6.3719296,-15.10842 2.29389,-2.33125 2.71629,-2.879024 2.85514,-3.702584 0.093,-0.55165 0.46596,-1.00845 1.25598,-1.53831 0.61804,-0.41451 1.19649,-1.04369 1.28546,-1.39816 0.0986,-0.39284 0.35317,-0.64449 0.65199,-0.64449 0.36161,0 0.59674,-0.35863 0.89616,-1.36691 0.48634,-1.63767 1.06161,-2.33726 1.92193,-2.33726 0.98265,0 1.57648,-0.43534 1.74531,-1.27946 0.10153,-0.50766 0.46781,-0.95436 1.07752,-1.3141 0.53392,-0.31502 1.26427,-1.13885 1.73074,-1.95228 0.44386,-0.77401 0.80814,-1.25846 0.80951,-1.07656 0.004,0.54336 0.92698,0.37501 1.54386,-0.28163 0.73356,-0.78085 0.75656,-1.33291 0.0461,-1.10743 -1.03252,0.32771 -0.49846,-0.11912 1.91823,-1.60493 1.34607,-0.82758 2.92444,-1.89059 3.50749,-2.36223 0.97687,-0.79022 1.10558,-0.82734 1.63951,-0.47283 0.51001,0.33864 0.75845,0.33267 2.07409,-0.0498 1.25553,-0.36499 1.80779,-0.74966 3.45156,-2.40413 1.07628,-1.08329 2.10668,-1.969988 2.28977,-1.970436 0.18309,-4.5e-4 1.12388,-0.399246 2.09065,-0.886216 0.96677,-0.486971 2.29781,-0.959423 2.95787,-1.049895 0.66007,-0.09047 2.49977,-0.584643 4.08823,-1.098159 3.35503,-1.084609 3.64706,-1.113492 4.08984,-0.404498 0.44941,0.719626 0.82128,0.667216 1.88354,-0.265457 0.94981,-0.833943 2.77124,-1.72114 3.02092,-1.471457 0.0804,0.08039 -0.0518,0.364921 -0.29376,0.632284 -0.90489,0.99989 0.4552,0.888753 2.20706,-0.180345 1.15168,-0.702825 1.89807,-0.718035 2.50174,-0.05098 0.43972,0.48588 0.50597,0.490654 1.13048,0.08146 0.86443,-0.566397 4.80473,-0.641974 5.4523,-0.104579 0.28583,0.237197 0.7435,0.302784 1.33653,0.191532 0.77925,-0.146189 0.97479,-0.06934 1.43854,0.565323 0.53295,0.729373 0.54221,0.731272 1.32469,0.271489 1.46761,-0.862359 3.65988,-0.327087 4.38234,1.070006 0.42595,0.823676 1.05323,1.103253 2.48871,1.109193 1.20686,0.005 2.29174,0.623953 4.07505,2.324945 l 1.52387,1.45353 0.94162,-0.71821 c 1.0698,-0.81598 1.84151,-1.90821 3.09295,-4.377562 0.73372,-1.447771 1.00122,-1.74312 1.70183,-1.878958 0.4572,-0.08864 1.25292,-0.42177 1.76828,-0.740279 0.77906,-0.481482 1.33512,-0.579739 3.298538,-0.582861 1.29884,-0.0021 2.676,0.07518 3.06036,0.171643 0.64571,0.162062 0.69884,0.282284 0.69884,1.581217 0,1.231677 -0.15051,1.629612 -1.21503,3.212463 -0.66827,0.993654 -1.54204,2.521017 -1.94171,3.394147 -0.89636,1.95819 -3.646028,5.63859 -5.033878,6.7378 -0.72405,0.57345 -1.16383,1.21397 -1.47335,2.14584 -0.34143,1.02796 -0.6768,1.4771 -1.4829,1.98597 -0.57293,0.36167 -1.36512,1.1357 -1.76043,1.72007 -0.39531,0.58436 -1.47306,2.13655 -2.39501,3.44931 -0.92195,1.31276 -2.04084,3.18212 -2.48643,4.15413 -0.44559,0.97201 -1.13196,2.124484 -1.52526,2.561044 -0.53476,0.59357 -0.79957,1.29421 -1.05,2.77813 -0.36169,2.14312 -1.50261,6.06497 -1.88003,6.46248 -0.13736,0.14468 -0.53265,-0.39634 -0.96658,-1.32291 -0.71226,-1.52088 -0.73322,-1.69413 -0.70213,-5.80103 0.0381,-5.028024 0.35146,-6.696044 2.22675,-11.851914 1.74426,-4.79558 1.72001,-5.07487 -0.53901,-6.20797 -4.65946,-2.33712 -11.40894,-3.24907 -17.99861,-2.43188 -4.6276,0.57388 -11.72744,2.11321 -13.38428,2.90188 -3.04694,1.45036 -5.09422,1.65867 -6.45253,0.65655 -1.11209,-0.82048 -2.11667,-0.88327 -2.11667,-0.13229 0,0.33796 0.17639,0.52916 0.48816,0.52916 0.26849,0 0.69202,0.22526 0.94117,0.50057 0.28267,0.31234 0.99587,0.5684 1.89667,0.68095 0.79401,0.0992 1.38352,0.27767 1.31002,0.39658 -0.0735,0.11892 -2.61903,1.79339 -5.65675,3.72105 -3.03772,1.92765 -6.75263,4.38143 -8.25537,5.45284 -2.46997,1.76102 -3.62244,2.34749 -3.3798,1.7199 0.0485,-0.12545 1.45741,-1.15087 3.1309,-2.2787 3.52763,-2.37739 7.35973,-5.37897 8.31169,-6.5103 0.84798,-1.00777 0.60623,-1.92751 -0.53502,-2.03552 -1.50332,-0.14228 -12.14624,7.06234 -16.04852,10.8639 -2.41941,2.356954 -3.71568,4.110464 -5.25736,7.111794 -1.06009,2.06379 -1.57578,2.77732 -2.36925,3.27821 -0.92251,0.58236 -1.08692,0.87284 -1.81829,3.21262 -0.95464,3.05403 -1.00496,3.78104 -0.27491,3.97195 0.29104,0.0761 0.52916,0.22679 0.52916,0.33484 0,0.10806 -0.40367,1.07644 -0.89706,2.15196 -1.63291,3.55957 -1.52076,4.90977 0.84372,10.15757 0.72124,1.60073 1.39595,3.30197 1.49936,3.78053 0.10341,0.47856 0.59426,1.40232 1.09079,2.05281 0.8815,1.15482 1.21905,1.86481 0.58528,1.23104 -0.17463,-0.17463 -0.47228,-0.3175 -0.66146,-0.3175 -0.66814,0 -0.32938,0.72811 0.90494,1.94503 1.7425,1.71795 2.89871,2.0168 2.24408,0.58005 -0.28977,-0.636 -0.27936,-0.6445 0.42004,-0.34312 2.01999,0.87042 3.48802,2.05703 4.08117,3.2988 l 0.60477,1.26611 2.02363,0.14373 c 1.18818,0.0844 2.21538,0.30286 2.48807,0.52916 0.5561,0.46153 2.12277,0.46786 8.49764,0.0343 6.76484,-0.46006 10.5999,-1.26793 19.2181,-4.04834 11.22085,-3.62009 17.49704,-6.25183 25.05485,-10.50603 2.15835,-1.21491 3.87899,-2.03205 3.93369,-1.86813 0.16977,0.50876 -1.4017,2.46575 -2.42129,3.01529 -0.53999,0.29104 -0.98212,0.67385 -0.98252,0.85069 -0.001,0.59485 -1.55957,2.10358 -2.83586,2.74573 -0.69624,0.3503 -1.76925,1.0834 -2.38446,1.6291 -0.61521,0.5457 -1.36203,0.99219 -1.65959,0.99219 -0.3053,0 -1.09619,0.58206 -1.81524,1.33594 -0.88728,0.93026 -1.64484,1.44749 -2.49465,1.70324 -0.67123,0.20201 -2.02992,0.86044 -3.01931,1.46318 -2.91112,1.77344 -7.52132,3.89988 -9.74989,4.49709 -3.22098,0.86316 -4.40459,1.80531 -2.96307,2.35859 0.54646,0.20974 0.49037,0.27419 -0.68339,0.78523 -1.61973,0.70521 -2.29317,0.71788 -2.29317,0.0432 0,-0.28246 -0.12944,-0.59355 -0.28763,-0.69132 -0.47357,-0.29269 -0.85947,0.33053 -0.82199,1.32748 0.0323,0.86001 -0.0257,0.93572 -0.71682,0.93572 -0.4136,0 -2.22567,0.58941 -4.02684,1.3098 -1.92389,0.76948 -4.25717,1.48269 -5.65609,1.7289 -1.30969,0.2305 -3.09563,0.6443 -3.96875,0.91956 -0.87313,0.27526 -1.82563,0.56728 -2.11667,0.64894 -0.29104,0.0817 -0.88635,-0.0472 -1.32292,-0.28634 z m -21.43298,-23.20722 c -0.54105,-1.72014 -1.46047,-3.38852 -1.95758,-3.55225 -0.90376,-0.29766 0.45752,4.65302 1.4963,5.44176 0.75413,0.5726 0.96457,-0.28941 0.46128,-1.88951 z M 9.7866824,116.97264 c 0.5807596,-1.60192 0.4227296,-1.96185 -0.48638,-1.10778 -0.67664,0.63567 -1.10323,1.91294 -0.80179,2.40067 0.3333,0.53929 0.79017,0.0807 1.28817,-1.29289 z M 22.211612,100.12133 c 1.04018,-1.010204 1.24841,-1.712424 0.50361,-1.698254 -0.56246,0.0107 -1.46701,0.73558 -1.87938,1.50611 -0.75669,1.413894 0.008,1.520664 1.37577,0.192144 z m -1.63389,-2.144944 c 0.58544,-0.52981 0.64962,-1.67878 0.0938,-1.67878 -0.45215,0 -1.29552,1.4793 -1.06033,1.85985 0.22147,0.35834 0.40942,0.32313 0.96655,-0.18107 z m 2.05692,-2.47253 c 0.46247,0 1.60194,-1.43717 1.60194,-2.02046 0,-0.96924 -0.85824,-0.7787 -1.95359,0.43372 -0.52626,0.5825 -0.95683,1.15797 -0.95683,1.27882 0,0.37872 0.35422,0.59472 0.73542,0.44844 0.20141,-0.0773 0.45928,-0.14052 0.57306,-0.14052 z m 3.65246,-0.86722 c 0.52521,-0.4064 0.40407,-1.24945 -0.17954,-1.24945 -0.8687,0 -1.69045,1.15068 -1.18366,1.65746 0.17966,0.17966 0.8712,-0.0273 1.3632,-0.40801 z m 4.98671,-1.93393 c 2.79995,-1.75718 4.60443,-3.19092 4.60443,-3.65843 0,-0.1863 -0.26789,-0.45832 -0.59531,-0.60449 -0.57133,-0.25505 -0.55163,-0.28805 0.48907,-0.8191 0.59641,-0.30434 1.8774,-0.73726 2.84664,-0.96204 2.69957,-0.62607 6.52002,-2.80827 6.52002,-3.72416 0,-0.50034 -0.17974,-0.49207 -2.91042,0.13395 -1.23692,0.28357 -2.60614,0.51937 -3.0427,0.524 -0.43657,0.005 -1.15094,0.20245 -1.5875,0.4396 -0.43657,0.23714 -1.18071,0.41127 -1.65365,0.38696 -0.79075,-0.0407 -0.8599,0.0203 -0.8599,0.75782 0,0.96068 -0.0796,0.97158 -1.52057,0.20832 -0.87613,-0.46404 -1.2259,-0.53112 -1.5875,-0.30444 -0.52505,0.32914 -0.78711,1.42732 -0.3406,1.42732 0.45732,0 -0.0921,0.85518 -1.72523,2.6855 -1.31629,1.47519 -1.97535,2.68886 -1.64144,3.02277 0.07,0.07 0.45063,0.004 0.84572,-0.14574 l 0.71834,-0.27312 -0.81394,0.98746 c -1.57046,1.90524 -0.87172,1.87977 2.25454,-0.0822 z m -5.38359,-0.0634 c 1.31879,-0.86964 3.29713,-3.47359 2.92316,-3.84756 -0.45425,-0.45425 -1.28108,-0.0232 -2.72472,1.42042 -1.45332,1.45332 -1.87494,2.2702 -1.41111,2.73403 0.26006,0.26006 0.41071,0.22193 1.21267,-0.30689 z m 15.23195,-10.1662 c -0.0555,-0.39074 -0.26639,-0.59532 -0.61372,-0.59532 -0.34732,0 -0.55822,0.20458 -0.61371,0.59532 -0.0694,0.48833 0.0409,0.59531 0.61371,0.59531 0.57279,0 0.68307,-0.10698 0.61372,-0.59531 z m 7.32378,-0.8599 c 0,-0.65337 -0.86301,-0.82706 -1.56369,-0.31471 -0.69513,0.50829 -0.28909,1.02372 0.72863,0.92493 0.63165,-0.0613 0.83506,-0.20995 0.83506,-0.61022 z m -3.10885,-2.79155 c 1.4047,-0.60709 1.51819,-1.30949 0.21158,-1.30949 -0.58724,0 -1.01195,-0.16517 -1.19058,-0.46302 -0.2569,-0.42835 -0.31732,-0.41625 -0.8069,0.1616 -0.30668,0.36198 -0.52921,1.00918 -0.52921,1.53919 0,1.02592 0.10008,1.02903 2.31511,0.0717 z m 151.370978,41.283764 -0.62462,-0.53383 0.92388,0.0708 c 0.63442,0.0486 0.95135,0.21587 1.01158,0.53383 0.11859,0.62598 -0.53698,0.59056 -1.31084,-0.0708 z m -1.55066,-1.73717 c 0,-0.46724 0.56958,-0.38587 0.73311,0.10473 0.0576,0.1728 -0.0838,0.31419 -0.31419,0.31419 -0.23041,0 -0.41892,-0.18852 -0.41892,-0.41892 z M 17.365512,116.6705 c 0,-0.21828 0.11542,-0.57547 0.25648,-0.79375 0.22799,-0.35277 0.25648,-0.35277 0.25648,0 0,0.21828 -0.11541,0.57547 -0.25648,0.79375 -0.22798,0.35278 -0.25648,0.35278 -0.25648,0 z m 7.9294,-13.46252 c 0,-0.14552 0.11906,-0.33817 0.26458,-0.4281 0.14552,-0.0899 0.26459,-0.0445 0.26459,0.10106 0,0.14552 -0.11907,0.33817 -0.26459,0.4281 -0.14552,0.0899 -0.26458,0.0445 -0.26458,-0.10106 z m 2.43979,-1.66205 c 0.0565,-0.16955 0.38267,-0.49413 0.7248,-0.72129 0.59965,-0.39815 0.6113,-0.39295 0.32358,0.14467 -0.32329,0.60406 -1.22236,1.09857 -1.04838,0.57662 z m 12.37688,-11.862934 c 0,-0.14552 0.11906,-0.26458 0.26458,-0.26458 0.14552,0 0.26458,0.11906 0.26458,0.26458 0,0.14552 -0.11906,0.26459 -0.26458,0.26459 -0.14552,0 -0.26458,-0.11907 -0.26458,-0.26459 z m -14.81667,-2.11666 c 0,-0.14553 0.12609,-0.26459 0.2802,-0.26459 0.15411,0 0.20661,0.11906 0.11668,0.26459 -0.0899,0.14552 -0.21603,0.26458 -0.2802,0.26458 -0.0642,0 -0.11668,-0.11906 -0.11668,-0.26458 z m 12.43542,-8.47322 c 0,-0.24549 1.09584,-0.7999 1.53858,-0.7784 0.26349,0.0128 -1.02393,1.04953 -1.30331,1.04953 -0.1294,0 -0.23527,-0.12201 -0.23527,-0.27113 z"
       style="fill:#000000;stroke-width:0.264583" />
  </g>
</svg>
