<?xml version="1.0" encoding="UTF-8" standalone="no"?>
<svg
   xmlns:dc="http://purl.org/dc/elements/1.1/"
   xmlns:cc="http://creativecommons.org/ns#"
   xmlns:rdf="http://www.w3.org/1999/02/22-rdf-syntax-ns#"
   xmlns:svg="http://www.w3.org/2000/svg"
   xmlns="http://www.w3.org/2000/svg"
   xmlns:sodipodi="http://sodipodi.sourceforge.net/DTD/sodipodi-0.dtd"
   xmlns:inkscape="http://www.inkscape.org/namespaces/inkscape"
   width="325.29764mm"
   height="360.32996mm"
   viewBox="0 0 325.29763 360.32996"
   version="1.1"
   id="svg44"
   inkscape:version="1.0 (4035a4fb49, 2020-05-01)"
   sodipodi:docname="Perfil.svg">
  <defs
     id="defs38" />
  <sodipodi:namedview
     id="base"
     pagecolor="#ffffff"
     bordercolor="#666666"
     borderopacity="1.0"
     inkscape:pageopacity="0.0"
     inkscape:pageshadow="2"
     inkscape:zoom="0.35"
     inkscape:cx="675.05636"
     inkscape:cy="798.88709"
     inkscape:document-units="mm"
     inkscape:current-layer="layer1"
     inkscape:document-rotation="0"
     showgrid="false"
     inkscape:window-width="1920"
     inkscape:window-height="1001"
     inkscape:window-x="-9"
     inkscape:window-y="41"
     inkscape:window-maximized="1" />
  <metadata
     id="metadata41">
    <rdf:RDF>
      <cc:Work
         rdf:about="">
        <dc:format>image/svg+xml</dc:format>
        <dc:type
           rdf:resource="http://purl.org/dc/dcmitype/StillImage" />
        <dc:title />
      </cc:Work>
    </rdf:RDF>
  </metadata>
  <g
     inkscape:label="Layer 1"
     inkscape:groupmode="layer"
     id="layer1"
     transform="translate(72.775328,63.205542)">
    <path
       id="path52"
       d="m -6.4194919,296.84824 c 48.5370199,-0.17523 72.5458599,-0.42701 65.6119999,-0.68826 -11.65283,-0.43907 -29.65169,-1.64364 -39.0938,-2.61633 -31.80444,-3.27631 -63.443919,-10.19196 -81.602769,-17.83644 -4.80274,-2.02184 -6.27567,-2.92798 -8.06651,-4.96249 -1.20499,-1.36896 -2.45478,-3.37617 -2.7773,-4.46046 -0.39332,-1.3223 -0.51413,-9.71327 -0.36689,-25.48244 0.21459,-22.97996 0.2518,-23.65296 1.64809,-29.79878 1.9673,-8.6592 4.07757,-14.55652 8.04485,-22.48203 10.53826,-21.05254 28.411059,-37.13495 50.661729,-45.58681 7.9891201,-3.03464 20.4168601,-5.62974 23.86373,-4.9831 1.03107,0.19343 3.94433,1.79572 6.47389,3.56065 11.85256,8.26982 29.8334,15.91685 45.59474,19.39091 14.83841,3.27064 35.30623,3.38486 50.843642,0.2837 16.183,-3.22999 34.72351,-10.94894 47.18804,-19.64572 2.55231,-1.78082 5.48418,-3.39611 6.51527,-3.58954 3.48188,-0.65321 15.78587,1.93104 24.10799,5.06349 14.40522,5.42211 28.58656,15.493 38.32455,27.21626 5.70723,6.8707 8.46622,11.03099 12.0694,18.19931 4.94464,9.83715 7.48673,17.86005 9.05787,28.58731 1.1375,7.76642 1.1189,47.20775 -0.0235,49.94201 -2.03841,4.87857 -5.98501,7.44045 -17.79477,11.55115 -25.1048,8.73842 -58.97035,14.52007 -99.31989,16.9563 -7.57603,0.45744 -16.18761,0.89194 -19.13682,0.9656 -2.94925,0.0736 29.94521,0.25942 73.09875,0.41286 47.90995,0.17028 10.33324,0.27897 -96.504292,0.27903 -103.04221,2e-5 -143.498956,-0.11346 -98.4179799,-0.27618 z M 74.775348,129.00654 C 52.815828,125.28503 35.033378,115.86143 19.751528,99.847343 0.8380381,80.027593 -8.8189219,52.054973 -6.1699419,24.762503 c 2.82115,-29.0664649 18.4595599,-55.287495 42.6716399,-71.547895 11.9887,-8.05141 29.28051,-14.29494 42.87992,-15.48259 2.42845,-0.21209 -33.10648,-0.50981 -78.9665099,-0.66162 -53.3562791,-0.17668 -20.3773201,-0.27598 91.5833899,-0.27594 114.848292,4e-5 145.564332,0.0949 89.396312,0.276 -47.80683,0.15417 -83.517972,0.46745 -80.92143,0.70987 13.90087,1.29786 30.47049,7.30157 42.64778,15.45271 29.04991,19.44518 45.62116,53.5104401 42.76374,87.908855 -0.72088,8.67831 -3.34183,20.3995 -6.14424,27.47783 -2.60519,6.58019 -7.27553,15.22691 -11.34334,21.00115 -4.40646,6.25497 -15.09518,17.160197 -21.33609,21.768287 -12.66753,9.35329 -27.59071,15.44913 -43.71374,17.85627 -7.593902,1.13376 -21.140922,1.02049 -28.572142,-0.23889 z m 24.33111,-32.298937 c 17.433442,-2.48861 32.518202,-12.48851 36.052632,-23.89977 l 0.38103,-1.23024 H 89.811418 44.082728 l 0.38104,1.23024 c 2.798,9.03364 13.20462,17.56139 26.7576,21.92665 7.1496,2.30281 19.46902,3.1745 27.88509,1.97312 z"
       style="fill:#000000;stroke-width:0.546767" />
  </g>
</svg>
