<?xml version="1.0" encoding="UTF-8" standalone="no"?>
<svg
   xmlns:dc="http://purl.org/dc/elements/1.1/"
   xmlns:cc="http://creativecommons.org/ns#"
   xmlns:rdf="http://www.w3.org/1999/02/22-rdf-syntax-ns#"
   xmlns:svg="http://www.w3.org/2000/svg"
   xmlns="http://www.w3.org/2000/svg"
   xmlns:sodipodi="http://sodipodi.sourceforge.net/DTD/sodipodi-0.dtd"
   xmlns:inkscape="http://www.inkscape.org/namespaces/inkscape"
   sodipodi:docname="Relogio.svg"
   inkscape:version="1.0 (4035a4fb49, 2020-05-01)"
   id="svg1460"
   version="1.1"
   viewBox="0 0 126.80583 126.87077"
   height="126.87077mm"
   width="126.80583mm">
  <defs
     id="defs1454" />
  <sodipodi:namedview
     inkscape:window-maximized="1"
     inkscape:window-y="41"
     inkscape:window-x="-9"
     inkscape:window-height="1001"
     inkscape:window-width="1920"
     showgrid="false"
     inkscape:document-rotation="0"
     inkscape:current-layer="layer1"
     inkscape:document-units="mm"
     inkscape:cy="338.10261"
     inkscape:cx="259.83889"
     inkscape:zoom="0.35"
     inkscape:pageshadow="2"
     inkscape:pageopacity="0.0"
     borderopacity="1.0"
     bordercolor="#666666"
     pagecolor="#ffffff"
     id="base" />
  <metadata
     id="metadata1457">
    <rdf:RDF>
      <cc:Work
         rdf:about="">
        <dc:format>image/svg+xml</dc:format>
        <dc:type
           rdf:resource="http://purl.org/dc/dcmitype/StillImage" />
        <dc:title></dc:title>
      </cc:Work>
    </rdf:RDF>
  </metadata>
  <g
     transform="translate(-37.084293,-58.71035)"
     id="layer1"
     inkscape:groupmode="layer"
     inkscape:label="Layer 1">
    <path
       id="path1490"
       d="m 95.779183,185.50957 c -6.5447,-0.74727 -9.51385,-1.33231 -14.12838,-2.78383 -31.03551,-9.7624 -49.56759,-40.89166 -43.37964,-72.86696 1.1732,-6.06232 3.80587,-13.25665 6.77747,-18.520831 11.88184,-21.048734 33.96158,-33.506566 57.742007,-32.579211 16.32277,0.636532 31.07274,7.029253 42.4837,18.412674 10.05449,10.030234 16.15176,22.352247 18.26937,36.920698 0.45684,3.14293 0.46329,12.76772 0.0107,16.0073 -2.25226,16.12218 -9.90542,30.25935 -21.82575,40.31725 -9.22668,7.78511 -20.03068,12.68695 -32.18081,14.60063 -2.40684,0.37908 -11.814317,0.71544 -13.768697,0.49228 z M 108.3736,169.67479 c 20.33672,-3.43334 36.25199,-19.36263 39.67272,-39.70767 2.76916,-16.46978 -3.58434,-33.750387 -16.35183,-44.474611 -5.82653,-4.894069 -12.27493,-8.216564 -19.37885,-9.984827 -4.62721,-1.151775 -6.38689,-1.354161 -11.77396,-1.354161 -5.387067,0 -7.146747,0.202386 -11.773957,1.354161 -15.78321,3.928656 -28.68964,15.881675 -33.85887,31.357688 -8.12122,24.31389 4.20239,50.69834 28.08127,60.12108 2.93301,1.15739 7.66031,2.40595 10.5401,2.78384 1.16417,0.15276 2.47386,0.32849 2.91042,0.39051 1.62777,0.23127 9.609997,-0.0939 11.932957,-0.48601 z m -9.884857,-4.38437 c -2.04048,-1.2441 -2.57058,-4.04524 -1.13941,-6.0209 1.7568,-2.4252 5.729667,-2.10484 6.996187,0.56414 0.90431,1.9057 0.29556,4.25416 -1.39557,5.38391 -1.17427,0.78446 -3.238777,0.81817 -4.461207,0.0728 z m -0.19602,-35.30597 c -0.43656,-0.19736 -4.44517,-4.03247 -8.90802,-8.52246 -7.16502,-7.20859 -8.15029,-8.3001 -8.42207,-9.33024 -0.93076,-3.52789 2.22769,-6.67105 5.82072,-5.79252 1.05982,0.25914 1.85987,0.95471 7.28272,6.33169 l 6.092097,6.04057 10.31201,-10.31455 c 5.6716,-5.673 10.68721,-10.492592 11.1458,-10.710206 0.45859,-0.217612 1.32564,-0.395661 1.92679,-0.395661 3.56874,0 5.77817,3.478827 4.28498,6.746877 -0.52543,1.14997 -19.77066,20.38235 -23.88325,23.86729 -2.96463,2.51219 -3.9181,2.86296 -5.651777,2.07921 z m -38.36458,-3.77915 c -0.91416,-0.22208 -2.29006,-1.43131 -2.67391,-2.34998 -0.76582,-1.83285 -0.25432,-3.79421 1.29832,-4.97847 2.75038,-2.09782 6.63673,-0.188 6.63673,3.26141 0,2.74724 -2.55709,4.72396 -5.26114,4.06704 z m 78.438867,-0.40537 c -1.2708,-0.64083 -2.37116,-2.32909 -2.37116,-3.63802 0,-1.19842 1.10554,-2.9917 2.24896,-3.64801 2.8599,-1.64156 6.521,0.77395 6.15082,4.05817 -0.16552,1.46855 -1.06664,2.70419 -2.42048,3.31903 -1.4256,0.64742 -2.18133,0.62833 -3.60814,-0.0912 z M 98.736493,86.262468 c -2.78143,-1.370616 -2.92623,-5.595982 -0.24775,-7.229074 1.22243,-0.745323 3.286937,-0.71161 4.461207,0.07285 2.49638,1.667693 2.41438,5.445746 -0.15084,6.949061 -1.30222,0.763154 -2.78128,0.838576 -4.062617,0.207164 z"
       style="fill:#000000;stroke-width:0.264583" />
  </g>
</svg>
