<?xml version="1.0" encoding="UTF-8" standalone="no"?>
<svg
   xmlns:dc="http://purl.org/dc/elements/1.1/"
   xmlns:cc="http://creativecommons.org/ns#"
   xmlns:rdf="http://www.w3.org/1999/02/22-rdf-syntax-ns#"
   xmlns:svg="http://www.w3.org/2000/svg"
   xmlns="http://www.w3.org/2000/svg"
   xmlns:sodipodi="http://sodipodi.sourceforge.net/DTD/sodipodi-0.dtd"
   xmlns:inkscape="http://www.inkscape.org/namespaces/inkscape"
   width="345.86163mm"
   height="390.31964mm"
   viewBox="0 0 345.86164 390.31964"
   version="1.1"
   id="svg41"
   inkscape:version="1.0 (4035a4fb49, 2020-05-01)"
   sodipodi:docname="RemoveAmigo.svg">
  <defs
     id="defs35" />
  <sodipodi:namedview
     id="base"
     pagecolor="#ffffff"
     bordercolor="#666666"
     borderopacity="1.0"
     inkscape:pageopacity="0.0"
     inkscape:pageshadow="2"
     inkscape:zoom="0.35"
     inkscape:cx="844.39159"
     inkscape:cy="477.04309"
     inkscape:document-units="mm"
     inkscape:current-layer="layer1"
     inkscape:document-rotation="0"
     showgrid="false"
     inkscape:window-width="1920"
     inkscape:window-height="1001"
     inkscape:window-x="-9"
     inkscape:window-y="41"
     inkscape:window-maximized="1" />
  <metadata
     id="metadata38">
    <rdf:RDF>
      <cc:Work
         rdf:about="">
        <dc:format>image/svg+xml</dc:format>
        <dc:type
           rdf:resource="http://purl.org/dc/dcmitype/StillImage" />
        <dc:title />
      </cc:Work>
    </rdf:RDF>
  </metadata>
  <g
     inkscape:label="Layer 1"
     inkscape:groupmode="layer"
     id="layer1"
     transform="translate(117.57861,-21.949015)">
    <path
       style="fill:#000000;stroke-width:0.546767"
       d="m -51.222771,382.0028 c 48.5370133,-0.17524 72.545853,-0.42702 65.612003,-0.68827 -11.6528297,-0.43907 -29.6517,-1.64364 -39.093803,-2.61633 -31.804441,-3.27631 -63.443921,-10.19196 -81.602769,-17.83643 -4.80274,-2.02184 -6.27567,-2.92799 -8.06651,-4.9625 -1.20499,-1.36896 -2.45478,-3.37616 -2.7773,-4.46045 -0.39332,-1.32231 -0.51413,-9.71328 -0.36689,-25.48245 0.21459,-22.97996 0.2518,-23.65295 1.64809,-29.79878 1.9673,-8.6592 4.07757,-14.55652 8.04485,-22.48203 10.538257,-21.05254 28.411056,-37.13495 50.661729,-45.58681 7.98912,-3.03464 20.416859,-5.62974 23.863729,-4.9831 1.03107,0.19343 3.944331,1.79572 6.473891,3.56065 11.852553,8.26982 29.8334033,15.91685 45.594743,19.39091 14.83841,3.27064 35.30623,3.38486 50.84364,0.2837 16.18299,-3.22999 34.723508,-10.94894 47.188028,-19.64572 2.55232,-1.78082 5.48419,-3.39611 6.51528,-3.58954 3.48188,-0.65321 15.78587,1.93104 24.10799,5.06349 14.40521,5.42211 28.58656,15.493 38.32455,27.21626 5.70722,6.8707 8.46622,11.03099 12.06939,18.19931 4.94464,9.83715 7.48673,17.86005 9.05788,28.58731 1.1375,7.76642 1.1189,47.20776 -0.0236,49.94201 -2.0384,4.87858 -5.98501,7.44046 -17.79476,11.55116 -25.10481,8.73842 -58.97035,14.52006 -99.319898,16.95629 -7.57602,0.45744 -16.1876,0.89194 -19.13681,0.9656 -2.94926,0.0736 29.945198,0.25943 73.098738,0.41286 47.90995,0.17028 10.33325,0.27897 -96.504278,0.27903 -103.042221,2e-5 -143.498962,-0.11346 -98.41799,-0.27617 z M 29.972062,214.16109 c -21.9595097,-3.72151 -39.7419697,-13.1451 -55.023814,-29.1592 -18.913491,-19.81975 -28.570449,-47.79236 -25.92147,-75.08484 2.821149,-29.066456 18.459561,-55.287485 42.6716343,-71.547888 11.98871,-8.051407 29.2805097,-14.294937 42.8799197,-15.482587 2.42845,-0.21209 -33.1064797,-0.50981 -78.966503,-0.66162 -53.356282,-0.17668 -20.377322,-0.27598 91.583393,-0.27594 114.848288,4e-5 145.564318,0.0949 89.396308,0.276 -47.806828,0.15417 -83.517978,0.46745 -80.921438,0.70987 13.90088,1.29786 30.4705,7.30157 42.64779,15.45271 29.049898,19.44518 45.621148,53.510449 42.763738,87.908845 -0.72089,8.67831 -3.34183,20.39951 -6.14424,27.47783 -2.6052,6.58019 -7.27553,15.22692 -11.34335,21.00116 -4.40646,6.25496 -15.09518,17.16019 -21.33608,21.76828 -12.667538,9.35329 -27.590718,15.44913 -43.713738,17.85627 -7.5939,1.13376 -21.14093,1.02049 -28.57215,-0.23889 z m 24.33111,-32.29894 c 17.43345,-2.48861 32.51821,-12.48851 36.05264,-23.89977 l 0.38102,-1.23024 H 45.008142 -0.72055773 l 0.38104,1.23024 c 2.79801003,9.03364 13.20462973,17.5614 26.75759973,21.92665 7.1496,2.30281 19.46903,3.17451 27.88509,1.97312 z"
       id="path52" />
    <circle
       r="75.595238"
       cy="336.67343"
       cx="152.68779"
       id="path926-3"
       style="fill:#ff5722;fill-opacity:1;stroke:none;stroke-width:7.99999" />
    <path
       style="fill:#000000;stroke-width:0.904661"
       d="m 138.90601,394.79132 c -32.965,-8.79861 -51.667238,-43.3324 -40.979758,-75.66935 5.795958,-17.53677 19.996568,-31.66771 37.619388,-37.43485 6.27528,-2.05361 9.04978,-2.43732 17.83493,-2.46651 12.12948,-0.0403 17.57487,1.28345 28.4157,6.90783 12.26648,6.36401 22.18129,17.94673 27.46965,32.09072 3.06472,8.19677 3.87236,24.93891 1.62668,33.72054 -2.74571,10.73703 -7.36825,18.64519 -15.86547,27.14241 -8.42201,8.42201 -16.3276,13.05611 -26.85027,15.73906 -7.00415,1.78586 -22.52744,1.77004 -29.27085,-0.0298 z m 21.03334,-26.64391 c 2.38435,-2.58384 2.4878,-3.09038 2.4878,-12.18059 v -9.48468 h 9.37694 c 8.19968,0 9.68465,-0.24207 11.82812,-1.92813 3.38738,-2.66448 4.4169,-5.75579 3.17257,-9.52616 -1.50527,-4.56099 -4.60907,-5.73424 -15.16989,-5.73424 h -8.97533 l -0.4517,-9.7251 c -0.52607,-11.32594 -0.89058,-12.48323 -4.52352,-14.3619 -3.59701,-1.8601 -8.21095,-0.95515 -10.5972,2.07849 -1.60191,2.03649 -1.84851,3.6509 -1.84851,12.1014 v 9.75141 l -10.31137,0.304 c -11.5587,0.34081 -13.62127,1.27852 -14.62915,6.65094 -0.63012,3.35886 1.35014,7.97991 3.87372,9.03952 0.88914,0.37332 5.9929,0.88204 11.3417,1.13048 l 9.7251,0.4517 v 8.88783 c 0,10.14021 1.02088,13.22488 4.95369,14.9679 3.64418,1.61512 6.72824,0.84849 9.74703,-2.42287 z m -56.7674,-89.51475 c -0.30751,-0.49756 0.30313,-0.90466 1.35699,-0.90466 1.05385,0 1.6645,0.4071 1.35699,0.90466 -0.30751,0.49756 -0.91816,0.90466 -1.35699,0.90466 -0.43884,0 -1.04948,-0.4071 -1.35699,-0.90466 z"
       id="path36" />
    <rect
       y="303.99496"
       x="132.64163"
       height="25.702381"
       width="48.893002"
       id="rect20"
       style="fill:#000000;stroke:none;stroke-width:7.99999" />
    <rect
       style="fill:#000000;stroke:none;stroke-width:7.99999"
       id="rect20-1"
       width="48.893002"
       height="25.702381"
       x="130.11774"
       y="345.9502" />
    <rect
       style="fill:#000000;stroke:none;stroke-width:19.6649"
       id="rect20-3"
       width="106.85764"
       height="71.059525"
       x="-13.328047"
       y="118.17857" />
  </g>
</svg>
