<?xml version="1.0" encoding="UTF-8" standalone="no"?>
<svg
   xmlns:dc="http://purl.org/dc/elements/1.1/"
   xmlns:cc="http://creativecommons.org/ns#"
   xmlns:rdf="http://www.w3.org/1999/02/22-rdf-syntax-ns#"
   xmlns:svg="http://www.w3.org/2000/svg"
   xmlns="http://www.w3.org/2000/svg"
   xmlns:sodipodi="http://sodipodi.sourceforge.net/DTD/sodipodi-0.dtd"
   xmlns:inkscape="http://www.inkscape.org/namespaces/inkscape"
   width="200mm"
   height="200mm"
   viewBox="0 0 200 200"
   version="1.1"
   id="svg68"
   inkscape:version="1.0 (4035a4fb49, 2020-05-01)"
   sodipodi:docname="Seta.svg">
  <defs
     id="defs62" />
  <sodipodi:namedview
     id="base"
     pagecolor="#ffffff"
     bordercolor="#666666"
     borderopacity="1.0"
     inkscape:pageopacity="0.0"
     inkscape:pageshadow="2"
     inkscape:zoom="0.35"
     inkscape:cx="380.90603"
     inkscape:cy="375.04887"
     inkscape:document-units="mm"
     inkscape:current-layer="layer1"
     inkscape:document-rotation="0"
     showgrid="false"
     inkscape:window-width="1920"
     inkscape:window-height="1001"
     inkscape:window-x="-9"
     inkscape:window-y="41"
     inkscape:window-maximized="1" />
  <metadata
     id="metadata65">
    <rdf:RDF>
      <cc:Work
         rdf:about="">
        <dc:format>image/svg+xml</dc:format>
        <dc:type
           rdf:resource="http://purl.org/dc/dcmitype/StillImage" />
        <dc:title />
      </cc:Work>
    </rdf:RDF>
  </metadata>
  <g
     inkscape:label="Layer 1"
     inkscape:groupmode="layer"
     id="layer1"
     transform="translate(-5.0519464,-48.934985)">
    <path
       style="fill:#1a1a1a;stroke-width:13.85999965;stroke-miterlimit:4;stroke-dasharray:none;paint-order:stroke fill markers"
       d="M 91.757461,248.11385 C 53.543521,243.33987 19.876561,214.25942 8.9649014,176.60033 -6.3346786,123.79725 24.608901,68.025233 77.750101,52.623354 c 22.111,-6.408423 48.284079,-4.375399 69.422319,5.392452 19.98012,9.232685 38.43072,27.401663 47.93172,47.200204 16.04356,33.43197 12.46274,73.50704 -9.1619,102.53624 -22.34416,29.99507 -57.29028,44.97074 -94.184779,40.3616 z m 28.950919,-16.09007 c 30.985,-5.18175 58.08392,-30.445 66.37878,-61.88224 3.22118,-12.20825 3.22246,-30.32882 0.002,-42.50449 -7.75768,-29.338455 -31.38712,-52.971209 -60.72142,-60.729989 -12.17396,-3.219954 -30.291979,-3.218694 -42.498519,0.003 -14.24744,3.760394 -27.87014,11.63586 -38.47708,22.244276 -33.36264,33.367333 -33.14648,86.690783 0.4861,119.923693 19.8495,19.6136 46.28418,27.71957 74.829479,22.94581 z M 65.694801,182.74969 c -3.52944,-1.53414 -5.10938,-5.03545 -3.87296,-8.5828 1.18908,-3.41151 36.42458,-64.06205 38.451279,-66.18586 2.4746,-2.59318 6.7136,-2.20279 9.6742,0.89092 2.66764,2.78761 36.96438,60.97631 38.44718,65.23044 1.29582,3.71768 -0.28618,7.11412 -4.04568,8.68511 -4.49874,1.87997 -74.319199,1.8464 -78.654019,-0.0378 z"
       id="path84" />
  </g>
</svg>
