<?xml version="1.0" encoding="UTF-8" standalone="no"?>
<svg
   xmlns:dc="http://purl.org/dc/elements/1.1/"
   xmlns:cc="http://creativecommons.org/ns#"
   xmlns:rdf="http://www.w3.org/1999/02/22-rdf-syntax-ns#"
   xmlns:svg="http://www.w3.org/2000/svg"
   xmlns="http://www.w3.org/2000/svg"
   xmlns:sodipodi="http://sodipodi.sourceforge.net/DTD/sodipodi-0.dtd"
   xmlns:inkscape="http://www.inkscape.org/namespaces/inkscape"
   sodipodi:docname="SetaItem.svg"
   inkscape:version="1.0 (4035a4fb49, 2020-05-01)"
   id="svg852"
   version="1.1"
   viewBox="0 0 106.58929 93.738091"
   height="93.738091mm"
   width="106.58929mm">
  <defs
     id="defs846">
    <clipPath
       id="clipPath864"
       clipPathUnits="userSpaceOnUse">
      <rect
         y="92.226196"
         x="51.404762"
         height="93.738091"
         width="106.58929"
         id="rect866"
         style="fill:#ffaaaa;stroke:#000000;stroke-width:13.86;paint-order:stroke fill markers" />
    </clipPath>
    <clipPath
       id="clipPath864-5"
       clipPathUnits="userSpaceOnUse">
      <rect
         y="92.226196"
         x="51.404762"
         height="93.738091"
         width="106.58929"
         id="rect866-2"
         style="fill:#ffaaaa;stroke:#000000;stroke-width:13.86;paint-order:stroke fill markers" />
    </clipPath>
  </defs>
  <sodipodi:namedview
     inkscape:window-maximized="1"
     inkscape:window-y="41"
     inkscape:window-x="-9"
     inkscape:window-height="1001"
     inkscape:window-width="1920"
     showgrid="false"
     inkscape:document-rotation="0"
     inkscape:current-layer="layer1"
     inkscape:document-units="mm"
     inkscape:cy="228.57144"
     inkscape:cx="217.14286"
     inkscape:zoom="0.35"
     inkscape:pageshadow="2"
     inkscape:pageopacity="0.0"
     borderopacity="1.0"
     bordercolor="#666666"
     pagecolor="#ffffff"
     id="base" />
  <metadata
     id="metadata849">
    <rdf:RDF>
      <cc:Work
         rdf:about="">
        <dc:format>image/svg+xml</dc:format>
        <dc:type
           rdf:resource="http://purl.org/dc/dcmitype/StillImage" />
        <dc:title></dc:title>
      </cc:Work>
    </rdf:RDF>
  </metadata>
  <g
     transform="translate(-48.380951,-87.690473)"
     id="layer1"
     inkscape:groupmode="layer"
     inkscape:label="Layer 1">
    <path
       transform="rotate(180,103.1875,136.82738)"
       clip-path="url(#clipPath864)"
       id="path84"
       d="M 91.782896,239.03006 C 53.568953,234.25608 19.901994,205.17563 8.9903342,167.51654 -6.3092458,114.71345 24.634334,58.941433 77.775534,43.539554 c 22.111002,-6.408423 48.284076,-4.375399 69.422316,5.392452 19.98013,9.232685 38.43073,27.401662 47.93173,47.200203 16.04356,33.431971 12.46274,73.507051 -9.1619,102.536251 -22.34416,29.99507 -57.29029,44.97074 -94.184784,40.3616 z m 28.950914,-16.09007 c 30.98501,-5.18175 58.08393,-30.445 66.37878,-61.88224 3.22118,-12.20825 3.22247,-30.32883 0.002,-42.5045 -7.75767,-29.338451 -31.38711,-52.971209 -60.72142,-60.729989 -12.17396,-3.219954 -30.291975,-3.218694 -42.498517,0.003 -14.247439,3.760394 -27.870139,11.63586 -38.477079,22.244278 -33.36264,33.367331 -33.14648,86.690791 0.486101,119.923701 19.849499,19.6136 46.284179,27.71957 74.829485,22.94581 z M 65.720234,173.6659 c -3.529439,-1.53414 -5.10938,-5.03545 -3.872961,-8.5828 1.18908,-3.41152 36.424582,-64.06206 38.451277,-66.185871 2.4746,-2.59318 6.7136,-2.20279 9.6742,0.89092 2.66765,2.787611 36.96438,60.976321 38.44719,65.230451 1.29581,3.71767 -0.28619,7.11412 -4.04568,8.68511 -4.49874,1.87997 -74.319207,1.8464 -78.654026,-0.0378 z"
       style="fill:#1a1a1a;stroke-width:13.86;stroke-miterlimit:4;stroke-dasharray:none;paint-order:stroke fill markers" />
  </g>
</svg>
