<?xml version="1.0" encoding="UTF-8" standalone="no"?>
<svg
   xmlns:dc="http://purl.org/dc/elements/1.1/"
   xmlns:cc="http://creativecommons.org/ns#"
   xmlns:rdf="http://www.w3.org/1999/02/22-rdf-syntax-ns#"
   xmlns:svg="http://www.w3.org/2000/svg"
   xmlns="http://www.w3.org/2000/svg"
   xmlns:sodipodi="http://sodipodi.sourceforge.net/DTD/sodipodi-0.dtd"
   xmlns:inkscape="http://www.inkscape.org/namespaces/inkscape"
   sodipodi:docname="Visto.svg"
   inkscape:version="1.0 (4035a4fb49, 2020-05-01)"
   id="svg1507"
   version="1.1"
   viewBox="0 0 48.63969 51.146153"
   height="51.146152mm"
   width="48.63969mm">
  <defs
     id="defs1501" />
  <sodipodi:namedview
     inkscape:window-maximized="1"
     inkscape:window-y="41"
     inkscape:window-x="-9"
     inkscape:window-height="1001"
     inkscape:window-width="1920"
     showgrid="false"
     inkscape:document-rotation="0"
     inkscape:current-layer="layer1"
     inkscape:document-units="mm"
     inkscape:cy="296.94546"
     inkscape:cx="165.42857"
     inkscape:zoom="0.35"
     inkscape:pageshadow="2"
     inkscape:pageopacity="0.0"
     borderopacity="1.0"
     bordercolor="#666666"
     pagecolor="#ffffff"
     id="base" />
  <metadata
     id="metadata1504">
    <rdf:RDF>
      <cc:Work
         rdf:about="">
        <dc:format>image/svg+xml</dc:format>
        <dc:type
           rdf:resource="http://purl.org/dc/dcmitype/StillImage" />
        <dc:title></dc:title>
      </cc:Work>
    </rdf:RDF>
  </metadata>
  <g
     transform="translate(-62.06369,-69.599848)"
     id="layer1"
     inkscape:groupmode="layer"
     inkscape:label="Layer 1">
    <path
       id="path1574"
       d="m 78.393104,119.95868 c -1.1507,-1.53567 -13.64616,-18.72664 -13.841996,-19.04351 -0.248012,-0.40129 -0.428604,-0.51518 6.440368,4.06169 l 5.885078,3.92129 0.99409,-1.61344 c 4.05637,-6.58364 9.94657,-14.824227 14.64045,-20.482474 3.13748,-3.782086 11.491906,-12.044003 15.051326,-14.884671 1.66821,-1.331349 3.08046,-2.373287 3.13833,-2.315418 0.0579,0.05787 -0.8474,1.167677 -2.0117,2.466242 -10.373396,11.569606 -19.853556,26.741278 -27.302696,43.694151 -1.18014,2.68577 -2.18849,4.92601 -2.2408,4.97831 -0.0523,0.0523 -0.3909,-0.29968 -0.75245,-0.78217 z M 62.06369,95.813027 c 0,-1.055382 0.21041,-1.151643 1.043226,-0.47727 l 0.572682,0.46373 -0.807954,0.477271 -0.807954,0.477269 z"
       style="fill:#000000;stroke-width:0.264583" />
  </g>
</svg>
